M48
; DRILL file {KiCad 9.0.0} date 2025-03-04T23:32:22+0100
; FORMAT={-:-/ absolute / inch / decimal}
; #@! TF.CreationDate,2025-03-04T23:32:22+01:00
; #@! TF.GenerationSoftware,Kicad,Pcbnew,9.0.0
; #@! TF.FileFunction,Plated,1,2,PTH
FMAT,2
INCH
; #@! TA.AperFunction,Plated,PTH,ViaDrill
T1C0.0118
; #@! TA.AperFunction,Plated,PTH,ComponentDrill
T2C0.0300
; #@! TA.AperFunction,Plated,PTH,ComponentDrill
T3C0.0394
; #@! TA.AperFunction,Plated,PTH,ComponentDrill
T4C0.0394
; #@! TA.AperFunction,Plated,PTH,ComponentDrill
T5C0.0472
; #@! TA.AperFunction,Plated,PTH,ComponentDrill
T6C0.0512
; #@! TA.AperFunction,Plated,PTH,ComponentDrill
T7C0.0591
; #@! TA.AperFunction,Plated,PTH,ComponentDrill
T8C0.0709
; #@! TA.AperFunction,Plated,PTH,ComponentDrill
T9C0.1260
%
G90
G05
T1
X2.0866Y-2.4016
X2.0866Y-2.4803
X2.0866Y-2.5591
X2.0866Y-2.6378
X2.0866Y-2.7165
X2.0866Y-2.7953
X2.0866Y-2.874
X2.0866Y-2.9528
X2.0866Y-3.0315
X2.0866Y-3.1102
X2.0866Y-3.189
X2.0866Y-3.2677
X2.0866Y-3.3465
X2.0866Y-3.4252
X2.0866Y-3.5039
X2.0866Y-3.5827
X2.1654Y-2.4016
X2.1654Y-2.4803
X2.1654Y-3.2677
X2.2441Y-2.7953
X2.2441Y-2.874
X2.2441Y-2.9528
X2.2441Y-3.0315
X2.3228Y-2.7953
X2.3228Y-2.874
X2.3228Y-2.9528
X2.3228Y-3.0315
X2.3228Y-3.1102
X2.3228Y-3.7402
X2.3228Y-4.9213
X2.3228Y-5.0
X2.3228Y-5.0787
X2.3228Y-5.5512
X2.4016Y-2.0866
X2.4016Y-2.1654
X2.4016Y-2.4803
X2.4016Y-2.5591
X2.4016Y-2.6378
X2.4016Y-2.7165
X2.4016Y-2.7953
X2.4016Y-4.8425
X2.4016Y-4.9213
X2.4016Y-5.5512
X2.4016Y-5.6299
X2.4016Y-5.7087
X2.4016Y-5.7874
X2.4803Y-2.0866
X2.4803Y-2.4016
X2.4803Y-2.4803
X2.4803Y-2.5591
X2.4803Y-2.6378
X2.4803Y-2.7165
X2.4803Y-4.7638
X2.4803Y-4.8425
X2.4803Y-4.9213
X2.4803Y-5.7874
X2.5591Y-2.3228
X2.5591Y-2.4016
X2.5591Y-2.4803
X2.5591Y-2.5591
X2.5591Y-2.6378
X2.5591Y-3.1102
X2.5591Y-3.189
X2.5591Y-3.2677
X2.5591Y-3.3465
X2.5591Y-4.7638
X2.5591Y-4.8425
X2.5591Y-4.9213
X2.6378Y-2.2441
X2.6378Y-2.3228
X2.6378Y-3.0315
X2.6378Y-3.1102
X2.6378Y-3.189
X2.6378Y-3.2677
X2.6378Y-3.3465
X2.6378Y-3.4252
X2.6378Y-4.7638
X2.6378Y-5.4724
X2.6654Y-3.6339
X2.7165Y-3.2677
X2.7165Y-3.3465
X2.7165Y-3.4252
X2.7165Y-3.5039
X2.7165Y-4.7638
X2.7953Y-3.2677
X2.7953Y-3.3465
X2.7953Y-3.4252
X2.7953Y-3.5039
X2.7953Y-3.5827
X2.7953Y-3.8976
X2.7953Y-4.2913
X2.7953Y-4.685
X2.7953Y-4.7638
X2.8445Y-5.3642
X2.874Y-2.0866
X2.874Y-2.1654
X2.874Y-2.2441
X2.874Y-2.3228
X2.874Y-3.0315
X2.874Y-3.1102
X2.874Y-3.189
X2.874Y-3.2677
X2.874Y-3.3465
X2.874Y-3.4252
X2.874Y-3.5039
X2.874Y-3.5827
X2.874Y-3.6614
X2.874Y-4.6063
X2.874Y-4.685
X2.874Y-4.7638
X2.874Y-5.7874
X2.8839Y-5.3642
X2.9134Y-5.1378
X2.9134Y-5.1772
X2.9134Y-5.2165
X2.9134Y-5.2559
X2.9134Y-5.2953
X2.9134Y-5.3346
X2.9528Y-2.0866
X2.9528Y-2.1654
X2.9528Y-2.2441
X2.9528Y-2.3228
X2.9528Y-3.1102
X2.9528Y-4.685
X2.9528Y-4.7638
X2.9528Y-4.8425
X2.9528Y-4.9213
X2.9528Y-5.7874
X3.0315Y-2.0866
X3.0315Y-2.1654
X3.0315Y-5.7874
X3.0512Y-3.3169
X3.063Y-5.1969
X3.1102Y-2.0866
X3.1102Y-2.1654
X3.1102Y-2.7953
X3.1102Y-3.5827
X3.1102Y-3.6614
X3.1102Y-4.2126
X3.1102Y-4.7638
X3.1102Y-5.7874
X3.1791Y-3.9469
X3.189Y-2.0866
X3.189Y-2.1654
X3.189Y-2.2441
X3.189Y-2.3228
X3.189Y-4.8425
X3.189Y-5.1575
X3.189Y-5.7874
X3.248Y-4.2165
X3.2677Y-2.0866
X3.2677Y-2.1654
X3.2677Y-2.2441
X3.2677Y-2.3228
X3.2677Y-2.9528
X3.2677Y-4.9213
X3.2677Y-5.2362
X3.2677Y-5.315
X3.2677Y-5.7874
X3.2776Y-4.3996
X3.2776Y-4.6358
X3.2874Y-4.1535
X3.3465Y-2.0866
X3.3465Y-2.1654
X3.3465Y-2.2441
X3.3465Y-2.3228
X3.3465Y-2.9528
X3.3465Y-3.0315
X3.3465Y-3.1102
X3.3465Y-5.0
X3.3465Y-5.315
X3.376Y-4.498
X3.376Y-4.7343
X3.3858Y-4.252
X3.4252Y-2.0866
X3.4252Y-2.1654
X3.4252Y-2.2441
X3.4252Y-2.3228
X3.4252Y-3.0315
X3.4252Y-3.1102
X3.4252Y-5.0787
X3.4744Y-4.5965
X3.4744Y-4.8327
X3.4843Y-4.3504
X3.5039Y-2.0866
X3.5039Y-2.1654
X3.5039Y-2.2441
X3.5039Y-2.3228
X3.5039Y-3.0315
X3.5039Y-3.1102
X3.5039Y-3.189
X3.5138Y-3.3169
X3.5827Y-2.0866
X3.5827Y-2.1654
X3.5827Y-2.2441
X3.5827Y-2.3228
X3.5827Y-3.1102
X3.5827Y-3.189
X3.5827Y-4.685
X3.622Y-4.5906
X3.6614Y-2.0866
X3.6614Y-2.1654
X3.6614Y-2.2441
X3.6614Y-2.3228
X3.6614Y-3.1102
X3.6614Y-3.189
X3.7008Y-2.6772
X3.7008Y-2.7559
X3.7008Y-2.8346
X3.7008Y-2.9134
X3.7008Y-2.9921
X3.7402Y-2.0866
X3.7402Y-3.2677
X3.7402Y-3.3465
X3.7402Y-3.4252
X3.7402Y-3.5039
X3.7402Y-4.1339
X3.7402Y-4.3898
X3.7402Y-4.4882
X3.7677Y-4.5906
X3.7795Y-2.6772
X3.7795Y-2.7559
X3.7795Y-2.8346
X3.7795Y-2.9921
X3.8189Y-2.0866
X3.8189Y-2.2047
X3.8189Y-2.2835
X3.8189Y-2.3622
X3.8189Y-2.4409
X3.8189Y-3.2677
X3.8189Y-3.3465
X3.8189Y-3.4252
X3.8189Y-3.5039
X3.8583Y-2.8346
X3.8583Y-2.9921
X3.878Y-4.3228
X3.878Y-4.4783
X3.8976Y-2.0866
X3.8976Y-2.2047
X3.8976Y-2.2835
X3.8976Y-2.3622
X3.8976Y-2.4409
X3.8976Y-3.1102
X3.8976Y-3.189
X3.8976Y-3.2677
X3.8976Y-3.3465
X3.8976Y-3.4252
X3.8976Y-3.5039
X3.8976Y-4.8425
X3.937Y-2.8346
X3.937Y-2.9134
X3.937Y-2.9921
X3.9764Y-2.0866
X3.9764Y-2.2047
X3.9764Y-2.2835
X3.9764Y-2.3622
X3.9764Y-2.4409
X3.9764Y-2.5197
X3.9764Y-3.1102
X3.9764Y-3.189
X3.9764Y-3.2677
X3.9764Y-3.3465
X3.9764Y-3.4252
X3.9764Y-3.5039
X3.9764Y-3.6614
X3.9764Y-3.8189
X3.9764Y-4.7638
X3.9764Y-5.1575
X3.9764Y-5.2362
X3.9764Y-5.315
X3.9764Y-5.3937
X3.9764Y-5.4724
X3.9764Y-5.5512
X3.9941Y-2.6083
X3.9961Y-5.0413
X4.0157Y-2.9134
X4.0551Y-2.0866
X4.0551Y-2.2047
X4.0551Y-2.2835
X4.0551Y-2.3622
X4.0551Y-2.4409
X4.0551Y-2.5197
X4.0551Y-3.189
X4.0551Y-3.2677
X4.0551Y-3.3465
X4.0551Y-4.5276
X4.0551Y-5.1575
X4.0551Y-5.2362
X4.0551Y-5.315
X4.0551Y-5.3937
X4.0551Y-5.4724
X4.0551Y-5.5512
X4.065Y-2.6969
X4.065Y-2.7362
X4.065Y-2.7756
X4.0945Y-2.9134
X4.1043Y-2.6969
X4.1043Y-2.7362
X4.1043Y-2.7756
X4.1339Y-2.0866
X4.1339Y-2.2047
X4.1339Y-2.2835
X4.1339Y-2.3622
X4.1339Y-2.4409
X4.1339Y-2.5197
X4.1339Y-3.2677
X4.1339Y-3.3465
X4.1339Y-4.5276
X4.1339Y-5.0787
X4.1339Y-5.1575
X4.1339Y-5.2362
X4.1339Y-5.315
X4.1339Y-5.3937
X4.1339Y-5.4724
X4.1339Y-5.5512
X4.1407Y-3.5433
X4.1437Y-2.6969
X4.1437Y-2.7362
X4.1437Y-2.7756
X4.1732Y-2.9134
X4.1732Y-2.9921
X4.1831Y-2.6969
X4.1831Y-2.7362
X4.1831Y-2.7756
X4.2126Y-2.0866
X4.2126Y-2.2047
X4.2126Y-2.2835
X4.2126Y-2.3622
X4.2126Y-2.4409
X4.2126Y-2.5197
X4.2126Y-3.3465
X4.2126Y-3.4252
X4.2126Y-5.0
X4.2126Y-5.0787
X4.2126Y-5.1575
X4.2126Y-5.4724
X4.2126Y-5.5512
X4.24Y-2.6748
X4.2815Y-4.5079
X4.2894Y-2.815
X4.2913Y-2.0866
X4.2913Y-2.2047
X4.2913Y-2.2835
X4.2913Y-2.3622
X4.2913Y-2.4409
X4.2913Y-2.5197
X4.2913Y-5.0
X4.2913Y-5.0787
X4.2913Y-5.1575
X4.2913Y-5.4724
X4.2913Y-5.5512
X4.3583Y-2.6575
X4.3583Y-2.6969
X4.3583Y-2.7362
X4.3701Y-2.0866
X4.3701Y-2.2047
X4.3701Y-2.2835
X4.3701Y-2.3622
X4.3701Y-2.4409
X4.3701Y-2.5197
X4.3701Y-5.0
X4.3701Y-5.0787
X4.3701Y-5.1575
X4.3701Y-5.4724
X4.3701Y-5.5512
X4.3976Y-2.6575
X4.3976Y-2.6969
X4.3976Y-2.7362
X4.3996Y-4.7736
X4.437Y-2.6575
X4.437Y-2.6969
X4.437Y-2.7362
X4.4488Y-2.0866
X4.4488Y-2.2047
X4.4488Y-2.5197
X4.4488Y-5.4724
X4.4488Y-5.5512
X4.4587Y-4.0689
X4.4685Y-4.6024
X4.4764Y-2.6575
X4.4764Y-2.6969
X4.4764Y-2.7362
X4.498Y-5.3445
X4.5157Y-3.0709
X4.5157Y-3.1102
X4.5157Y-3.1496
X4.5276Y-2.5197
X4.5354Y-2.815
X4.5551Y-3.0709
X4.5551Y-3.1102
X4.5551Y-3.1496
X4.5945Y-3.0709
X4.5945Y-3.1102
X4.6063Y-4.8425
X4.6339Y-3.0709
X4.6339Y-3.1102
X4.6358Y-3.4843
X4.6358Y-3.5236
X4.6358Y-3.563
X4.6375Y-4.5456
X4.6654Y-4.1043
X4.6732Y-3.0709
X4.6732Y-3.1102
X4.6732Y-3.2677
X4.6752Y-3.4843
X4.6752Y-3.5236
X4.6752Y-3.563
X4.6752Y-3.7303
X4.6752Y-4.0354
X4.6752Y-4.4488
X4.685Y-2.1654
X4.685Y-2.2441
X4.685Y-2.4803
X4.685Y-4.3898
X4.7126Y-3.0709
X4.7126Y-3.1102
X4.7126Y-3.2677
X4.7126Y-3.3071
X4.7146Y-3.4843
X4.7146Y-3.5236
X4.7146Y-3.563
X4.752Y-3.0709
X4.752Y-3.1102
X4.752Y-3.2677
X4.752Y-3.3071
X4.7539Y-4.3228
X4.7638Y-3.6122
X4.7736Y-4.1929
X4.7913Y-3.1102
X4.7913Y-3.1496
X4.7913Y-3.189
X4.7913Y-3.2283
X4.7913Y-3.2677
X4.7913Y-3.3071
X4.8031Y-2.2835
X4.8031Y-2.4409
X4.8031Y-2.5197
X4.8307Y-3.1102
X4.8307Y-3.1496
X4.8307Y-3.189
X4.8307Y-3.2283
X4.8307Y-3.2677
X4.8327Y-4.0157
X4.8524Y-4.7933
X4.8701Y-2.6575
X4.8701Y-2.6969
X4.8701Y-2.7362
X4.8701Y-3.1102
X4.8701Y-3.1496
X4.8701Y-3.189
X4.8701Y-3.2283
X4.8819Y-2.2047
X4.8819Y-2.5197
X4.9094Y-2.6575
X4.9094Y-2.6969
X4.9094Y-2.7362
X4.9094Y-3.0709
X4.9094Y-3.1102
X4.9094Y-3.1496
X4.9094Y-3.189
X4.9213Y-2.0866
X4.9488Y-2.6575
X4.9488Y-2.6969
X4.9488Y-2.7362
X4.9488Y-3.0709
X4.9488Y-3.1102
X4.9488Y-3.1496
X4.9606Y-2.2047
X4.9606Y-2.2835
X4.9606Y-2.4409
X4.9606Y-2.5197
X4.9803Y-4.3652
X4.9882Y-2.6575
X4.9882Y-2.6969
X4.9882Y-2.7362
X5.0Y-2.0866
X5.0Y-3.4252
X5.0Y-3.5039
X5.0394Y-2.2047
X5.0394Y-2.2835
X5.0394Y-2.3622
X5.0394Y-2.4409
X5.0394Y-2.5197
X5.0787Y-2.0866
X5.0787Y-3.3465
X5.0787Y-3.4252
X5.0787Y-3.5039
X5.0787Y-3.5827
X5.0787Y-3.6614
X5.0787Y-3.7402
X5.0787Y-3.8189
X5.0787Y-3.8976
X5.0787Y-3.9764
X5.0787Y-4.0551
X5.0787Y-4.1339
X5.0787Y-4.5768
X5.0787Y-4.685
X5.0787Y-4.7638
X5.1181Y-2.2047
X5.1181Y-2.2835
X5.1181Y-2.3622
X5.1181Y-2.4409
X5.1181Y-2.5197
X5.128Y-4.3676
X5.1575Y-2.0866
X5.1575Y-2.6969
X5.1575Y-2.7362
X5.1575Y-2.7756
X5.1575Y-2.9134
X5.1575Y-3.189
X5.1575Y-3.2677
X5.1575Y-3.3465
X5.1575Y-3.4252
X5.1575Y-3.5039
X5.1575Y-3.5827
X5.1575Y-3.6614
X5.1575Y-3.7402
X5.1575Y-3.8189
X5.1575Y-3.8976
X5.1575Y-3.9764
X5.1575Y-4.0551
X5.1575Y-4.1339
X5.1575Y-4.6063
X5.1575Y-4.685
X5.1969Y-2.2047
X5.1969Y-2.2835
X5.1969Y-2.3622
X5.1969Y-2.4409
X5.1969Y-2.5197
X5.1969Y-2.6969
X5.1969Y-2.7362
X5.1969Y-2.7756
X5.2362Y-2.0866
X5.2362Y-2.6969
X5.2362Y-2.7362
X5.2362Y-2.7756
X5.2362Y-2.9134
X5.2362Y-3.189
X5.2362Y-3.2677
X5.2362Y-3.3465
X5.2362Y-3.4252
X5.2362Y-3.5039
X5.2362Y-3.5827
X5.2362Y-3.6614
X5.2362Y-3.7402
X5.2362Y-3.8189
X5.2362Y-3.8976
X5.2362Y-3.9764
X5.2362Y-4.0551
X5.2362Y-4.1339
X5.2362Y-4.2126
X5.2362Y-5.6299
X5.2362Y-5.7087
X5.2362Y-5.7874
X5.2756Y-2.2047
X5.2756Y-2.2835
X5.2756Y-2.3622
X5.2756Y-2.4409
X5.2756Y-2.5197
X5.2756Y-2.6969
X5.2756Y-2.7362
X5.2756Y-2.7756
X5.2756Y-4.5079
X5.2756Y-5.315
X5.315Y-2.0866
X5.315Y-2.9134
X5.315Y-2.9921
X5.315Y-3.1102
X5.315Y-3.189
X5.315Y-3.2677
X5.315Y-3.3465
X5.315Y-3.4252
X5.315Y-3.5039
X5.315Y-3.5827
X5.315Y-3.6614
X5.315Y-3.7402
X5.315Y-3.8189
X5.315Y-3.8976
X5.315Y-3.9764
X5.315Y-4.0551
X5.315Y-4.1339
X5.315Y-4.2126
X5.315Y-5.6299
X5.315Y-5.7087
X5.315Y-5.7874
X5.3543Y-2.2047
X5.3543Y-2.2835
X5.3543Y-2.3622
X5.3543Y-2.4409
X5.3543Y-2.5197
X5.3543Y-2.6772
X5.3543Y-2.7559
X5.3543Y-2.8346
X5.3937Y-2.0866
X5.3937Y-2.9134
X5.3937Y-2.9921
X5.3937Y-3.1102
X5.3937Y-3.189
X5.3937Y-3.2677
X5.3937Y-3.3465
X5.3937Y-3.4252
X5.3937Y-3.5039
X5.3937Y-3.5827
X5.3937Y-3.6614
X5.3937Y-3.7402
X5.3937Y-3.8189
X5.3937Y-3.8976
X5.3937Y-3.9764
X5.3937Y-4.0551
X5.3937Y-4.1339
X5.3937Y-4.2126
X5.3937Y-4.2913
X5.3937Y-4.3701
X5.3937Y-4.4488
X5.3937Y-4.5276
X5.3937Y-5.4724
X5.3937Y-5.5512
X5.3937Y-5.6299
X5.3937Y-5.7087
X5.3937Y-5.7874
X5.4331Y-2.2047
X5.4331Y-2.2835
X5.4331Y-2.3622
X5.4331Y-2.4409
X5.4331Y-2.8346
X5.4724Y-2.0866
X5.4724Y-3.2677
X5.4724Y-3.3465
X5.4724Y-3.4252
X5.4724Y-3.5039
X5.4724Y-3.5827
X5.4724Y-3.6614
X5.4724Y-3.7402
X5.4724Y-3.8189
X5.4724Y-3.8976
X5.4724Y-3.9764
X5.4724Y-4.0551
X5.4724Y-4.1339
X5.4724Y-4.2126
X5.4724Y-4.2913
X5.4724Y-4.3701
X5.4724Y-4.4488
X5.4724Y-4.5276
X5.4724Y-5.4724
X5.4724Y-5.5512
X5.4724Y-5.6299
X5.4724Y-5.7087
X5.4724Y-5.7874
X5.5118Y-2.2047
X5.5118Y-2.2835
X5.5118Y-2.3622
X5.5118Y-2.4409
X5.5118Y-2.7559
X5.5118Y-2.8346
X5.5512Y-3.2677
X5.5512Y-3.3465
X5.5512Y-3.4252
X5.5512Y-3.5039
X5.5512Y-3.5827
X5.5512Y-3.6614
X5.5512Y-3.7402
X5.5512Y-3.8189
X5.5512Y-3.8976
X5.5512Y-3.9764
X5.5512Y-4.0551
X5.5512Y-4.1339
X5.5512Y-4.2126
X5.5512Y-4.2913
X5.5512Y-4.3701
X5.5512Y-4.4488
X5.5512Y-4.5276
X5.5512Y-5.4724
X5.5512Y-5.5512
X5.5906Y-2.6772
X5.5906Y-2.7559
X5.5906Y-2.8346
X5.5906Y-2.9134
X5.5906Y-2.9921
X5.6299Y-2.4016
X5.6299Y-2.4803
X5.6299Y-2.5591
X5.6299Y-3.1102
X5.6299Y-3.189
X5.6299Y-3.2677
X5.6299Y-3.3465
X5.6299Y-3.4252
X5.6299Y-3.5039
X5.6299Y-3.5827
X5.6299Y-3.6614
X5.6299Y-3.7402
X5.6299Y-3.8189
X5.6299Y-3.8976
X5.6299Y-3.9764
X5.6299Y-4.0551
X5.6299Y-4.1339
X5.6299Y-4.2126
X5.6299Y-4.2913
X5.6299Y-4.3701
X5.6299Y-4.4488
X5.6299Y-4.5276
X5.6299Y-5.4724
X5.6693Y-2.6772
X5.6693Y-2.7559
X5.6693Y-2.8346
X5.6693Y-2.9134
X5.6693Y-2.9921
X5.7087Y-2.4016
X5.7087Y-2.4803
X5.7087Y-2.5591
X5.7087Y-3.1102
X5.7087Y-3.189
X5.7087Y-3.2677
X5.7087Y-3.3465
X5.7087Y-3.4252
X5.7087Y-3.5039
X5.7087Y-3.5827
X5.7087Y-3.6614
X5.7087Y-3.7402
X5.7087Y-3.8189
X5.7087Y-3.8976
X5.7087Y-3.9764
X5.7087Y-4.0551
X5.7087Y-4.1339
X5.7087Y-4.2126
X5.7087Y-4.2913
X5.7087Y-4.3701
X5.7087Y-4.4488
X5.7087Y-4.5276
X5.7087Y-5.4724
X5.7874Y-2.4016
X5.7874Y-2.4803
X5.7874Y-2.5591
X5.7874Y-2.6378
X5.7874Y-2.7165
X5.7874Y-2.7953
X5.7874Y-2.874
X5.7874Y-2.9528
X5.7874Y-3.0315
X5.7874Y-3.1102
X5.7874Y-3.189
X5.7874Y-3.2677
X5.7874Y-3.3465
X5.7874Y-3.4252
X5.7874Y-3.5039
X5.7874Y-3.5827
X5.7874Y-3.6614
X5.7874Y-3.7402
X5.7874Y-3.8189
X5.7874Y-3.8976
X5.7874Y-3.9764
X5.7874Y-4.0551
X5.7874Y-4.1339
X5.7874Y-4.2126
X5.7874Y-4.2913
X5.7874Y-4.3701
X5.7874Y-4.4488
X5.7874Y-4.5276
X5.7874Y-4.6063
X5.7874Y-4.685
X5.7874Y-4.7638
X5.7874Y-4.8425
X5.7874Y-4.9213
X5.7874Y-5.0
X5.7874Y-5.0787
X5.7874Y-5.1575
X5.7874Y-5.2362
X5.7874Y-5.315
X5.7874Y-5.3937
X5.7874Y-5.4724
T2
X4.3209Y-4.0043
X4.3209Y-4.1043
X4.3209Y-4.2043
T3
X3.0812Y-3.0015
X3.1786Y-2.904
X3.7795Y-2.9315
X3.7795Y-3.1315
X5.5Y-2.9315
X5.5Y-3.1315
T4
X3.5197Y-5.0673
X3.5197Y-5.1673
X3.5197Y-5.2673
X3.5197Y-5.3673
X3.837Y-4.2323
X3.937Y-4.2323
X4.037Y-4.2323
X5.4626Y-4.7199
X5.4626Y-4.8199
X5.4626Y-4.9199
X5.4626Y-5.0199
X5.4626Y-5.1199
X5.4626Y-5.2199
X5.4626Y-5.3199
X5.6594Y-4.6181
X5.6594Y-4.7181
X5.6594Y-4.8181
X5.6594Y-4.9181
X5.6594Y-5.0181
X5.6594Y-5.1181
X5.6594Y-5.2181
X5.6594Y-5.3181
T5
X2.6461Y-4.8819
X2.7461Y-4.8819
X2.8461Y-4.8819
T6
X2.2244Y-4.6346
X2.2244Y-4.8346
X2.2244Y-5.0346
X2.2244Y-5.2346
X2.2244Y-5.4346
X2.2244Y-3.4346
X2.2244Y-3.6346
X2.2244Y-3.8346
X2.2244Y-4.0346
X2.2244Y-4.2346
X2.2244Y-4.4346
T7
X2.7559Y-2.0984
X2.7559Y-2.2984
X2.7559Y-2.4984
X2.7559Y-2.6984
X2.7559Y-2.8984
X2.7559Y-3.0984
T8
X4.4745Y-2.3622
X4.6745Y-2.3622
X4.8745Y-2.3622
T9
X2.1654Y-2.1654
X2.1654Y-5.7087
X5.7087Y-2.1654
X5.7087Y-5.7087
M30
