%TF.GenerationSoftware,KiCad,Pcbnew,9.0.0*%
%TF.CreationDate,2025-03-04T23:32:21+01:00*%
%TF.ProjectId,garage-door-controller,67617261-6765-42d6-946f-6f722d636f6e,rev?*%
%TF.SameCoordinates,Original*%
%TF.FileFunction,Copper,L2,Bot*%
%TF.FilePolarity,Positive*%
%FSLAX46Y46*%
G04 Gerber Fmt 4.6, Leading zero omitted, Abs format (unit mm)*
G04 Created by KiCad (PCBNEW 9.0.0) date 2025-03-04 23:32:21*
%MOMM*%
%LPD*%
G01*
G04 APERTURE LIST*
%TA.AperFunction,ComponentPad*%
%ADD10R,1.700000X1.700000*%
%TD*%
%TA.AperFunction,ComponentPad*%
%ADD11O,1.700000X1.700000*%
%TD*%
%TA.AperFunction,ComponentPad*%
%ADD12C,1.600000*%
%TD*%
%TA.AperFunction,ComponentPad*%
%ADD13R,1.600000X1.600000*%
%TD*%
%TA.AperFunction,ComponentPad*%
%ADD14C,5.600000*%
%TD*%
%TA.AperFunction,ComponentPad*%
%ADD15C,2.000000*%
%TD*%
%TA.AperFunction,ComponentPad*%
%ADD16R,2.500000X2.500000*%
%TD*%
%TA.AperFunction,ComponentPad*%
%ADD17C,2.500000*%
%TD*%
%TA.AperFunction,ComponentPad*%
%ADD18C,2.600000*%
%TD*%
%TA.AperFunction,ComponentPad*%
%ADD19C,1.520000*%
%TD*%
%TA.AperFunction,ComponentPad*%
%ADD20R,1.800000X2.600000*%
%TD*%
%TA.AperFunction,ComponentPad*%
%ADD21O,1.800000X2.600000*%
%TD*%
%TA.AperFunction,SMDPad,CuDef*%
%ADD22R,2.050000X2.240000*%
%TD*%
%TA.AperFunction,ViaPad*%
%ADD23C,0.600000*%
%TD*%
%TA.AperFunction,ViaPad*%
%ADD24C,0.500000*%
%TD*%
%TA.AperFunction,Conductor*%
%ADD25C,0.500000*%
%TD*%
%TA.AperFunction,Conductor*%
%ADD26C,0.400000*%
%TD*%
%TA.AperFunction,Conductor*%
%ADD27C,2.000000*%
%TD*%
%TA.AperFunction,Conductor*%
%ADD28C,0.750000*%
%TD*%
%TA.AperFunction,Conductor*%
%ADD29C,0.300000*%
%TD*%
%TA.AperFunction,Conductor*%
%ADD30C,1.000000*%
%TD*%
G04 APERTURE END LIST*
D10*
%TO.P,CN5,1,Pin_1*%
%TO.N,GND*%
X143750000Y-135080000D03*
D11*
%TO.P,CN5,2,Pin_2*%
%TO.N,/RF_D0*%
X143750000Y-132540000D03*
%TO.P,CN5,3,Pin_3*%
%TO.N,/RF_D1*%
X143750000Y-130000000D03*
%TO.P,CN5,4,Pin_4*%
%TO.N,/RF_D2*%
X143750000Y-127460000D03*
%TO.P,CN5,5,Pin_5*%
%TO.N,/RF_D3*%
X143750000Y-124920000D03*
%TO.P,CN5,6,Pin_6*%
%TO.N,/RF_VT*%
X143750000Y-122380000D03*
%TO.P,CN5,7,Pin_7*%
%TO.N,GND*%
X143750000Y-119840000D03*
%TO.P,CN5,8,Pin_8*%
%TO.N,+3V3*%
X143750000Y-117300000D03*
%TD*%
D10*
%TO.P,CN4,1,Pin_1*%
%TO.N,GND*%
X138750000Y-135125000D03*
D11*
%TO.P,CN4,2,Pin_2*%
%TO.N,+3V3*%
X138750000Y-132585000D03*
%TO.P,CN4,3,Pin_3*%
%TO.N,/RF_D0*%
X138750000Y-130045000D03*
%TO.P,CN4,4,Pin_4*%
%TO.N,/RF_D1*%
X138750000Y-127505000D03*
%TO.P,CN4,5,Pin_5*%
%TO.N,/RF_D2*%
X138750000Y-124965000D03*
%TO.P,CN4,6,Pin_6*%
%TO.N,/RF_D3*%
X138750000Y-122425000D03*
%TO.P,CN4,7,Pin_7*%
%TO.N,/RF_VT*%
X138750000Y-119885000D03*
%TD*%
D12*
%TO.P,C9,1*%
%TO.N,+36V*%
X96000000Y-74460000D03*
D13*
%TO.P,C9,2*%
%TO.N,GND*%
X96000000Y-79540000D03*
%TD*%
D14*
%TO.P,H4,1,1*%
%TO.N,unconnected-(H4-Pad1)*%
X145000000Y-145000000D03*
%TD*%
%TO.P,H3,1,1*%
%TO.N,unconnected-(H3-Pad1)*%
X145000000Y-55000000D03*
%TD*%
D10*
%TO.P,CN3,1,Pin_1*%
%TO.N,GND*%
X97460000Y-107500000D03*
D11*
%TO.P,CN3,2,Pin_2*%
%TO.N,+5V*%
X100000000Y-107500000D03*
%TO.P,CN3,3,Pin_3*%
%TO.N,MOTOR_TACHO*%
X102540000Y-107500000D03*
%TD*%
D12*
%TO.P,C2,1*%
%TO.N,+24V*%
X78262563Y-76237437D03*
%TO.P,C2,2*%
%TO.N,GND*%
X80737437Y-73762563D03*
%TD*%
D15*
%TO.P,X4,1,1*%
%TO.N,GND*%
X56500000Y-127880000D03*
%TO.P,X4,2,2*%
%TO.N,LIGHT_LOW*%
X56500000Y-132960000D03*
%TO.P,X4,3,3*%
%TO.N,+24V*%
X56500000Y-138040000D03*
%TD*%
D14*
%TO.P,H2,1,1*%
%TO.N,unconnected-(H2-Pad1)*%
X55000000Y-145000000D03*
%TD*%
D15*
%TO.P,X2,1,1*%
%TO.N,PUSH_DOWN*%
X56500001Y-102480000D03*
%TO.P,X2,2,2*%
%TO.N,GND*%
X56500001Y-107560000D03*
%TO.P,X2,3,3*%
%TO.N,PUSH_UP*%
X56500001Y-112640000D03*
%TD*%
D12*
%TO.P,C25,1*%
%TO.N,+36V*%
X139700000Y-74460000D03*
D13*
%TO.P,C25,2*%
%TO.N,GND*%
X139700000Y-79540000D03*
%TD*%
D16*
%TO.P,CN1,1,Pin_1*%
%TO.N,PSU_36*%
X70000000Y-53299998D03*
D17*
%TO.P,CN1,2,Pin_2*%
%TO.N,unconnected-(CN1-Pin_2-Pad2)*%
X70000000Y-58379998D03*
%TO.P,CN1,3,Pin_3*%
%TO.N,+36V*%
X70000000Y-63459998D03*
%TO.P,CN1,4,Pin_4*%
%TO.N,+24V*%
X70000000Y-68539998D03*
%TO.P,CN1,5,Pin_5*%
%TO.N,unconnected-(CN1-Pin_5-Pad5)*%
X70000000Y-73619998D03*
%TO.P,CN1,6,Pin_6*%
%TO.N,GND*%
X70000000Y-78699998D03*
%TD*%
D18*
%TO.P,CN2,1,Pin_1*%
%TO.N,SH1*%
X123812500Y-60000000D03*
%TO.P,CN2,2,Pin_2*%
%TO.N,GND*%
X118732500Y-60000000D03*
%TO.P,CN2,3,Pin_3*%
%TO.N,SH2*%
X113652500Y-60000000D03*
%TD*%
D10*
%TO.P,CN9,1,Pin_1*%
%TO.N,GND*%
X89400000Y-136329999D03*
D11*
%TO.P,CN9,2,Pin_2*%
%TO.N,/TX*%
X89400000Y-133789999D03*
%TO.P,CN9,3,Pin_3*%
%TO.N,/RX*%
X89400000Y-131249999D03*
%TO.P,CN9,4,Pin_4*%
%TO.N,+3V3*%
X89400000Y-128709999D03*
%TD*%
D19*
%TO.P,RV1,1,1*%
%TO.N,/AVDD*%
X109750000Y-106790000D03*
%TO.P,RV1,2,2*%
%TO.N,/VREF_VAR*%
X109750000Y-104250000D03*
%TO.P,RV1,3,3*%
%TO.N,GND*%
X109750000Y-101710000D03*
%TD*%
D15*
%TO.P,X1,1,1*%
%TO.N,LIM_SW_BOTTOM*%
X56500001Y-87240000D03*
%TO.P,X1,2,2*%
%TO.N,+24V*%
X56500001Y-92320000D03*
%TO.P,X1,3,3*%
%TO.N,LIM_SW_TOP*%
X56500001Y-97400000D03*
%TD*%
D14*
%TO.P,H1,1,1*%
%TO.N,unconnected-(H1-Pad1)*%
X55000000Y-55000000D03*
%TD*%
D15*
%TO.P,X3,1,1*%
%TO.N,PUSH_TOGGLE*%
X56500000Y-122800000D03*
%TO.P,X3,2,2*%
%TO.N,GND*%
X56500000Y-117720000D03*
%TD*%
D20*
%TO.P,Q3,1,G*%
%TO.N,Net-(Q3-G)*%
X72290000Y-124000000D03*
D21*
%TO.P,Q3,2,D*%
%TO.N,LIGHT_LOW*%
X69750000Y-124000000D03*
%TO.P,Q3,3,S*%
%TO.N,GND*%
X67210000Y-124000000D03*
%TD*%
D22*
%TO.P,D7,1,K*%
%TO.N,SH1*%
X121340000Y-56250000D03*
%TO.P,D7,2,A*%
%TO.N,SH2*%
X116160000Y-56250000D03*
%TD*%
D23*
%TO.N,+36V*%
X94000000Y-70000000D03*
D24*
X103250000Y-68500000D03*
D23*
X144000000Y-72000000D03*
D24*
X131000000Y-68500000D03*
X131000000Y-70500000D03*
X104250000Y-70500000D03*
D23*
X136000000Y-72000000D03*
X131000000Y-74000000D03*
X142000000Y-68000000D03*
X142000000Y-70000000D03*
X135000000Y-76000000D03*
D24*
X131000000Y-69500000D03*
X134000000Y-68500000D03*
X105250000Y-69500000D03*
D23*
X137000000Y-76000000D03*
X136000000Y-70000000D03*
X102000000Y-74000000D03*
X144000000Y-68000000D03*
D24*
X106250000Y-70500000D03*
D23*
X100000000Y-72000000D03*
X133000000Y-74000000D03*
X94000000Y-76000000D03*
X94000000Y-72000000D03*
X135000000Y-74000000D03*
X94000000Y-68000000D03*
D24*
X106250000Y-69500000D03*
D23*
X142000000Y-76000000D03*
X140000000Y-72000000D03*
D24*
X133000000Y-68500000D03*
D23*
X98000000Y-76000000D03*
D24*
X104250000Y-68500000D03*
X132000000Y-69500000D03*
X134000000Y-69500000D03*
X134000000Y-70500000D03*
D23*
X142000000Y-72000000D03*
X140000000Y-70000000D03*
X144000000Y-74000000D03*
D24*
X106250000Y-68500000D03*
D23*
X98000000Y-72000000D03*
X96000000Y-70000000D03*
X96000000Y-68000000D03*
X106000000Y-74000000D03*
X137000000Y-74000000D03*
D24*
X132000000Y-70500000D03*
D23*
X136000000Y-68000000D03*
X142000000Y-74000000D03*
X104000000Y-74000000D03*
D24*
X103250000Y-70500000D03*
X133000000Y-69500000D03*
D23*
X94000000Y-74000000D03*
X96000000Y-72000000D03*
D24*
X133000000Y-70500000D03*
X105250000Y-68500000D03*
X105250000Y-70500000D03*
X132000000Y-68500000D03*
X103250000Y-69500000D03*
D23*
X100000000Y-76000000D03*
D24*
X104250000Y-69500000D03*
D23*
X144000000Y-70000000D03*
X106000000Y-76000000D03*
X100000000Y-74000000D03*
X96000000Y-76000000D03*
X138000000Y-72000000D03*
X144000000Y-76000000D03*
%TO.N,MOTOR_TACHO*%
X129000000Y-116250000D03*
X117791776Y-115458224D03*
D24*
X108750000Y-114500000D03*
D23*
%TO.N,LIM_TOP*%
X130250000Y-110936776D03*
X118750000Y-113000000D03*
%TO.N,LIM_BOTTOM*%
X95000000Y-111500000D03*
X95000000Y-114000000D03*
X126500000Y-110875000D03*
X119000000Y-111500000D03*
%TO.N,GND*%
X145000000Y-115000000D03*
X75000000Y-147000000D03*
X86000000Y-108000000D03*
X85000000Y-79000000D03*
X85750000Y-114250000D03*
X59000000Y-71000000D03*
X81000000Y-57000000D03*
X145000000Y-65000000D03*
X137000000Y-143000000D03*
X147000000Y-121000000D03*
D24*
X125700000Y-79000000D03*
D23*
X147000000Y-125000000D03*
X65000000Y-83000000D03*
X53000000Y-69000000D03*
X143000000Y-109000000D03*
X107000000Y-139000000D03*
X105000000Y-133000000D03*
X61000000Y-53000000D03*
X111000000Y-141000000D03*
X81000000Y-147000000D03*
X133000000Y-89000000D03*
X133000000Y-105000000D03*
X145000000Y-93000000D03*
X103000000Y-139000000D03*
X99000000Y-87000000D03*
D24*
X123700000Y-81000000D03*
D23*
X147000000Y-91000000D03*
X139000000Y-91000000D03*
X139000000Y-107000000D03*
X91000000Y-53000000D03*
X147000000Y-85000000D03*
X137000000Y-97000000D03*
X143000000Y-87000000D03*
X107000000Y-53000000D03*
D24*
X118700000Y-83000000D03*
D23*
X137000000Y-81000000D03*
X55000000Y-83000000D03*
X141000000Y-97000000D03*
X93000000Y-53000000D03*
D24*
X118750000Y-89500000D03*
D23*
X131000000Y-91000000D03*
X105000000Y-141000000D03*
X147000000Y-73000000D03*
X131000000Y-97000000D03*
X143000000Y-97000000D03*
D24*
X74000000Y-134500000D03*
X115700000Y-79000000D03*
X121700000Y-82000000D03*
X123700000Y-82000000D03*
D23*
X147000000Y-133000000D03*
X147000000Y-61000000D03*
X133000000Y-93000000D03*
X147000000Y-79000000D03*
X147000000Y-113000000D03*
X85000000Y-59000000D03*
X59000000Y-141000000D03*
X73000000Y-119000000D03*
X71000000Y-91000000D03*
X135000000Y-85000000D03*
X129000000Y-93000000D03*
X65000000Y-123000000D03*
D24*
X122700000Y-81000000D03*
D23*
X143000000Y-79000000D03*
X53000000Y-77000000D03*
X65000000Y-121000000D03*
X53000000Y-65000000D03*
X147000000Y-137000000D03*
D24*
X117700000Y-78000000D03*
D23*
X103000000Y-135000000D03*
X135000000Y-147000000D03*
X85000000Y-127000000D03*
X75000000Y-59000000D03*
X85000000Y-53000000D03*
X81000000Y-123000000D03*
X147000000Y-101000000D03*
X131000000Y-119000000D03*
X133000000Y-145000000D03*
D24*
X124700000Y-79000000D03*
D23*
X99000000Y-81000000D03*
X133000000Y-53000000D03*
X141000000Y-107000000D03*
X139000000Y-105000000D03*
X85000000Y-135000000D03*
D24*
X122700000Y-80000000D03*
D23*
X129000000Y-99000000D03*
X135000000Y-79000000D03*
X137000000Y-109000000D03*
X69000000Y-85000000D03*
X55000000Y-61000000D03*
X103000000Y-131000000D03*
X59000000Y-75000000D03*
X91000000Y-55000000D03*
X75000000Y-119000000D03*
X75000000Y-123000000D03*
X145000000Y-79000000D03*
X69000000Y-89000000D03*
X143000000Y-139000000D03*
X95000000Y-85000000D03*
X53000000Y-85000000D03*
X73000000Y-53000000D03*
X69000000Y-83000000D03*
X147000000Y-129000000D03*
D24*
X125700000Y-80000000D03*
D23*
X88250000Y-116750000D03*
X89000000Y-59000000D03*
D24*
X122700000Y-82000000D03*
D23*
X147000000Y-97000000D03*
X113000000Y-141000000D03*
X133000000Y-103000000D03*
X143000000Y-101000000D03*
X73000000Y-79000000D03*
X97000000Y-83000000D03*
X143000000Y-85000000D03*
X141000000Y-101000000D03*
X135000000Y-99000000D03*
X53000000Y-75000000D03*
X147000000Y-75000000D03*
X75000000Y-55000000D03*
X123250000Y-121750000D03*
X73000000Y-117000000D03*
X147000000Y-99000000D03*
X53000000Y-79000000D03*
X101000000Y-135000000D03*
X139000000Y-111000000D03*
X73000000Y-55000000D03*
X141000000Y-87000000D03*
D24*
X124700000Y-78000000D03*
D23*
X139000000Y-145000000D03*
X141000000Y-141000000D03*
D24*
X118750000Y-90500000D03*
D23*
X141000000Y-105000000D03*
X143000000Y-61000000D03*
X97000000Y-85000000D03*
D24*
X119750000Y-90500000D03*
D23*
X137000000Y-101000000D03*
X101000000Y-139000000D03*
X79000000Y-107000000D03*
X143000000Y-63000000D03*
D24*
X115700000Y-80000000D03*
D23*
X73000000Y-59000000D03*
X143000000Y-111000000D03*
X129000000Y-95000000D03*
X93000000Y-59000000D03*
X109000000Y-127000000D03*
X83000000Y-135000000D03*
X143000000Y-81000000D03*
X65000000Y-63000000D03*
X143000000Y-91000000D03*
X83000000Y-75000000D03*
X147000000Y-139000000D03*
X143000000Y-65000000D03*
X85750000Y-120250000D03*
X101000000Y-53000000D03*
X109000000Y-129000000D03*
X53000000Y-63000000D03*
X147000000Y-67000000D03*
X127000000Y-89000000D03*
X135000000Y-105000000D03*
X147000000Y-127000000D03*
X143000000Y-95000000D03*
X53000000Y-83000000D03*
X83000000Y-53000000D03*
X139000000Y-113000000D03*
X99000000Y-83000000D03*
X141000000Y-111000000D03*
X99000000Y-85000000D03*
X141000000Y-139000000D03*
X99000000Y-89000000D03*
D24*
X121700000Y-84000000D03*
D23*
X133000000Y-91000000D03*
X61000000Y-63000000D03*
X53000000Y-91000000D03*
X131000000Y-93000000D03*
X143000000Y-83000000D03*
X137000000Y-115000000D03*
X129000000Y-121000000D03*
X101000000Y-97000000D03*
X93000000Y-79000000D03*
X73000000Y-121000000D03*
X65000000Y-65000000D03*
X147000000Y-83000000D03*
X63000000Y-61000000D03*
X87000000Y-55000000D03*
X119000000Y-57000000D03*
X145000000Y-81000000D03*
X85000000Y-57000000D03*
X111000000Y-139000000D03*
X141000000Y-99000000D03*
X65000000Y-61000000D03*
X53000000Y-71000000D03*
X139000000Y-141000000D03*
D24*
X74000000Y-130500000D03*
D23*
X141000000Y-91000000D03*
X63000000Y-53000000D03*
X105000000Y-135000000D03*
X129000000Y-119000000D03*
X99000000Y-123000000D03*
D24*
X117750000Y-89500000D03*
D23*
X79000000Y-121000000D03*
X65000000Y-79000000D03*
X53000000Y-81000000D03*
D24*
X119700000Y-83000000D03*
D23*
X99000000Y-79000000D03*
D24*
X119700000Y-84000000D03*
D23*
X101000000Y-133000000D03*
X125000000Y-53000000D03*
X141000000Y-83000000D03*
X139000000Y-97000000D03*
X145000000Y-63000000D03*
X77000000Y-53000000D03*
X135000000Y-107000000D03*
D24*
X74000000Y-132500000D03*
D23*
X143000000Y-107000000D03*
X61000000Y-65000000D03*
X63000000Y-125000000D03*
X147000000Y-105000000D03*
X101000000Y-83000000D03*
X61000000Y-147000000D03*
X63000000Y-63000000D03*
X137000000Y-91000000D03*
X147000000Y-81000000D03*
X59000000Y-129000000D03*
X73000000Y-91000000D03*
X135000000Y-101000000D03*
X145000000Y-95000000D03*
X67000000Y-81000000D03*
X141000000Y-109000000D03*
X129000000Y-101000000D03*
X67000000Y-139000000D03*
X145000000Y-87000000D03*
X135000000Y-93000000D03*
X69000000Y-87000000D03*
X95000000Y-105000000D03*
D24*
X117750000Y-88500000D03*
D23*
X145000000Y-139000000D03*
X131000000Y-103000000D03*
X85000000Y-77000000D03*
X83000000Y-59000000D03*
X109000000Y-141000000D03*
X91000000Y-59000000D03*
X131000000Y-105000000D03*
X59000000Y-79000000D03*
X71000000Y-109000000D03*
X67000000Y-77000000D03*
D24*
X118700000Y-78000000D03*
D23*
X127000000Y-87000000D03*
X137000000Y-111000000D03*
X101000000Y-131000000D03*
X139000000Y-95000000D03*
X67000000Y-121000000D03*
X137000000Y-105000000D03*
X65000000Y-85000000D03*
X73000000Y-77000000D03*
X137000000Y-145000000D03*
X59000000Y-127000000D03*
D24*
X114700000Y-79000000D03*
D23*
X83000000Y-55000000D03*
D24*
X117700000Y-79000000D03*
D23*
X101000000Y-81000000D03*
X147000000Y-95000000D03*
D24*
X120700000Y-78000000D03*
D23*
X135000000Y-87000000D03*
X131000000Y-83000000D03*
X139000000Y-85000000D03*
X137000000Y-95000000D03*
X79000000Y-71000000D03*
X137000000Y-53000000D03*
X101000000Y-93000000D03*
X133000000Y-97000000D03*
X81000000Y-53000000D03*
X89000000Y-77000000D03*
X73000000Y-81000000D03*
X139000000Y-109000000D03*
X83000000Y-125000000D03*
X91000000Y-119000000D03*
X139000000Y-103000000D03*
X147000000Y-63000000D03*
X83500000Y-105500000D03*
X141000000Y-115000000D03*
X83250000Y-111750000D03*
X131000000Y-117000000D03*
X79000000Y-53000000D03*
X145000000Y-113000000D03*
X147000000Y-117000000D03*
X79000000Y-55000000D03*
X63000000Y-123000000D03*
X139000000Y-93000000D03*
X73000000Y-147000000D03*
X137000000Y-85000000D03*
X57000000Y-73000000D03*
X91000000Y-57000000D03*
X147000000Y-69000000D03*
X109000000Y-53000000D03*
X95000000Y-53000000D03*
X145000000Y-61000000D03*
X105000000Y-115000000D03*
X147000000Y-93000000D03*
X65000000Y-59000000D03*
X139000000Y-53000000D03*
X103000000Y-141000000D03*
X105000000Y-129000000D03*
X63000000Y-121000000D03*
X117000000Y-123000000D03*
X75000000Y-79000000D03*
X67000000Y-57000000D03*
X61000000Y-67000000D03*
X63000000Y-147000000D03*
X105000000Y-53000000D03*
X65000000Y-81000000D03*
X101000000Y-141000000D03*
X83000000Y-57000000D03*
X147000000Y-135000000D03*
X129000000Y-97000000D03*
X145000000Y-99000000D03*
X133000000Y-147000000D03*
X139000000Y-83000000D03*
X119000000Y-55000000D03*
X67000000Y-85000000D03*
X143000000Y-103000000D03*
X137000000Y-83000000D03*
X137000000Y-147000000D03*
X95000000Y-87000000D03*
X87000000Y-53000000D03*
X79000000Y-93000000D03*
X101000000Y-79000000D03*
X53000000Y-89000000D03*
D24*
X121700000Y-81000000D03*
D23*
X103000000Y-53000000D03*
X133000000Y-85000000D03*
X57000000Y-77000000D03*
X83000000Y-147000000D03*
X91000000Y-79000000D03*
X105000000Y-83000000D03*
D24*
X74000000Y-133500000D03*
D23*
X55000000Y-63000000D03*
X103000000Y-85000000D03*
X129000000Y-103000000D03*
D24*
X122700000Y-79000000D03*
D23*
X101000000Y-121000000D03*
X137000000Y-107000000D03*
X143000000Y-105000000D03*
X143000000Y-115000000D03*
X111000000Y-127000000D03*
D24*
X121700000Y-79000000D03*
D23*
X147000000Y-107000000D03*
X133000000Y-101000000D03*
X65000000Y-125000000D03*
X71000000Y-119000000D03*
X137000000Y-87000000D03*
X135000000Y-83000000D03*
X137000000Y-93000000D03*
X107000000Y-131000000D03*
X89000000Y-79000000D03*
X139000000Y-87000000D03*
X133000000Y-107000000D03*
X89000000Y-57000000D03*
D24*
X125700000Y-78000000D03*
D23*
X127000000Y-53000000D03*
X101000000Y-89000000D03*
X137000000Y-99000000D03*
X103000000Y-81000000D03*
X118500000Y-104250000D03*
X129000000Y-91000000D03*
X59000000Y-95000000D03*
X135000000Y-143000000D03*
X71000000Y-121000000D03*
X89000000Y-55000000D03*
X67000000Y-79000000D03*
X93000000Y-81000000D03*
X103000000Y-133000000D03*
X133000000Y-95000000D03*
X139000000Y-101000000D03*
X111000000Y-53000000D03*
X129000000Y-105000000D03*
X80750000Y-100250000D03*
X143000000Y-113000000D03*
D24*
X118700000Y-79000000D03*
D23*
X137000000Y-113000000D03*
X135000000Y-91000000D03*
X101000000Y-137000000D03*
X67000000Y-87000000D03*
X73000000Y-57000000D03*
X59000000Y-77000000D03*
X88500000Y-110500000D03*
X145000000Y-89000000D03*
X107000000Y-141000000D03*
X139000000Y-139000000D03*
X145000000Y-103000000D03*
X147000000Y-119000000D03*
X109000000Y-139000000D03*
X113000000Y-139000000D03*
X147000000Y-77000000D03*
X145000000Y-111000000D03*
D24*
X74000000Y-135500000D03*
D23*
X105000000Y-131000000D03*
X143000000Y-89000000D03*
X135000000Y-81000000D03*
X75000000Y-121000000D03*
X141000000Y-95000000D03*
X101000000Y-85000000D03*
X137000000Y-79000000D03*
X137000000Y-89000000D03*
X79000000Y-91000000D03*
X103000000Y-83000000D03*
X73000000Y-85000000D03*
X129000000Y-85000000D03*
D24*
X114700000Y-78000000D03*
D23*
X131000000Y-101000000D03*
X71000000Y-99000000D03*
X147000000Y-87000000D03*
D24*
X74000000Y-131500000D03*
D23*
X131000000Y-53000000D03*
X133000000Y-143000000D03*
X135000000Y-89000000D03*
X103000000Y-137000000D03*
X135000000Y-97000000D03*
X81000000Y-59000000D03*
X139000000Y-115000000D03*
X81000000Y-131000000D03*
X59000000Y-125000000D03*
X107000000Y-129000000D03*
X85000000Y-75000000D03*
X83250000Y-117750000D03*
X131000000Y-81000000D03*
D24*
X73250000Y-136250000D03*
D23*
X87000000Y-79000000D03*
X69000000Y-121000000D03*
X111000000Y-131000000D03*
X105000000Y-137000000D03*
D24*
X119700000Y-78000000D03*
D23*
X147000000Y-71000000D03*
X145000000Y-83000000D03*
X73000000Y-83000000D03*
X137000000Y-103000000D03*
X137000000Y-139000000D03*
X145000000Y-105000000D03*
X131000000Y-89000000D03*
D24*
X119750000Y-89500000D03*
D23*
X147000000Y-103000000D03*
X129000000Y-53000000D03*
X97000000Y-87000000D03*
X61000000Y-71000000D03*
X147000000Y-89000000D03*
X145000000Y-107000000D03*
X135000000Y-95000000D03*
X99000000Y-53000000D03*
X105000000Y-85000000D03*
D24*
X120700000Y-84000000D03*
D23*
X97000000Y-89000000D03*
X133000000Y-99000000D03*
X139000000Y-147000000D03*
X139000000Y-99000000D03*
X131000000Y-99000000D03*
X61000000Y-125000000D03*
X97000000Y-53000000D03*
X139000000Y-89000000D03*
X145000000Y-91000000D03*
X65000000Y-67000000D03*
X71000000Y-89000000D03*
D24*
X124700000Y-81000000D03*
X124700000Y-80000000D03*
X115700000Y-78000000D03*
D23*
X147000000Y-115000000D03*
X77000000Y-55000000D03*
X111000000Y-129000000D03*
X107000000Y-127000000D03*
X145000000Y-101000000D03*
X95000000Y-83000000D03*
X63000000Y-69000000D03*
X88250000Y-122750000D03*
X145000000Y-109000000D03*
X143000000Y-99000000D03*
X133000000Y-83000000D03*
X147000000Y-111000000D03*
X141000000Y-89000000D03*
X133000000Y-87000000D03*
X87000000Y-129000000D03*
D24*
X116700000Y-79000000D03*
X118750000Y-88500000D03*
D23*
X61000000Y-141000000D03*
X75000000Y-125000000D03*
X75000000Y-57000000D03*
D24*
X77800000Y-132000000D03*
X114700000Y-80000000D03*
D23*
X141000000Y-113000000D03*
X145000000Y-85000000D03*
X131000000Y-85000000D03*
X93000000Y-55000000D03*
X147000000Y-123000000D03*
X75000000Y-53000000D03*
X143000000Y-93000000D03*
X89000000Y-81000000D03*
X73000000Y-87000000D03*
X135000000Y-53000000D03*
X141000000Y-93000000D03*
X135000000Y-145000000D03*
X105000000Y-139000000D03*
D24*
X121700000Y-80000000D03*
X119750000Y-88500000D03*
D23*
X67000000Y-83000000D03*
D24*
X123700000Y-80000000D03*
X116700000Y-78000000D03*
D23*
X71000000Y-83000000D03*
X85000000Y-55000000D03*
X109000000Y-131000000D03*
X107000000Y-85000000D03*
X53000000Y-61000000D03*
X61000000Y-69000000D03*
X57000000Y-75000000D03*
X141000000Y-85000000D03*
X81000000Y-55000000D03*
X131000000Y-87000000D03*
X73000000Y-89000000D03*
X113000000Y-53000000D03*
D24*
X120700000Y-83000000D03*
D23*
X119000000Y-63000000D03*
X61000000Y-143000000D03*
D24*
X120700000Y-79000000D03*
D23*
X107000000Y-87000000D03*
X147000000Y-131000000D03*
X63000000Y-67000000D03*
X93000000Y-57000000D03*
X95000000Y-89000000D03*
X61000000Y-123000000D03*
X133000000Y-81000000D03*
X129000000Y-89000000D03*
D24*
X121700000Y-83000000D03*
D23*
X131000000Y-95000000D03*
X87000000Y-59000000D03*
D24*
X119700000Y-79000000D03*
D23*
X53000000Y-67000000D03*
X53000000Y-73000000D03*
X61000000Y-55000000D03*
X91000000Y-81000000D03*
X87000000Y-77000000D03*
X67000000Y-59000000D03*
X103000000Y-115000000D03*
X147000000Y-65000000D03*
X135000000Y-103000000D03*
X53000000Y-87000000D03*
D24*
X117750000Y-90500000D03*
D23*
X101000000Y-87000000D03*
X139000000Y-143000000D03*
X63000000Y-65000000D03*
X141000000Y-103000000D03*
X89000000Y-53000000D03*
X71000000Y-87000000D03*
D24*
X72250001Y-136250000D03*
D23*
X147000000Y-109000000D03*
D24*
X122700000Y-83000000D03*
D23*
X61000000Y-145000000D03*
X83000000Y-133000000D03*
X59000000Y-73000000D03*
D24*
X123700000Y-79000000D03*
D23*
X145000000Y-97000000D03*
X79000000Y-147000000D03*
X137000000Y-141000000D03*
X73000000Y-93000000D03*
X129000000Y-87000000D03*
X71000000Y-85000000D03*
X77000000Y-147000000D03*
X87000000Y-57000000D03*
X57000000Y-71000000D03*
%TO.N,SH1*%
X138000000Y-58000000D03*
D24*
X123700000Y-68500000D03*
D23*
X138000000Y-62000000D03*
D24*
X126700000Y-69500000D03*
D23*
X132000000Y-56000000D03*
X138000000Y-56000000D03*
D24*
X124700000Y-67500000D03*
X126700000Y-67500000D03*
D23*
X136000000Y-58000000D03*
X126000000Y-64000000D03*
X132000000Y-64000000D03*
X122000000Y-64000000D03*
X122000000Y-58000000D03*
X134000000Y-58000000D03*
X130000000Y-60000000D03*
D24*
X124700000Y-69500000D03*
D23*
X132000000Y-62000000D03*
X140000000Y-60000000D03*
X138000000Y-60000000D03*
X132000000Y-58000000D03*
D24*
X125700000Y-69500000D03*
D23*
X126000000Y-58000000D03*
X136000000Y-60000000D03*
X128000000Y-60000000D03*
X134000000Y-56000000D03*
X126000000Y-56000000D03*
D24*
X123700000Y-69500000D03*
D23*
X128000000Y-56000000D03*
X134000000Y-64000000D03*
X130000000Y-64000000D03*
D24*
X124700000Y-68500000D03*
D23*
X122000000Y-62000000D03*
X136000000Y-56000000D03*
X130000000Y-62000000D03*
X128000000Y-64000000D03*
D24*
X125700000Y-68500000D03*
X123700000Y-67500000D03*
D23*
X134000000Y-62000000D03*
D24*
X126700000Y-68500000D03*
D23*
X128000000Y-58000000D03*
D24*
X125700000Y-67500000D03*
D23*
X126000000Y-62000000D03*
X134000000Y-60000000D03*
X124000000Y-56000000D03*
X140000000Y-58000000D03*
X130000000Y-56000000D03*
X132000000Y-60000000D03*
X136000000Y-62000000D03*
X136000000Y-64000000D03*
X140000000Y-56000000D03*
X128000000Y-62000000D03*
X140000000Y-62000000D03*
X124000000Y-64000000D03*
X130000000Y-58000000D03*
D24*
%TO.N,SH2*%
X113700000Y-67500000D03*
D23*
X113000000Y-56000000D03*
X97000000Y-58000000D03*
X103000000Y-62000000D03*
D24*
X111700000Y-67500000D03*
X110700000Y-68500000D03*
D23*
X105000000Y-60000000D03*
D24*
X111700000Y-69500000D03*
D23*
X99000000Y-60000000D03*
X101000000Y-58000000D03*
X111000000Y-58000000D03*
X107000000Y-58000000D03*
X115000000Y-64000000D03*
X103000000Y-64000000D03*
X97000000Y-56000000D03*
X107000000Y-62000000D03*
X109000000Y-60000000D03*
X109000000Y-62000000D03*
D24*
X113700000Y-68500000D03*
X110700000Y-69500000D03*
D23*
X103000000Y-60000000D03*
X111000000Y-64000000D03*
D24*
X112700000Y-69500000D03*
D23*
X103000000Y-56000000D03*
X111000000Y-62000000D03*
X105000000Y-58000000D03*
D24*
X111700000Y-68500000D03*
D23*
X101000000Y-60000000D03*
X105000000Y-62000000D03*
X111000000Y-60000000D03*
X99000000Y-58000000D03*
X107000000Y-64000000D03*
X109000000Y-58000000D03*
X99000000Y-62000000D03*
X101000000Y-62000000D03*
X107000000Y-56000000D03*
X113000000Y-64000000D03*
X101000000Y-56000000D03*
D24*
X112700000Y-67500000D03*
D23*
X109000000Y-56000000D03*
D24*
X113700000Y-69500000D03*
X110700000Y-67500000D03*
D23*
X107000000Y-60000000D03*
X105000000Y-64000000D03*
X101000000Y-64000000D03*
X97000000Y-62000000D03*
X97000000Y-60000000D03*
X109000000Y-64000000D03*
X103000000Y-58000000D03*
X99000000Y-56000000D03*
D24*
X112700000Y-68500000D03*
D23*
X111000000Y-56000000D03*
X105000000Y-56000000D03*
D24*
%TO.N,+5V*%
X77500000Y-84250000D03*
X89250000Y-84250000D03*
%TO.N,/GH2*%
X101450000Y-66250000D03*
X107696000Y-67939000D03*
%TO.N,/GL2*%
X115200000Y-71500000D03*
X108950000Y-71500000D03*
D23*
%TO.N,/IDRIVE*%
X105175000Y-90000000D03*
X121000000Y-91750000D03*
%TO.N,+3V3*%
X120750000Y-109799000D03*
X98500000Y-113750000D03*
X134000000Y-114500000D03*
D24*
X134000000Y-135000000D03*
X98500000Y-109799000D03*
D23*
%TO.N,/MCU_PSU_ON*%
X82500000Y-107100000D03*
X92000000Y-116600000D03*
D24*
X67700000Y-92300000D03*
D23*
X95700000Y-116600000D03*
%TO.N,/DRV_SO*%
X114250000Y-135750000D03*
X121250000Y-106500000D03*
D24*
%TO.N,/DRV_SNSOUT*%
X101500000Y-128050000D03*
D23*
X118750000Y-94750000D03*
X113250000Y-103349999D03*
%TO.N,/DRV_FAULT*%
X111750000Y-121250000D03*
X118750000Y-102500000D03*
%TO.N,/MCU_MOTOR_EN*%
X122750000Y-102000000D03*
X113500000Y-116900000D03*
%TD*%
D25*
%TO.N,MOTOR_TACHO*%
X104500000Y-107500000D02*
X102539999Y-107500000D01*
X108750000Y-114500000D02*
X108750000Y-111750000D01*
X118666776Y-116333224D02*
X128916776Y-116333224D01*
X117791776Y-115458224D02*
X118666776Y-116333224D01*
X128916776Y-116333224D02*
X129000000Y-116250000D01*
X108750000Y-111750000D02*
X104500000Y-107500000D01*
%TO.N,LIM_TOP*%
X128186776Y-113000000D02*
X118750000Y-113000000D01*
X130250000Y-110936776D02*
X128186776Y-113000000D01*
%TO.N,LIM_BOTTOM*%
X125875000Y-111500000D02*
X126500000Y-110875000D01*
X119000000Y-111500000D02*
X125875000Y-111500000D01*
D26*
X95000000Y-111500000D02*
X95000000Y-114000000D01*
D27*
%TO.N,+24V*%
X62500000Y-76039998D02*
X62500000Y-86320001D01*
X70000000Y-68539998D02*
X62500000Y-76039998D01*
X62500000Y-86320001D02*
X56500001Y-92320000D01*
D28*
%TO.N,+5V*%
X89250000Y-84250000D02*
X77500000Y-84250000D01*
D29*
%TO.N,/GH2*%
X103375000Y-67125000D02*
X106882000Y-67125000D01*
X101450000Y-66250000D02*
X102500000Y-66250000D01*
X106882000Y-67125000D02*
X107696000Y-67939000D01*
X102500000Y-66250000D02*
X103375000Y-67125000D01*
%TO.N,/GL2*%
X115200000Y-71500000D02*
X108950000Y-71500000D01*
D25*
%TO.N,/IDRIVE*%
X105175000Y-90000000D02*
X106750000Y-90000000D01*
X106750000Y-90000000D02*
X108500000Y-91750000D01*
X108500000Y-91750000D02*
X121000000Y-91750000D01*
D30*
%TO.N,+3V3*%
X120750000Y-109799000D02*
X132299000Y-109799000D01*
X132299000Y-109799000D02*
X134000000Y-111500000D01*
D25*
X98500000Y-113750000D02*
X98500000Y-109799000D01*
X134000000Y-114500000D02*
X134000000Y-117250000D01*
D30*
X134000000Y-111500000D02*
X134000000Y-114500000D01*
D25*
X134000000Y-117250000D02*
X134049999Y-117299999D01*
D28*
X134049999Y-117299999D02*
X143750000Y-117299999D01*
D30*
X134000000Y-114500000D02*
X134000000Y-135000000D01*
D25*
%TO.N,/MCU_PSU_ON*%
X92000000Y-116600000D02*
X95700000Y-116600000D01*
X67700000Y-92300000D02*
X82500000Y-107100000D01*
%TO.N,/DRV_SO*%
X115750000Y-120250000D02*
X115750000Y-112000000D01*
X115750000Y-112000000D02*
X121250000Y-106500000D01*
X114250000Y-121750000D02*
X115750000Y-120250000D01*
X114250000Y-135750000D02*
X114250000Y-121750000D01*
%TO.N,/DRV_SNSOUT*%
X101500000Y-128050000D02*
X110750000Y-118800000D01*
X113250000Y-103349999D02*
X113250000Y-100250000D01*
X113250000Y-100250000D02*
X118750000Y-94750000D01*
X113250000Y-106250000D02*
X113250000Y-103349999D01*
X110750000Y-108750000D02*
X113250000Y-106250000D01*
X110750000Y-118800000D02*
X110750000Y-108750000D01*
%TO.N,/DRV_FAULT*%
X111750000Y-109500000D02*
X118750000Y-102500000D01*
X111750000Y-121250000D02*
X111750000Y-109500000D01*
%TO.N,/MCU_MOTOR_EN*%
X122750000Y-102000000D02*
X113500000Y-111250000D01*
X113500000Y-111250000D02*
X113500000Y-116900000D01*
%TO.N,/RF_VT*%
X139885000Y-119885000D02*
X138750000Y-119885000D01*
X143750000Y-122380000D02*
X142380000Y-122380000D01*
X142380000Y-122380000D02*
X139885000Y-119885000D01*
%TO.N,/RF_D2*%
X142460000Y-127460000D02*
X139965000Y-124965000D01*
X143750000Y-127460000D02*
X142460000Y-127460000D01*
X139965000Y-124965000D02*
X138750000Y-124965000D01*
%TO.N,/RF_D3*%
X142420000Y-124920000D02*
X139925000Y-122425000D01*
X143750000Y-124920000D02*
X142420000Y-124920000D01*
X139925000Y-122425000D02*
X138750000Y-122425000D01*
%TO.N,/RF_D0*%
X142540000Y-132540000D02*
X140045001Y-130045001D01*
X140045001Y-130045001D02*
X138750000Y-130045001D01*
X143750000Y-132540000D02*
X142540000Y-132540000D01*
%TO.N,/RF_D1*%
X142500001Y-130000001D02*
X140005000Y-127505000D01*
X143750000Y-130000001D02*
X142500001Y-130000001D01*
X140005000Y-127505000D02*
X138750000Y-127505000D01*
%TD*%
%TA.AperFunction,Conductor*%
%TO.N,GND*%
G36*
X118033426Y-60573715D02*
G01*
X118158785Y-60699074D01*
X118295577Y-60790476D01*
X117648775Y-61437277D01*
X117730327Y-61499854D01*
X117730328Y-61499855D01*
X117934671Y-61617834D01*
X117934680Y-61617839D01*
X118152663Y-61708129D01*
X118152661Y-61708129D01*
X118380585Y-61769200D01*
X118614514Y-61799999D01*
X118614529Y-61800000D01*
X118850471Y-61800000D01*
X118850485Y-61799999D01*
X119084414Y-61769200D01*
X119312337Y-61708129D01*
X119530319Y-61617839D01*
X119530328Y-61617834D01*
X119734681Y-61499850D01*
X119816223Y-61437279D01*
X119816223Y-61437276D01*
X119169422Y-60790476D01*
X119306215Y-60699074D01*
X119431574Y-60573715D01*
X119522975Y-60436922D01*
X120172529Y-61086476D01*
X120230573Y-61099465D01*
X120279684Y-61149163D01*
X120294501Y-61207942D01*
X120294501Y-66970500D01*
X120274816Y-67037539D01*
X120222012Y-67083294D01*
X120170501Y-67094500D01*
X117229501Y-67094500D01*
X117162462Y-67074815D01*
X117116707Y-67022011D01*
X117105501Y-66970500D01*
X117105501Y-61201767D01*
X117125186Y-61134728D01*
X117177990Y-61088973D01*
X117239149Y-61080179D01*
X117239158Y-61080049D01*
X117239773Y-61080089D01*
X117247148Y-61079029D01*
X117251094Y-61080831D01*
X117295221Y-61083723D01*
X117942023Y-60436921D01*
X118033426Y-60573715D01*
G37*
%TD.AperFunction*%
%TA.AperFunction,Conductor*%
G36*
X145002702Y-50500617D02*
G01*
X145386771Y-50517386D01*
X145397506Y-50518326D01*
X145775971Y-50568152D01*
X145786597Y-50570025D01*
X146159284Y-50652648D01*
X146169710Y-50655442D01*
X146533765Y-50770227D01*
X146543911Y-50773920D01*
X146896578Y-50920000D01*
X146906369Y-50924566D01*
X147244942Y-51100816D01*
X147254310Y-51106224D01*
X147576244Y-51311318D01*
X147585105Y-51317523D01*
X147887930Y-51549889D01*
X147896217Y-51556843D01*
X148177635Y-51814715D01*
X148185284Y-51822364D01*
X148443156Y-52103782D01*
X148450110Y-52112069D01*
X148682476Y-52414894D01*
X148688681Y-52423755D01*
X148893775Y-52745689D01*
X148899183Y-52755057D01*
X149075430Y-53093623D01*
X149080002Y-53103427D01*
X149226075Y-53456078D01*
X149229775Y-53466244D01*
X149344554Y-53830278D01*
X149347354Y-53840727D01*
X149429971Y-54213389D01*
X149431849Y-54224042D01*
X149481671Y-54602473D01*
X149482614Y-54613249D01*
X149499382Y-54997297D01*
X149499500Y-55002706D01*
X149499500Y-144997293D01*
X149499382Y-145002702D01*
X149482614Y-145386750D01*
X149481671Y-145397526D01*
X149431849Y-145775957D01*
X149429971Y-145786610D01*
X149347354Y-146159272D01*
X149344554Y-146169721D01*
X149229775Y-146533755D01*
X149226075Y-146543921D01*
X149080002Y-146896572D01*
X149075430Y-146906376D01*
X148899183Y-147244942D01*
X148893775Y-147254310D01*
X148688681Y-147576244D01*
X148682476Y-147585105D01*
X148450110Y-147887930D01*
X148443156Y-147896217D01*
X148185284Y-148177635D01*
X148177635Y-148185284D01*
X147896217Y-148443156D01*
X147887930Y-148450110D01*
X147585105Y-148682476D01*
X147576244Y-148688681D01*
X147254310Y-148893775D01*
X147244942Y-148899183D01*
X146906376Y-149075430D01*
X146896572Y-149080002D01*
X146543921Y-149226075D01*
X146533755Y-149229775D01*
X146169721Y-149344554D01*
X146159272Y-149347354D01*
X145786610Y-149429971D01*
X145775957Y-149431849D01*
X145397526Y-149481671D01*
X145386750Y-149482614D01*
X145002703Y-149499382D01*
X144997294Y-149499500D01*
X131744000Y-149499500D01*
X131676961Y-149479815D01*
X131631206Y-149427011D01*
X131620000Y-149375500D01*
X131620000Y-144820259D01*
X141799500Y-144820259D01*
X141799500Y-145179740D01*
X141839746Y-145536935D01*
X141839748Y-145536951D01*
X141919737Y-145887407D01*
X141919741Y-145887419D01*
X142038465Y-146226711D01*
X142194432Y-146550579D01*
X142194434Y-146550582D01*
X142385685Y-146854956D01*
X142609812Y-147136003D01*
X142863997Y-147390188D01*
X143145044Y-147614315D01*
X143449418Y-147805566D01*
X143773292Y-147961536D01*
X144028119Y-148050703D01*
X144112580Y-148080258D01*
X144112592Y-148080262D01*
X144463052Y-148160252D01*
X144820260Y-148200499D01*
X144820261Y-148200500D01*
X144820264Y-148200500D01*
X145179739Y-148200500D01*
X145179739Y-148200499D01*
X145536948Y-148160252D01*
X145887408Y-148080262D01*
X146226708Y-147961536D01*
X146550582Y-147805566D01*
X146854956Y-147614315D01*
X147136003Y-147390188D01*
X147390188Y-147136003D01*
X147614315Y-146854956D01*
X147805566Y-146550582D01*
X147961536Y-146226708D01*
X148080262Y-145887408D01*
X148160252Y-145536948D01*
X148200500Y-145179736D01*
X148200500Y-144820264D01*
X148160252Y-144463052D01*
X148080262Y-144112592D01*
X147961536Y-143773292D01*
X147805566Y-143449418D01*
X147614315Y-143145044D01*
X147390188Y-142863997D01*
X147136003Y-142609812D01*
X146854956Y-142385685D01*
X146550582Y-142194434D01*
X146550579Y-142194432D01*
X146226711Y-142038465D01*
X145887419Y-141919741D01*
X145887407Y-141919737D01*
X145536951Y-141839748D01*
X145536935Y-141839746D01*
X145179740Y-141799500D01*
X145179736Y-141799500D01*
X144820264Y-141799500D01*
X144820259Y-141799500D01*
X144463064Y-141839746D01*
X144463048Y-141839748D01*
X144112592Y-141919737D01*
X144112580Y-141919741D01*
X143773288Y-142038465D01*
X143449420Y-142194432D01*
X143145045Y-142385684D01*
X142863997Y-142609811D01*
X142609811Y-142863997D01*
X142385684Y-143145045D01*
X142194432Y-143449420D01*
X142038465Y-143773288D01*
X141919741Y-144112580D01*
X141919737Y-144112592D01*
X141839748Y-144463048D01*
X141839746Y-144463064D01*
X141799500Y-144820259D01*
X131620000Y-144820259D01*
X131620000Y-143429999D01*
X83620000Y-143429999D01*
X83620000Y-149375500D01*
X83600315Y-149442539D01*
X83547511Y-149488294D01*
X83496000Y-149499500D01*
X55002706Y-149499500D01*
X54997297Y-149499382D01*
X54613249Y-149482614D01*
X54602473Y-149481671D01*
X54224042Y-149431849D01*
X54213389Y-149429971D01*
X53840727Y-149347354D01*
X53830278Y-149344554D01*
X53466244Y-149229775D01*
X53456078Y-149226075D01*
X53103427Y-149080002D01*
X53093623Y-149075430D01*
X52755057Y-148899183D01*
X52745689Y-148893775D01*
X52423755Y-148688681D01*
X52414894Y-148682476D01*
X52112069Y-148450110D01*
X52103782Y-148443156D01*
X51822364Y-148185284D01*
X51814715Y-148177635D01*
X51556843Y-147896217D01*
X51549889Y-147887930D01*
X51317523Y-147585105D01*
X51311318Y-147576244D01*
X51106224Y-147254310D01*
X51100816Y-147244942D01*
X50924569Y-146906376D01*
X50919997Y-146896572D01*
X50902759Y-146854956D01*
X50773920Y-146543911D01*
X50770224Y-146533755D01*
X50673413Y-146226708D01*
X50655442Y-146169710D01*
X50652648Y-146159284D01*
X50570025Y-145786597D01*
X50568152Y-145775971D01*
X50518326Y-145397506D01*
X50517386Y-145386771D01*
X50500618Y-145002702D01*
X50500500Y-144997293D01*
X50500500Y-144820259D01*
X51799500Y-144820259D01*
X51799500Y-145179740D01*
X51839746Y-145536935D01*
X51839748Y-145536951D01*
X51919737Y-145887407D01*
X51919741Y-145887419D01*
X52038465Y-146226711D01*
X52194432Y-146550579D01*
X52194434Y-146550582D01*
X52385685Y-146854956D01*
X52609812Y-147136003D01*
X52863997Y-147390188D01*
X53145044Y-147614315D01*
X53449418Y-147805566D01*
X53773292Y-147961536D01*
X54028119Y-148050703D01*
X54112580Y-148080258D01*
X54112592Y-148080262D01*
X54463052Y-148160252D01*
X54820260Y-148200499D01*
X54820261Y-148200500D01*
X54820264Y-148200500D01*
X55179739Y-148200500D01*
X55179739Y-148200499D01*
X55536948Y-148160252D01*
X55887408Y-148080262D01*
X56226708Y-147961536D01*
X56550582Y-147805566D01*
X56854956Y-147614315D01*
X57136003Y-147390188D01*
X57390188Y-147136003D01*
X57614315Y-146854956D01*
X57805566Y-146550582D01*
X57961536Y-146226708D01*
X58080262Y-145887408D01*
X58160252Y-145536948D01*
X58200500Y-145179736D01*
X58200500Y-144820264D01*
X58160252Y-144463052D01*
X58080262Y-144112592D01*
X57961536Y-143773292D01*
X57805566Y-143449418D01*
X57614315Y-143145044D01*
X57390188Y-142863997D01*
X57136003Y-142609812D01*
X56854956Y-142385685D01*
X56550582Y-142194434D01*
X56550579Y-142194432D01*
X56226711Y-142038465D01*
X55887419Y-141919741D01*
X55887407Y-141919737D01*
X55536951Y-141839748D01*
X55536935Y-141839746D01*
X55179740Y-141799500D01*
X55179736Y-141799500D01*
X54820264Y-141799500D01*
X54820259Y-141799500D01*
X54463064Y-141839746D01*
X54463048Y-141839748D01*
X54112592Y-141919737D01*
X54112580Y-141919741D01*
X53773288Y-142038465D01*
X53449420Y-142194432D01*
X53145045Y-142385684D01*
X52863997Y-142609811D01*
X52609811Y-142863997D01*
X52385684Y-143145045D01*
X52194432Y-143449420D01*
X52038465Y-143773288D01*
X51919741Y-144112580D01*
X51919737Y-144112592D01*
X51839748Y-144463048D01*
X51839746Y-144463064D01*
X51799500Y-144820259D01*
X50500500Y-144820259D01*
X50500500Y-137929778D01*
X55099500Y-137929778D01*
X55099500Y-138150221D01*
X55133985Y-138367952D01*
X55202103Y-138577603D01*
X55202104Y-138577606D01*
X55302187Y-138774025D01*
X55431752Y-138952358D01*
X55431756Y-138952363D01*
X55587636Y-139108243D01*
X55587641Y-139108247D01*
X55743192Y-139221260D01*
X55765978Y-139237815D01*
X55894375Y-139303237D01*
X55962393Y-139337895D01*
X55962396Y-139337896D01*
X56067221Y-139371955D01*
X56172049Y-139406015D01*
X56389778Y-139440500D01*
X56389779Y-139440500D01*
X56610221Y-139440500D01*
X56610222Y-139440500D01*
X56827951Y-139406015D01*
X57037606Y-139337895D01*
X57234022Y-139237815D01*
X57412365Y-139108242D01*
X57568242Y-138952365D01*
X57697815Y-138774022D01*
X57797895Y-138577606D01*
X57866015Y-138367951D01*
X57900500Y-138150222D01*
X57900500Y-137929778D01*
X57866015Y-137712049D01*
X57831955Y-137607221D01*
X57797896Y-137502396D01*
X57797895Y-137502393D01*
X57756975Y-137422085D01*
X57697815Y-137305978D01*
X57641035Y-137227826D01*
X57568247Y-137127641D01*
X57568243Y-137127636D01*
X57412363Y-136971756D01*
X57412358Y-136971752D01*
X57234025Y-136842187D01*
X57234024Y-136842186D01*
X57234022Y-136842185D01*
X57143231Y-136795924D01*
X57037606Y-136742104D01*
X57037603Y-136742103D01*
X56827952Y-136673985D01*
X56683524Y-136651110D01*
X56610222Y-136639500D01*
X56389778Y-136639500D01*
X56317201Y-136650995D01*
X56172047Y-136673985D01*
X55962396Y-136742103D01*
X55962393Y-136742104D01*
X55765974Y-136842187D01*
X55587641Y-136971752D01*
X55587636Y-136971756D01*
X55431756Y-137127636D01*
X55431752Y-137127641D01*
X55302187Y-137305974D01*
X55202104Y-137502393D01*
X55202103Y-137502396D01*
X55133985Y-137712047D01*
X55099500Y-137929778D01*
X50500500Y-137929778D01*
X50500500Y-135432154D01*
X88050000Y-135432154D01*
X88050000Y-136079999D01*
X88966988Y-136079999D01*
X88934075Y-136137006D01*
X88900000Y-136264173D01*
X88900000Y-136395825D01*
X88934075Y-136522992D01*
X88966988Y-136579999D01*
X88050000Y-136579999D01*
X88050000Y-137227843D01*
X88056401Y-137287371D01*
X88056403Y-137287378D01*
X88106645Y-137422085D01*
X88106649Y-137422092D01*
X88192809Y-137537186D01*
X88192812Y-137537189D01*
X88307906Y-137623349D01*
X88307913Y-137623353D01*
X88442620Y-137673595D01*
X88442627Y-137673597D01*
X88502155Y-137679998D01*
X88502172Y-137679999D01*
X89150000Y-137679999D01*
X89150000Y-136763011D01*
X89207007Y-136795924D01*
X89334174Y-136829999D01*
X89465826Y-136829999D01*
X89592993Y-136795924D01*
X89650000Y-136763011D01*
X89650000Y-137679999D01*
X90297828Y-137679999D01*
X90297844Y-137679998D01*
X90357372Y-137673597D01*
X90357379Y-137673595D01*
X90492086Y-137623353D01*
X90492093Y-137623349D01*
X90607187Y-137537189D01*
X90607190Y-137537186D01*
X90693350Y-137422092D01*
X90693354Y-137422085D01*
X90743596Y-137287378D01*
X90743598Y-137287371D01*
X90749999Y-137227843D01*
X90750000Y-137227826D01*
X90750000Y-136579999D01*
X89833012Y-136579999D01*
X89865925Y-136522992D01*
X89900000Y-136395825D01*
X89900000Y-136264173D01*
X89865925Y-136137006D01*
X89833012Y-136079999D01*
X90750000Y-136079999D01*
X90750000Y-135818995D01*
X113549499Y-135818995D01*
X113576418Y-135954322D01*
X113576421Y-135954332D01*
X113629221Y-136081804D01*
X113629228Y-136081817D01*
X113705885Y-136196541D01*
X113705888Y-136196545D01*
X113803454Y-136294111D01*
X113803458Y-136294114D01*
X113918182Y-136370771D01*
X113918195Y-136370778D01*
X114033055Y-136418354D01*
X114045672Y-136423580D01*
X114045676Y-136423580D01*
X114045677Y-136423581D01*
X114181004Y-136450500D01*
X114181007Y-136450500D01*
X114318995Y-136450500D01*
X114410041Y-136432389D01*
X114454328Y-136423580D01*
X114575585Y-136373354D01*
X114581804Y-136370778D01*
X114581804Y-136370777D01*
X114581811Y-136370775D01*
X114696542Y-136294114D01*
X114794114Y-136196542D01*
X114870775Y-136081811D01*
X114923580Y-135954328D01*
X114934287Y-135900499D01*
X114950500Y-135818995D01*
X114950500Y-135681004D01*
X114923581Y-135545678D01*
X114923580Y-135545672D01*
X114909937Y-135512734D01*
X114900500Y-135465287D01*
X114900500Y-122070808D01*
X114920185Y-122003769D01*
X114936819Y-121983127D01*
X116255271Y-120664675D01*
X116255276Y-120664670D01*
X116326465Y-120558127D01*
X116375501Y-120439744D01*
X116385341Y-120390276D01*
X116400500Y-120314069D01*
X116400500Y-115527219D01*
X117091275Y-115527219D01*
X117118194Y-115662546D01*
X117118197Y-115662556D01*
X117170997Y-115790028D01*
X117171004Y-115790041D01*
X117247661Y-115904765D01*
X117247664Y-115904769D01*
X117345233Y-116002338D01*
X117425374Y-116055886D01*
X117459965Y-116078999D01*
X117492897Y-116092639D01*
X117533125Y-116119519D01*
X118252101Y-116838496D01*
X118252102Y-116838497D01*
X118252105Y-116838499D01*
X118252107Y-116838501D01*
X118356311Y-116908127D01*
X118358649Y-116909689D01*
X118358652Y-116909691D01*
X118477027Y-116958723D01*
X118477032Y-116958725D01*
X118477036Y-116958725D01*
X118477037Y-116958726D01*
X118602704Y-116983724D01*
X118602707Y-116983724D01*
X128980847Y-116983724D01*
X129106515Y-116958726D01*
X129106515Y-116958725D01*
X129106520Y-116958725D01*
X129168117Y-116933209D01*
X129191366Y-116926157D01*
X129204328Y-116923580D01*
X129331811Y-116870775D01*
X129446542Y-116794114D01*
X129544114Y-116696542D01*
X129620775Y-116581811D01*
X129673580Y-116454328D01*
X129684287Y-116400499D01*
X129700500Y-116318995D01*
X129700500Y-116181004D01*
X129673581Y-116045677D01*
X129673580Y-116045676D01*
X129673580Y-116045672D01*
X129646055Y-115979221D01*
X129620778Y-115918195D01*
X129620771Y-115918182D01*
X129544114Y-115803458D01*
X129544111Y-115803454D01*
X129446545Y-115705888D01*
X129446541Y-115705885D01*
X129331817Y-115629228D01*
X129331804Y-115629221D01*
X129204332Y-115576421D01*
X129204322Y-115576418D01*
X129068995Y-115549500D01*
X129068993Y-115549500D01*
X128931007Y-115549500D01*
X128931005Y-115549500D01*
X128795677Y-115576418D01*
X128795667Y-115576421D01*
X128668195Y-115629221D01*
X128668183Y-115629228D01*
X128619398Y-115661826D01*
X128552721Y-115682704D01*
X128550507Y-115682724D01*
X118987584Y-115682724D01*
X118920545Y-115663039D01*
X118899903Y-115646405D01*
X118453071Y-115199573D01*
X118426191Y-115159345D01*
X118412551Y-115126413D01*
X118411941Y-115125500D01*
X118335890Y-115011681D01*
X118238321Y-114914112D01*
X118238317Y-114914109D01*
X118123593Y-114837452D01*
X118123580Y-114837445D01*
X117996108Y-114784645D01*
X117996098Y-114784642D01*
X117860771Y-114757724D01*
X117860769Y-114757724D01*
X117722783Y-114757724D01*
X117722781Y-114757724D01*
X117587453Y-114784642D01*
X117587443Y-114784645D01*
X117459971Y-114837445D01*
X117459958Y-114837452D01*
X117345234Y-114914109D01*
X117345230Y-114914112D01*
X117247664Y-115011678D01*
X117247661Y-115011682D01*
X117171004Y-115126406D01*
X117170997Y-115126419D01*
X117118197Y-115253891D01*
X117118194Y-115253901D01*
X117091276Y-115389228D01*
X117091276Y-115389231D01*
X117091276Y-115527217D01*
X117091276Y-115527219D01*
X117091275Y-115527219D01*
X116400500Y-115527219D01*
X116400500Y-113068995D01*
X118049499Y-113068995D01*
X118076418Y-113204322D01*
X118076421Y-113204332D01*
X118129221Y-113331804D01*
X118129228Y-113331817D01*
X118205885Y-113446541D01*
X118205888Y-113446545D01*
X118303454Y-113544111D01*
X118303458Y-113544114D01*
X118418182Y-113620771D01*
X118418195Y-113620778D01*
X118532657Y-113668189D01*
X118545672Y-113673580D01*
X118545676Y-113673580D01*
X118545677Y-113673581D01*
X118681004Y-113700500D01*
X118681007Y-113700500D01*
X118818995Y-113700500D01*
X118917005Y-113681004D01*
X118954328Y-113673580D01*
X118987260Y-113659938D01*
X119034713Y-113650500D01*
X128250847Y-113650500D01*
X128373463Y-113626109D01*
X128376520Y-113625501D01*
X128494903Y-113576465D01*
X128503156Y-113570951D01*
X128543325Y-113544111D01*
X128601445Y-113505277D01*
X130508651Y-111598069D01*
X130548877Y-111571191D01*
X130581811Y-111557551D01*
X130696542Y-111480890D01*
X130794114Y-111383318D01*
X130870775Y-111268587D01*
X130923580Y-111141104D01*
X130950500Y-111005769D01*
X130950500Y-110867783D01*
X130950500Y-110867780D01*
X130946504Y-110847692D01*
X130952731Y-110778100D01*
X130995594Y-110722923D01*
X131061483Y-110699678D01*
X131068121Y-110699500D01*
X131874638Y-110699500D01*
X131941677Y-110719185D01*
X131962319Y-110735819D01*
X133063181Y-111836680D01*
X133096666Y-111898003D01*
X133099500Y-111924361D01*
X133099500Y-135088695D01*
X133134103Y-135262658D01*
X133134106Y-135262667D01*
X133201983Y-135426540D01*
X133201990Y-135426553D01*
X133300535Y-135574034D01*
X133300538Y-135574038D01*
X133425961Y-135699461D01*
X133425965Y-135699464D01*
X133573446Y-135798009D01*
X133573459Y-135798016D01*
X133696363Y-135848923D01*
X133737334Y-135865894D01*
X133737336Y-135865894D01*
X133737341Y-135865896D01*
X133911304Y-135900499D01*
X133911307Y-135900500D01*
X133911309Y-135900500D01*
X134088693Y-135900500D01*
X134088694Y-135900499D01*
X134146682Y-135888964D01*
X134262658Y-135865896D01*
X134262661Y-135865894D01*
X134262666Y-135865894D01*
X134426547Y-135798013D01*
X134574035Y-135699464D01*
X134699464Y-135574035D01*
X134798013Y-135426547D01*
X134865894Y-135262666D01*
X134870820Y-135237905D01*
X134900499Y-135088695D01*
X134900500Y-135088693D01*
X134900500Y-118199499D01*
X134920185Y-118132460D01*
X134972989Y-118086705D01*
X135024500Y-118075499D01*
X142705663Y-118075499D01*
X142772702Y-118095184D01*
X142793344Y-118111818D01*
X142796172Y-118114646D01*
X142935354Y-118253828D01*
X142993444Y-118296033D01*
X143094596Y-118369525D01*
X143161628Y-118403679D01*
X143212425Y-118451653D01*
X143229220Y-118519474D01*
X143206683Y-118585609D01*
X143161630Y-118624648D01*
X143042444Y-118685377D01*
X142870540Y-118810272D01*
X142870535Y-118810276D01*
X142720276Y-118960535D01*
X142720272Y-118960540D01*
X142595379Y-119132442D01*
X142498904Y-119321782D01*
X142433242Y-119523870D01*
X142433242Y-119523873D01*
X142422769Y-119590000D01*
X143316988Y-119590000D01*
X143284075Y-119647007D01*
X143250000Y-119774174D01*
X143250000Y-119905826D01*
X143284075Y-120032993D01*
X143316988Y-120090000D01*
X142422769Y-120090000D01*
X142433242Y-120156126D01*
X142433242Y-120156129D01*
X142498904Y-120358217D01*
X142595379Y-120547557D01*
X142720272Y-120719459D01*
X142720276Y-120719464D01*
X142870535Y-120869723D01*
X142870540Y-120869727D01*
X143042442Y-120994620D01*
X143161629Y-121055350D01*
X143212425Y-121103325D01*
X143229220Y-121171146D01*
X143206682Y-121237281D01*
X143161630Y-121276319D01*
X143094597Y-121310474D01*
X142935351Y-121426174D01*
X142796173Y-121565352D01*
X142796172Y-121565354D01*
X142763478Y-121610354D01*
X142750692Y-121627952D01*
X142695361Y-121670617D01*
X142625748Y-121676596D01*
X142563953Y-121643990D01*
X142562693Y-121642747D01*
X140299674Y-119379727D01*
X140299673Y-119379726D01*
X140291216Y-119374075D01*
X140193127Y-119308535D01*
X140074744Y-119259499D01*
X140074738Y-119259497D01*
X139949071Y-119234500D01*
X139949069Y-119234500D01*
X139886268Y-119234500D01*
X139819229Y-119214815D01*
X139785950Y-119183385D01*
X139703830Y-119070357D01*
X139703825Y-119070351D01*
X139564648Y-118931174D01*
X139564646Y-118931172D01*
X139405405Y-118815476D01*
X139395192Y-118810272D01*
X139230029Y-118726117D01*
X139042826Y-118665290D01*
X138848422Y-118634500D01*
X138848417Y-118634500D01*
X138651583Y-118634500D01*
X138651578Y-118634500D01*
X138457173Y-118665290D01*
X138269970Y-118726117D01*
X138094594Y-118815476D01*
X138003741Y-118881485D01*
X137935354Y-118931172D01*
X137935352Y-118931174D01*
X137935351Y-118931174D01*
X137796174Y-119070351D01*
X137796174Y-119070352D01*
X137796172Y-119070354D01*
X137796170Y-119070357D01*
X137680476Y-119229594D01*
X137591117Y-119404970D01*
X137530290Y-119592173D01*
X137499500Y-119786577D01*
X137499500Y-119983422D01*
X137530290Y-120177826D01*
X137591117Y-120365029D01*
X137680476Y-120540405D01*
X137796172Y-120699646D01*
X137935354Y-120838828D01*
X138094595Y-120954524D01*
X138208849Y-121012739D01*
X138271213Y-121044515D01*
X138322009Y-121092489D01*
X138338804Y-121160310D01*
X138316267Y-121226445D01*
X138271213Y-121265485D01*
X138094594Y-121355476D01*
X138034001Y-121399500D01*
X137935354Y-121471172D01*
X137935352Y-121471174D01*
X137935351Y-121471174D01*
X137796174Y-121610351D01*
X137796174Y-121610352D01*
X137796172Y-121610354D01*
X137772637Y-121642747D01*
X137680476Y-121769594D01*
X137591117Y-121944970D01*
X137530290Y-122132173D01*
X137499500Y-122326577D01*
X137499500Y-122523422D01*
X137530290Y-122717826D01*
X137591117Y-122905029D01*
X137665078Y-123050185D01*
X137680476Y-123080405D01*
X137796172Y-123239646D01*
X137935354Y-123378828D01*
X138094595Y-123494524D01*
X138217992Y-123557397D01*
X138271213Y-123584515D01*
X138322009Y-123632489D01*
X138338804Y-123700310D01*
X138316267Y-123766445D01*
X138271213Y-123805485D01*
X138094594Y-123895476D01*
X138003741Y-123961485D01*
X137935354Y-124011172D01*
X137935352Y-124011174D01*
X137935351Y-124011174D01*
X137796174Y-124150351D01*
X137796174Y-124150352D01*
X137796172Y-124150354D01*
X137784794Y-124166015D01*
X137680476Y-124309594D01*
X137591117Y-124484970D01*
X137530290Y-124672173D01*
X137499500Y-124866577D01*
X137499500Y-125063422D01*
X137530290Y-125257826D01*
X137591117Y-125445029D01*
X137665078Y-125590185D01*
X137680476Y-125620405D01*
X137796172Y-125779646D01*
X137935354Y-125918828D01*
X138094595Y-126034524D01*
X138217992Y-126097397D01*
X138271213Y-126124515D01*
X138322009Y-126172489D01*
X138338804Y-126240310D01*
X138316267Y-126306445D01*
X138271213Y-126345485D01*
X138094594Y-126435476D01*
X138019691Y-126489897D01*
X137935354Y-126551172D01*
X137935352Y-126551174D01*
X137935351Y-126551174D01*
X137796174Y-126690351D01*
X137796174Y-126690352D01*
X137796172Y-126690354D01*
X137796170Y-126690357D01*
X137680476Y-126849594D01*
X137591117Y-127024970D01*
X137530290Y-127212173D01*
X137499500Y-127406577D01*
X137499500Y-127603422D01*
X137530290Y-127797826D01*
X137591117Y-127985029D01*
X137665078Y-128130185D01*
X137680476Y-128160405D01*
X137796172Y-128319646D01*
X137935354Y-128458828D01*
X138094595Y-128574524D01*
X138196534Y-128626464D01*
X138271213Y-128664515D01*
X138322009Y-128712489D01*
X138338804Y-128780310D01*
X138316267Y-128846445D01*
X138271213Y-128885485D01*
X138094594Y-128975476D01*
X138003741Y-129041485D01*
X137935354Y-129091172D01*
X137935352Y-129091174D01*
X137935351Y-129091174D01*
X137796174Y-129230351D01*
X137796174Y-129230352D01*
X137796172Y-129230354D01*
X137767293Y-129270102D01*
X137680476Y-129389594D01*
X137591117Y-129564970D01*
X137530290Y-129752173D01*
X137499500Y-129946577D01*
X137499500Y-130143422D01*
X137530290Y-130337826D01*
X137591117Y-130525029D01*
X137665079Y-130670186D01*
X137680476Y-130700405D01*
X137796172Y-130859646D01*
X137935354Y-130998828D01*
X138094595Y-131114524D01*
X138217992Y-131177397D01*
X138271213Y-131204515D01*
X138322009Y-131252489D01*
X138338804Y-131320310D01*
X138316267Y-131386445D01*
X138271213Y-131425485D01*
X138094594Y-131515476D01*
X138034001Y-131559500D01*
X137935354Y-131631172D01*
X137935352Y-131631174D01*
X137935351Y-131631174D01*
X137796174Y-131770351D01*
X137796174Y-131770352D01*
X137796172Y-131770354D01*
X137765379Y-131812737D01*
X137680476Y-131929594D01*
X137591117Y-132104970D01*
X137530290Y-132292173D01*
X137499500Y-132486577D01*
X137499500Y-132683422D01*
X137530290Y-132877826D01*
X137591117Y-133065029D01*
X137665078Y-133210185D01*
X137680476Y-133240405D01*
X137796172Y-133399646D01*
X137796174Y-133399648D01*
X137935354Y-133538828D01*
X137951671Y-133550683D01*
X137994336Y-133606013D01*
X138000314Y-133675627D01*
X137967707Y-133737421D01*
X137906868Y-133771778D01*
X137878784Y-133775000D01*
X137852155Y-133775000D01*
X137792627Y-133781401D01*
X137792620Y-133781403D01*
X137657913Y-133831645D01*
X137657906Y-133831649D01*
X137542812Y-133917809D01*
X137542809Y-133917812D01*
X137456649Y-134032906D01*
X137456645Y-134032913D01*
X137406403Y-134167620D01*
X137406401Y-134167627D01*
X137400000Y-134227155D01*
X137400000Y-134875000D01*
X138316988Y-134875000D01*
X138284075Y-134932007D01*
X138250000Y-135059174D01*
X138250000Y-135190826D01*
X138284075Y-135317993D01*
X138316988Y-135375000D01*
X137400000Y-135375000D01*
X137400000Y-136022844D01*
X137406401Y-136082372D01*
X137406403Y-136082379D01*
X137456645Y-136217086D01*
X137456649Y-136217093D01*
X137542809Y-136332187D01*
X137542812Y-136332190D01*
X137657906Y-136418350D01*
X137657913Y-136418354D01*
X137792620Y-136468596D01*
X137792627Y-136468598D01*
X137852155Y-136474999D01*
X137852172Y-136475000D01*
X138500000Y-136475000D01*
X138500000Y-135558012D01*
X138557007Y-135590925D01*
X138684174Y-135625000D01*
X138815826Y-135625000D01*
X138942993Y-135590925D01*
X139000000Y-135558012D01*
X139000000Y-136475000D01*
X139647828Y-136475000D01*
X139647844Y-136474999D01*
X139707372Y-136468598D01*
X139707379Y-136468596D01*
X139842086Y-136418354D01*
X139842093Y-136418350D01*
X139957187Y-136332190D01*
X139957190Y-136332187D01*
X140043350Y-136217093D01*
X140043354Y-136217086D01*
X140093596Y-136082379D01*
X140093598Y-136082372D01*
X140099999Y-136022844D01*
X140100000Y-136022827D01*
X140100000Y-135375000D01*
X139183012Y-135375000D01*
X139215925Y-135317993D01*
X139250000Y-135190826D01*
X139250000Y-135059174D01*
X139215925Y-134932007D01*
X139183012Y-134875000D01*
X140100000Y-134875000D01*
X140100000Y-134227172D01*
X140099999Y-134227155D01*
X140093598Y-134167627D01*
X140093596Y-134167620D01*
X140043354Y-134032913D01*
X140043350Y-134032906D01*
X139957190Y-133917812D01*
X139957187Y-133917809D01*
X139842093Y-133831649D01*
X139842086Y-133831645D01*
X139707379Y-133781403D01*
X139707372Y-133781401D01*
X139647844Y-133775000D01*
X139621216Y-133775000D01*
X139554177Y-133755315D01*
X139508422Y-133702511D01*
X139498478Y-133633353D01*
X139527503Y-133569797D01*
X139548329Y-133550683D01*
X139564646Y-133538828D01*
X139703828Y-133399646D01*
X139819524Y-133240405D01*
X139908884Y-133065025D01*
X139969709Y-132877826D01*
X139976306Y-132836173D01*
X140000500Y-132683422D01*
X140000500Y-132486577D01*
X139969709Y-132292173D01*
X139908882Y-132104970D01*
X139819523Y-131929594D01*
X139801948Y-131905404D01*
X139703828Y-131770354D01*
X139564646Y-131631172D01*
X139465999Y-131559500D01*
X139405403Y-131515474D01*
X139228787Y-131425485D01*
X139177990Y-131377511D01*
X139161195Y-131309690D01*
X139183732Y-131243555D01*
X139228787Y-131204515D01*
X139405403Y-131114525D01*
X139405402Y-131114525D01*
X139405405Y-131114524D01*
X139564646Y-130998828D01*
X139703828Y-130859646D01*
X139717747Y-130840487D01*
X139773076Y-130797822D01*
X139842690Y-130791843D01*
X139904485Y-130824448D01*
X139905746Y-130825692D01*
X142125324Y-133045271D01*
X142125327Y-133045274D01*
X142125330Y-133045276D01*
X142162665Y-133070222D01*
X142231873Y-133116465D01*
X142350256Y-133165501D01*
X142350260Y-133165501D01*
X142350261Y-133165502D01*
X142475928Y-133190500D01*
X142475931Y-133190500D01*
X142613732Y-133190500D01*
X142680771Y-133210185D01*
X142714050Y-133241615D01*
X142796169Y-133354642D01*
X142796174Y-133354648D01*
X142935354Y-133493828D01*
X142951671Y-133505683D01*
X142994336Y-133561013D01*
X143000314Y-133630627D01*
X142967707Y-133692421D01*
X142906868Y-133726778D01*
X142878784Y-133730000D01*
X142852155Y-133730000D01*
X142792627Y-133736401D01*
X142792620Y-133736403D01*
X142657913Y-133786645D01*
X142657906Y-133786649D01*
X142542812Y-133872809D01*
X142542809Y-133872812D01*
X142456649Y-133987906D01*
X142456645Y-133987913D01*
X142406403Y-134122620D01*
X142406401Y-134122627D01*
X142400000Y-134182155D01*
X142400000Y-134830000D01*
X143316988Y-134830000D01*
X143284075Y-134887007D01*
X143250000Y-135014174D01*
X143250000Y-135145826D01*
X143284075Y-135272993D01*
X143316988Y-135330000D01*
X142400000Y-135330000D01*
X142400000Y-135977844D01*
X142406401Y-136037372D01*
X142406403Y-136037379D01*
X142456645Y-136172086D01*
X142456649Y-136172093D01*
X142542809Y-136287187D01*
X142542812Y-136287190D01*
X142657906Y-136373350D01*
X142657913Y-136373354D01*
X142792620Y-136423596D01*
X142792627Y-136423598D01*
X142852155Y-136429999D01*
X142852172Y-136430000D01*
X143500000Y-136430000D01*
X143500000Y-135513012D01*
X143557007Y-135545925D01*
X143684174Y-135580000D01*
X143815826Y-135580000D01*
X143942993Y-135545925D01*
X144000000Y-135513012D01*
X144000000Y-136430000D01*
X144647828Y-136430000D01*
X144647844Y-136429999D01*
X144707372Y-136423598D01*
X144707379Y-136423596D01*
X144842086Y-136373354D01*
X144842093Y-136373350D01*
X144957187Y-136287190D01*
X144957190Y-136287187D01*
X145043350Y-136172093D01*
X145043354Y-136172086D01*
X145093596Y-136037379D01*
X145093598Y-136037372D01*
X145099999Y-135977844D01*
X145100000Y-135977827D01*
X145100000Y-135330000D01*
X144183012Y-135330000D01*
X144215925Y-135272993D01*
X144250000Y-135145826D01*
X144250000Y-135014174D01*
X144215925Y-134887007D01*
X144183012Y-134830000D01*
X145100000Y-134830000D01*
X145100000Y-134182172D01*
X145099999Y-134182155D01*
X145093598Y-134122627D01*
X145093596Y-134122620D01*
X145043354Y-133987913D01*
X145043350Y-133987906D01*
X144957190Y-133872812D01*
X144957187Y-133872809D01*
X144842093Y-133786649D01*
X144842086Y-133786645D01*
X144707379Y-133736403D01*
X144707372Y-133736401D01*
X144647844Y-133730000D01*
X144621216Y-133730000D01*
X144554177Y-133710315D01*
X144508422Y-133657511D01*
X144498478Y-133588353D01*
X144527503Y-133524797D01*
X144548329Y-133505683D01*
X144564646Y-133493828D01*
X144703828Y-133354646D01*
X144819524Y-133195405D01*
X144908884Y-133020025D01*
X144969709Y-132832826D01*
X145000500Y-132638422D01*
X145000500Y-132441577D01*
X144969709Y-132247173D01*
X144910402Y-132064647D01*
X144908884Y-132059975D01*
X144908882Y-132059972D01*
X144908882Y-132059970D01*
X144842452Y-131929594D01*
X144819524Y-131884595D01*
X144703828Y-131725354D01*
X144564646Y-131586172D01*
X144467339Y-131515474D01*
X144405403Y-131470474D01*
X144228787Y-131380485D01*
X144177990Y-131332511D01*
X144161195Y-131264690D01*
X144183732Y-131198555D01*
X144228787Y-131159515D01*
X144405403Y-131069525D01*
X144405402Y-131069525D01*
X144405405Y-131069524D01*
X144564646Y-130953828D01*
X144703828Y-130814646D01*
X144819524Y-130655405D01*
X144908884Y-130480025D01*
X144969709Y-130292826D01*
X145000500Y-130098422D01*
X145000500Y-129901577D01*
X144969709Y-129707173D01*
X144910402Y-129524647D01*
X144908884Y-129519975D01*
X144908882Y-129519972D01*
X144908882Y-129519970D01*
X144842452Y-129389594D01*
X144819524Y-129344595D01*
X144703828Y-129185354D01*
X144564646Y-129046172D01*
X144467339Y-128975474D01*
X144405403Y-128930474D01*
X144228787Y-128840485D01*
X144177990Y-128792511D01*
X144161195Y-128724690D01*
X144183732Y-128658555D01*
X144228787Y-128619515D01*
X144405403Y-128529525D01*
X144405402Y-128529525D01*
X144405405Y-128529524D01*
X144564646Y-128413828D01*
X144703828Y-128274646D01*
X144819524Y-128115405D01*
X144908884Y-127940025D01*
X144969709Y-127752826D01*
X144971444Y-127741871D01*
X145000500Y-127558422D01*
X145000500Y-127361577D01*
X144969709Y-127167173D01*
X144915302Y-126999727D01*
X144908884Y-126979975D01*
X144908882Y-126979972D01*
X144908882Y-126979970D01*
X144842452Y-126849594D01*
X144819524Y-126804595D01*
X144703828Y-126645354D01*
X144564646Y-126506172D01*
X144467339Y-126435474D01*
X144405403Y-126390474D01*
X144228787Y-126300485D01*
X144177990Y-126252511D01*
X144161195Y-126184690D01*
X144183732Y-126118555D01*
X144228787Y-126079515D01*
X144405403Y-125989525D01*
X144405402Y-125989525D01*
X144405405Y-125989524D01*
X144564646Y-125873828D01*
X144703828Y-125734646D01*
X144819524Y-125575405D01*
X144908884Y-125400025D01*
X144969709Y-125212826D01*
X144988044Y-125097065D01*
X145000500Y-125018422D01*
X145000500Y-124821577D01*
X144969709Y-124627173D01*
X144931695Y-124510181D01*
X144908884Y-124439975D01*
X144908882Y-124439972D01*
X144908882Y-124439970D01*
X144842452Y-124309594D01*
X144819524Y-124264595D01*
X144703828Y-124105354D01*
X144564646Y-123966172D01*
X144429865Y-123868247D01*
X144405403Y-123850474D01*
X144228787Y-123760485D01*
X144177990Y-123712511D01*
X144161195Y-123644690D01*
X144183732Y-123578555D01*
X144228787Y-123539515D01*
X144405403Y-123449525D01*
X144405402Y-123449525D01*
X144405405Y-123449524D01*
X144564646Y-123333828D01*
X144703828Y-123194646D01*
X144819524Y-123035405D01*
X144908884Y-122860025D01*
X144969709Y-122672826D01*
X144991991Y-122532142D01*
X145000500Y-122478422D01*
X145000500Y-122281577D01*
X144969709Y-122087173D01*
X144935902Y-121983127D01*
X144908884Y-121899975D01*
X144908882Y-121899972D01*
X144908882Y-121899970D01*
X144842452Y-121769594D01*
X144819524Y-121724595D01*
X144703828Y-121565354D01*
X144564646Y-121426172D01*
X144405405Y-121310476D01*
X144338370Y-121276320D01*
X144287574Y-121228345D01*
X144270779Y-121160524D01*
X144293316Y-121094389D01*
X144338370Y-121055350D01*
X144457557Y-120994620D01*
X144629459Y-120869727D01*
X144629464Y-120869723D01*
X144779723Y-120719464D01*
X144779727Y-120719459D01*
X144904620Y-120547557D01*
X145001095Y-120358217D01*
X145066757Y-120156129D01*
X145066757Y-120156126D01*
X145077231Y-120090000D01*
X144183012Y-120090000D01*
X144215925Y-120032993D01*
X144250000Y-119905826D01*
X144250000Y-119774174D01*
X144215925Y-119647007D01*
X144183012Y-119590000D01*
X145077231Y-119590000D01*
X145066757Y-119523873D01*
X145066757Y-119523870D01*
X145001095Y-119321782D01*
X144904620Y-119132442D01*
X144779727Y-118960540D01*
X144779723Y-118960535D01*
X144629464Y-118810276D01*
X144629459Y-118810272D01*
X144457553Y-118685376D01*
X144457552Y-118685375D01*
X144338370Y-118624648D01*
X144287574Y-118576674D01*
X144270779Y-118508853D01*
X144293317Y-118442718D01*
X144338370Y-118403679D01*
X144405405Y-118369524D01*
X144564646Y-118253828D01*
X144703828Y-118114646D01*
X144819524Y-117955405D01*
X144908884Y-117780025D01*
X144969709Y-117592826D01*
X144972758Y-117573578D01*
X145000500Y-117398422D01*
X145000500Y-117201577D01*
X144969709Y-117007173D01*
X144914902Y-116838496D01*
X144908884Y-116819975D01*
X144908882Y-116819972D01*
X144908882Y-116819970D01*
X144861743Y-116727455D01*
X144819524Y-116644595D01*
X144703828Y-116485354D01*
X144564646Y-116346172D01*
X144405405Y-116230476D01*
X144384845Y-116220000D01*
X144230029Y-116141117D01*
X144042826Y-116080290D01*
X143848422Y-116049500D01*
X143848417Y-116049500D01*
X143651583Y-116049500D01*
X143651578Y-116049500D01*
X143457173Y-116080290D01*
X143269970Y-116141117D01*
X143094594Y-116230476D01*
X143003741Y-116296485D01*
X142935354Y-116346172D01*
X142935352Y-116346174D01*
X142935351Y-116346174D01*
X142793346Y-116488180D01*
X142732023Y-116521665D01*
X142705665Y-116524499D01*
X135024500Y-116524499D01*
X134957461Y-116504814D01*
X134911706Y-116452010D01*
X134900500Y-116400499D01*
X134900500Y-111411309D01*
X134895860Y-111387986D01*
X134895860Y-111387982D01*
X134872112Y-111268593D01*
X134865894Y-111237334D01*
X134865892Y-111237329D01*
X134853251Y-111206810D01*
X134800446Y-111079328D01*
X134798013Y-111073453D01*
X134798011Y-111073451D01*
X134798011Y-111073449D01*
X134699465Y-110925966D01*
X134641279Y-110867780D01*
X134574035Y-110800536D01*
X134271960Y-110498461D01*
X132873041Y-109099540D01*
X132873038Y-109099537D01*
X132815796Y-109061290D01*
X132815795Y-109061289D01*
X132811062Y-109058127D01*
X132725547Y-109000987D01*
X132643606Y-108967046D01*
X132561666Y-108933105D01*
X132561658Y-108933103D01*
X132387696Y-108898500D01*
X132387692Y-108898500D01*
X132387691Y-108898500D01*
X120661309Y-108898500D01*
X120661306Y-108898500D01*
X120487341Y-108933103D01*
X120487332Y-108933106D01*
X120323459Y-109000983D01*
X120323446Y-109000990D01*
X120175965Y-109099535D01*
X120175961Y-109099538D01*
X120050538Y-109224961D01*
X120050535Y-109224965D01*
X119951990Y-109372446D01*
X119951983Y-109372459D01*
X119884106Y-109536332D01*
X119884103Y-109536341D01*
X119849500Y-109710304D01*
X119849500Y-109887695D01*
X119884103Y-110061658D01*
X119884106Y-110061667D01*
X119951983Y-110225540D01*
X119951990Y-110225553D01*
X120050535Y-110373034D01*
X120050538Y-110373038D01*
X120175961Y-110498461D01*
X120175965Y-110498464D01*
X120323446Y-110597009D01*
X120323450Y-110597011D01*
X120323453Y-110597013D01*
X120357074Y-110610939D01*
X120411476Y-110654779D01*
X120433542Y-110721073D01*
X120416263Y-110788772D01*
X120365127Y-110836383D01*
X120309621Y-110849500D01*
X119284713Y-110849500D01*
X119237260Y-110840061D01*
X119225826Y-110835325D01*
X119204328Y-110826420D01*
X119204322Y-110826418D01*
X119068995Y-110799500D01*
X119068993Y-110799500D01*
X118931007Y-110799500D01*
X118931005Y-110799500D01*
X118795677Y-110826418D01*
X118795667Y-110826421D01*
X118668195Y-110879221D01*
X118668182Y-110879228D01*
X118553458Y-110955885D01*
X118553454Y-110955888D01*
X118455888Y-111053454D01*
X118455885Y-111053458D01*
X118379228Y-111168182D01*
X118379221Y-111168195D01*
X118326421Y-111295667D01*
X118326418Y-111295677D01*
X118299500Y-111431004D01*
X118299500Y-111431007D01*
X118299500Y-111568993D01*
X118299500Y-111568995D01*
X118299499Y-111568995D01*
X118326418Y-111704322D01*
X118326421Y-111704332D01*
X118379221Y-111831804D01*
X118379228Y-111831817D01*
X118455885Y-111946541D01*
X118455888Y-111946545D01*
X118553454Y-112044111D01*
X118553458Y-112044114D01*
X118628338Y-112094148D01*
X118673143Y-112147760D01*
X118681850Y-112217085D01*
X118651695Y-112280113D01*
X118592252Y-112316832D01*
X118583640Y-112318867D01*
X118545676Y-112326418D01*
X118545667Y-112326421D01*
X118418195Y-112379221D01*
X118418182Y-112379228D01*
X118303458Y-112455885D01*
X118303454Y-112455888D01*
X118205888Y-112553454D01*
X118205885Y-112553458D01*
X118129228Y-112668182D01*
X118129221Y-112668195D01*
X118076421Y-112795667D01*
X118076418Y-112795677D01*
X118049500Y-112931004D01*
X118049500Y-112931007D01*
X118049500Y-113068993D01*
X118049500Y-113068995D01*
X118049499Y-113068995D01*
X116400500Y-113068995D01*
X116400500Y-112320807D01*
X116420185Y-112253768D01*
X116436814Y-112233131D01*
X121508651Y-107161293D01*
X121548877Y-107134415D01*
X121581811Y-107120775D01*
X121696542Y-107044114D01*
X121794114Y-106946542D01*
X121870775Y-106831811D01*
X121923580Y-106704328D01*
X121950500Y-106568993D01*
X121950500Y-106431007D01*
X121950500Y-106431004D01*
X121923581Y-106295677D01*
X121923580Y-106295676D01*
X121923580Y-106295672D01*
X121901079Y-106241349D01*
X121870778Y-106168195D01*
X121870771Y-106168182D01*
X121794114Y-106053458D01*
X121794111Y-106053454D01*
X121696545Y-105955888D01*
X121696541Y-105955885D01*
X121581817Y-105879228D01*
X121581804Y-105879221D01*
X121454332Y-105826421D01*
X121454322Y-105826418D01*
X121318995Y-105799500D01*
X121318993Y-105799500D01*
X121181007Y-105799500D01*
X121181005Y-105799500D01*
X121045677Y-105826418D01*
X121045667Y-105826421D01*
X120918195Y-105879221D01*
X120918182Y-105879228D01*
X120803458Y-105955885D01*
X120803454Y-105955888D01*
X120705888Y-106053454D01*
X120705882Y-106053462D01*
X120629226Y-106168186D01*
X120629222Y-106168192D01*
X120615582Y-106201123D01*
X120588703Y-106241349D01*
X115244727Y-111585325D01*
X115244721Y-111585332D01*
X115191711Y-111664668D01*
X115191712Y-111664669D01*
X115173534Y-111691874D01*
X115124499Y-111810255D01*
X115124497Y-111810261D01*
X115099500Y-111935928D01*
X115099500Y-119929191D01*
X115079815Y-119996230D01*
X115063181Y-120016872D01*
X113744727Y-121335325D01*
X113744721Y-121335332D01*
X113684025Y-121426170D01*
X113684026Y-121426171D01*
X113673535Y-121441871D01*
X113624499Y-121560255D01*
X113624497Y-121560261D01*
X113599500Y-121685928D01*
X113599500Y-135465287D01*
X113598112Y-135472262D01*
X113596116Y-135494056D01*
X113593830Y-135503639D01*
X113576420Y-135545672D01*
X113549500Y-135681007D01*
X113549500Y-135818993D01*
X113549500Y-135818995D01*
X113549499Y-135818995D01*
X90750000Y-135818995D01*
X90750000Y-135432171D01*
X90749999Y-135432154D01*
X90743598Y-135372626D01*
X90743596Y-135372619D01*
X90693354Y-135237912D01*
X90693350Y-135237905D01*
X90607190Y-135122811D01*
X90607187Y-135122808D01*
X90492093Y-135036648D01*
X90492086Y-135036644D01*
X90357379Y-134986402D01*
X90357372Y-134986400D01*
X90297844Y-134979999D01*
X90271216Y-134979999D01*
X90204177Y-134960314D01*
X90158422Y-134907510D01*
X90148478Y-134838352D01*
X90177503Y-134774796D01*
X90198329Y-134755682D01*
X90214646Y-134743827D01*
X90353828Y-134604645D01*
X90469524Y-134445404D01*
X90558884Y-134270024D01*
X90619709Y-134082825D01*
X90627614Y-134032913D01*
X90650500Y-133888421D01*
X90650500Y-133691576D01*
X90619709Y-133497172D01*
X90588020Y-133399646D01*
X90558884Y-133309974D01*
X90558882Y-133309971D01*
X90558882Y-133309969D01*
X90508039Y-133210185D01*
X90469524Y-133134594D01*
X90353828Y-132975353D01*
X90214646Y-132836171D01*
X90135025Y-132778323D01*
X90055403Y-132720473D01*
X89878787Y-132630484D01*
X89827990Y-132582510D01*
X89811195Y-132514689D01*
X89833732Y-132448554D01*
X89878787Y-132409514D01*
X90055403Y-132319524D01*
X90055402Y-132319524D01*
X90055405Y-132319523D01*
X90214646Y-132203827D01*
X90353828Y-132064645D01*
X90469524Y-131905404D01*
X90558884Y-131730024D01*
X90619709Y-131542825D01*
X90638294Y-131425485D01*
X90650500Y-131348421D01*
X90650500Y-131151576D01*
X90619709Y-130957172D01*
X90588019Y-130859642D01*
X90558884Y-130769974D01*
X90558882Y-130769971D01*
X90558882Y-130769969D01*
X90508040Y-130670186D01*
X90469524Y-130594594D01*
X90353828Y-130435353D01*
X90214646Y-130296171D01*
X90135025Y-130238323D01*
X90055403Y-130180473D01*
X89878787Y-130090484D01*
X89827990Y-130042510D01*
X89811195Y-129974689D01*
X89833732Y-129908554D01*
X89878787Y-129869514D01*
X90055403Y-129779524D01*
X90055402Y-129779524D01*
X90055405Y-129779523D01*
X90214646Y-129663827D01*
X90353828Y-129524645D01*
X90469524Y-129365404D01*
X90558884Y-129190024D01*
X90619709Y-129002825D01*
X90638294Y-128885485D01*
X90650500Y-128808421D01*
X90650500Y-128611576D01*
X90619709Y-128417172D01*
X90579804Y-128294358D01*
X90558884Y-128229974D01*
X90558882Y-128229971D01*
X90558882Y-128229969D01*
X90508039Y-128130185D01*
X90469524Y-128054594D01*
X90419637Y-127985931D01*
X100849500Y-127985931D01*
X100849500Y-128114069D01*
X100867481Y-128204464D01*
X100868869Y-128211442D01*
X100868870Y-128211452D01*
X100874496Y-128239737D01*
X100874498Y-128239742D01*
X100907596Y-128319646D01*
X100923535Y-128358127D01*
X100994723Y-128464669D01*
X100994726Y-128464673D01*
X101085325Y-128555272D01*
X101085332Y-128555278D01*
X101169599Y-128611583D01*
X101169600Y-128611583D01*
X101191873Y-128626465D01*
X101310256Y-128675501D01*
X101310260Y-128675501D01*
X101310261Y-128675502D01*
X101435928Y-128700500D01*
X101435931Y-128700500D01*
X101564071Y-128700500D01*
X101648615Y-128683682D01*
X101689744Y-128675501D01*
X101808127Y-128626465D01*
X101830400Y-128611583D01*
X101830401Y-128611583D01*
X101893458Y-128569449D01*
X101914669Y-128555277D01*
X110887819Y-119582127D01*
X110949142Y-119548642D01*
X111018834Y-119553626D01*
X111074767Y-119595498D01*
X111099184Y-119660962D01*
X111099500Y-119669808D01*
X111099500Y-120965287D01*
X111090062Y-121012734D01*
X111076420Y-121045672D01*
X111076418Y-121045678D01*
X111049500Y-121181004D01*
X111049500Y-121181007D01*
X111049500Y-121318993D01*
X111049500Y-121318995D01*
X111049499Y-121318995D01*
X111076418Y-121454322D01*
X111076421Y-121454332D01*
X111129221Y-121581804D01*
X111129228Y-121581817D01*
X111205885Y-121696541D01*
X111205888Y-121696545D01*
X111303454Y-121794111D01*
X111303458Y-121794114D01*
X111418182Y-121870771D01*
X111418195Y-121870778D01*
X111536370Y-121919727D01*
X111545672Y-121923580D01*
X111545676Y-121923580D01*
X111545677Y-121923581D01*
X111681004Y-121950500D01*
X111681007Y-121950500D01*
X111818995Y-121950500D01*
X111910041Y-121932389D01*
X111954328Y-121923580D01*
X112081811Y-121870775D01*
X112196542Y-121794114D01*
X112294114Y-121696542D01*
X112370775Y-121581811D01*
X112423580Y-121454328D01*
X112443243Y-121355476D01*
X112450500Y-121318995D01*
X112450500Y-121181004D01*
X112423581Y-121045678D01*
X112423580Y-121045672D01*
X112409937Y-121012734D01*
X112400500Y-120965287D01*
X112400500Y-116968995D01*
X112799499Y-116968995D01*
X112826418Y-117104322D01*
X112826421Y-117104332D01*
X112879221Y-117231804D01*
X112879228Y-117231817D01*
X112955885Y-117346541D01*
X112955888Y-117346545D01*
X113053454Y-117444111D01*
X113053458Y-117444114D01*
X113168182Y-117520771D01*
X113168195Y-117520778D01*
X113295667Y-117573578D01*
X113295672Y-117573580D01*
X113295676Y-117573580D01*
X113295677Y-117573581D01*
X113431004Y-117600500D01*
X113431007Y-117600500D01*
X113568995Y-117600500D01*
X113660041Y-117582389D01*
X113704328Y-117573580D01*
X113831811Y-117520775D01*
X113946542Y-117444114D01*
X114044114Y-117346542D01*
X114120775Y-117231811D01*
X114173580Y-117104328D01*
X114185075Y-117046541D01*
X114200500Y-116968995D01*
X114200500Y-116831004D01*
X114180171Y-116728811D01*
X114173580Y-116695672D01*
X114159937Y-116662734D01*
X114150500Y-116615287D01*
X114150500Y-111570807D01*
X114170185Y-111503768D01*
X114186814Y-111483131D01*
X123008651Y-102661293D01*
X123048877Y-102634415D01*
X123081811Y-102620775D01*
X123196542Y-102544114D01*
X123294114Y-102446542D01*
X123370775Y-102331811D01*
X123423580Y-102204328D01*
X123450500Y-102068993D01*
X123450500Y-101931007D01*
X123450500Y-101931004D01*
X123423581Y-101795677D01*
X123423580Y-101795676D01*
X123423580Y-101795672D01*
X123402996Y-101745978D01*
X123370778Y-101668195D01*
X123370771Y-101668182D01*
X123294114Y-101553458D01*
X123294111Y-101553454D01*
X123196545Y-101455888D01*
X123196541Y-101455885D01*
X123081817Y-101379228D01*
X123081804Y-101379221D01*
X122954332Y-101326421D01*
X122954322Y-101326418D01*
X122818995Y-101299500D01*
X122818993Y-101299500D01*
X122681007Y-101299500D01*
X122681005Y-101299500D01*
X122545677Y-101326418D01*
X122545667Y-101326421D01*
X122418195Y-101379221D01*
X122418182Y-101379228D01*
X122303458Y-101455885D01*
X122303454Y-101455888D01*
X122205888Y-101553454D01*
X122205882Y-101553462D01*
X122129226Y-101668186D01*
X122129222Y-101668192D01*
X122115582Y-101701123D01*
X122088703Y-101741349D01*
X112994727Y-110835325D01*
X112994721Y-110835332D01*
X112935787Y-110923534D01*
X112935788Y-110923535D01*
X112923534Y-110941874D01*
X112874499Y-111060255D01*
X112874497Y-111060261D01*
X112849500Y-111185928D01*
X112849500Y-116615287D01*
X112840062Y-116662734D01*
X112826420Y-116695672D01*
X112826418Y-116695678D01*
X112799500Y-116831004D01*
X112799500Y-116831007D01*
X112799500Y-116968993D01*
X112799500Y-116968995D01*
X112799499Y-116968995D01*
X112400500Y-116968995D01*
X112400500Y-109820807D01*
X112420185Y-109753768D01*
X112436814Y-109733131D01*
X119008651Y-103161293D01*
X119048877Y-103134415D01*
X119081811Y-103120775D01*
X119196542Y-103044114D01*
X119294114Y-102946542D01*
X119370775Y-102831811D01*
X119423580Y-102704328D01*
X119440201Y-102620771D01*
X119450500Y-102568995D01*
X119450500Y-102431004D01*
X119423581Y-102295677D01*
X119423580Y-102295676D01*
X119423580Y-102295672D01*
X119401079Y-102241349D01*
X119370778Y-102168195D01*
X119370771Y-102168182D01*
X119294114Y-102053458D01*
X119294111Y-102053454D01*
X119196545Y-101955888D01*
X119196541Y-101955885D01*
X119081817Y-101879228D01*
X119081804Y-101879221D01*
X118954332Y-101826421D01*
X118954322Y-101826418D01*
X118818995Y-101799500D01*
X118818993Y-101799500D01*
X118681007Y-101799500D01*
X118681005Y-101799500D01*
X118545677Y-101826418D01*
X118545667Y-101826421D01*
X118418195Y-101879221D01*
X118418182Y-101879228D01*
X118303458Y-101955885D01*
X118303454Y-101955888D01*
X118205888Y-102053454D01*
X118205882Y-102053462D01*
X118129226Y-102168186D01*
X118129222Y-102168192D01*
X118115582Y-102201123D01*
X118088703Y-102241349D01*
X114112181Y-106217872D01*
X114050858Y-106251357D01*
X113981166Y-106246373D01*
X113925233Y-106204501D01*
X113900816Y-106139037D01*
X113900500Y-106130191D01*
X113900500Y-103634712D01*
X113909939Y-103587259D01*
X113923580Y-103554327D01*
X113935583Y-103493985D01*
X113950500Y-103418994D01*
X113950500Y-103281003D01*
X113923581Y-103145677D01*
X113923580Y-103145671D01*
X113909937Y-103112733D01*
X113900500Y-103065286D01*
X113900500Y-100570807D01*
X113920185Y-100503768D01*
X113936814Y-100483131D01*
X119008651Y-95411293D01*
X119048877Y-95384415D01*
X119081811Y-95370775D01*
X119196542Y-95294114D01*
X119294114Y-95196542D01*
X119370775Y-95081811D01*
X119423580Y-94954328D01*
X119450500Y-94818993D01*
X119450500Y-94681007D01*
X119450500Y-94681004D01*
X119423581Y-94545677D01*
X119423580Y-94545676D01*
X119423580Y-94545672D01*
X119401079Y-94491349D01*
X119370778Y-94418195D01*
X119370771Y-94418182D01*
X119294114Y-94303458D01*
X119294111Y-94303454D01*
X119196545Y-94205888D01*
X119196541Y-94205885D01*
X119081817Y-94129228D01*
X119081804Y-94129221D01*
X118954332Y-94076421D01*
X118954322Y-94076418D01*
X118818995Y-94049500D01*
X118818993Y-94049500D01*
X118681007Y-94049500D01*
X118681005Y-94049500D01*
X118545677Y-94076418D01*
X118545667Y-94076421D01*
X118418195Y-94129221D01*
X118418182Y-94129228D01*
X118303458Y-94205885D01*
X118303454Y-94205888D01*
X118205888Y-94303454D01*
X118205882Y-94303462D01*
X118129226Y-94418186D01*
X118129222Y-94418192D01*
X118115582Y-94451123D01*
X118088703Y-94491349D01*
X112744726Y-99835326D01*
X112673534Y-99941874D01*
X112624499Y-100060255D01*
X112624497Y-100060261D01*
X112599500Y-100185928D01*
X112599500Y-103065286D01*
X112590062Y-103112733D01*
X112579392Y-103138497D01*
X112576418Y-103145677D01*
X112549500Y-103281003D01*
X112549500Y-103281006D01*
X112549500Y-103418992D01*
X112549500Y-103418994D01*
X112549499Y-103418994D01*
X112576418Y-103554321D01*
X112576420Y-103554327D01*
X112590061Y-103587259D01*
X112599500Y-103634712D01*
X112599500Y-105929191D01*
X112579815Y-105996230D01*
X112563181Y-106016872D01*
X110244727Y-108335325D01*
X110244726Y-108335326D01*
X110173534Y-108441874D01*
X110124499Y-108560255D01*
X110124497Y-108560261D01*
X110099500Y-108685928D01*
X110099500Y-118479191D01*
X110079815Y-118546230D01*
X110063181Y-118566872D01*
X100994727Y-127635325D01*
X100994724Y-127635328D01*
X100943504Y-127711986D01*
X100923535Y-127741871D01*
X100874499Y-127860255D01*
X100874497Y-127860261D01*
X100850147Y-127982675D01*
X100850147Y-127982677D01*
X100849500Y-127985931D01*
X90419637Y-127985931D01*
X90353828Y-127895353D01*
X90214646Y-127756171D01*
X90055405Y-127640475D01*
X90045303Y-127635328D01*
X89880029Y-127551116D01*
X89692826Y-127490289D01*
X89498422Y-127459499D01*
X89498417Y-127459499D01*
X89301583Y-127459499D01*
X89301578Y-127459499D01*
X89107173Y-127490289D01*
X88919970Y-127551116D01*
X88744594Y-127640475D01*
X88675881Y-127690399D01*
X88585354Y-127756171D01*
X88585352Y-127756173D01*
X88585351Y-127756173D01*
X88446174Y-127895350D01*
X88446174Y-127895351D01*
X88446172Y-127895353D01*
X88396485Y-127963740D01*
X88330476Y-128054593D01*
X88241117Y-128229969D01*
X88180290Y-128417172D01*
X88149500Y-128611576D01*
X88149500Y-128808421D01*
X88180290Y-129002825D01*
X88241117Y-129190028D01*
X88319094Y-129343065D01*
X88330476Y-129365404D01*
X88446172Y-129524645D01*
X88585354Y-129663827D01*
X88744595Y-129779523D01*
X88867992Y-129842396D01*
X88921213Y-129869514D01*
X88972009Y-129917488D01*
X88988804Y-129985309D01*
X88966267Y-130051444D01*
X88921213Y-130090484D01*
X88744594Y-130180475D01*
X88653741Y-130246484D01*
X88585354Y-130296171D01*
X88585352Y-130296173D01*
X88585351Y-130296173D01*
X88446174Y-130435350D01*
X88446174Y-130435351D01*
X88446172Y-130435353D01*
X88413716Y-130480025D01*
X88330476Y-130594593D01*
X88241117Y-130769969D01*
X88180290Y-130957172D01*
X88149500Y-131151576D01*
X88149500Y-131348421D01*
X88180290Y-131542825D01*
X88241117Y-131730028D01*
X88283260Y-131812737D01*
X88330476Y-131905404D01*
X88446172Y-132064645D01*
X88585354Y-132203827D01*
X88744595Y-132319523D01*
X88867992Y-132382396D01*
X88921213Y-132409514D01*
X88972009Y-132457488D01*
X88988804Y-132525309D01*
X88966267Y-132591444D01*
X88921213Y-132630484D01*
X88744594Y-132720475D01*
X88653741Y-132786484D01*
X88585354Y-132836171D01*
X88585352Y-132836173D01*
X88585351Y-132836173D01*
X88446174Y-132975350D01*
X88446174Y-132975351D01*
X88446172Y-132975353D01*
X88413716Y-133020025D01*
X88330476Y-133134593D01*
X88241117Y-133309969D01*
X88180290Y-133497172D01*
X88149500Y-133691576D01*
X88149500Y-133888421D01*
X88180290Y-134082825D01*
X88241117Y-134270028D01*
X88330476Y-134445404D01*
X88446172Y-134604645D01*
X88446174Y-134604647D01*
X88585354Y-134743827D01*
X88601671Y-134755682D01*
X88644336Y-134811012D01*
X88650314Y-134880626D01*
X88617707Y-134942420D01*
X88556868Y-134976777D01*
X88528784Y-134979999D01*
X88502155Y-134979999D01*
X88442627Y-134986400D01*
X88442620Y-134986402D01*
X88307913Y-135036644D01*
X88307906Y-135036648D01*
X88192812Y-135122808D01*
X88192809Y-135122811D01*
X88106649Y-135237905D01*
X88106645Y-135237912D01*
X88056403Y-135372619D01*
X88056401Y-135372626D01*
X88050000Y-135432154D01*
X50500500Y-135432154D01*
X50500500Y-132849778D01*
X55099500Y-132849778D01*
X55099500Y-133070221D01*
X55133985Y-133287952D01*
X55202103Y-133497603D01*
X55202104Y-133497606D01*
X55248343Y-133588353D01*
X55301369Y-133692421D01*
X55302187Y-133694025D01*
X55431752Y-133872358D01*
X55431756Y-133872363D01*
X55587636Y-134028243D01*
X55587641Y-134028247D01*
X55743192Y-134141260D01*
X55765978Y-134157815D01*
X55894375Y-134223237D01*
X55962393Y-134257895D01*
X55962396Y-134257896D01*
X56067221Y-134291955D01*
X56172049Y-134326015D01*
X56389778Y-134360500D01*
X56389779Y-134360500D01*
X56610221Y-134360500D01*
X56610222Y-134360500D01*
X56827951Y-134326015D01*
X57037606Y-134257895D01*
X57234022Y-134157815D01*
X57412365Y-134028242D01*
X57568242Y-133872365D01*
X57697815Y-133694022D01*
X57797895Y-133497606D01*
X57866015Y-133287951D01*
X57900500Y-133070222D01*
X57900500Y-132849778D01*
X57866015Y-132632049D01*
X57827883Y-132514689D01*
X57797896Y-132422396D01*
X57797895Y-132422393D01*
X57763237Y-132354375D01*
X57697815Y-132225978D01*
X57580602Y-132064647D01*
X57568247Y-132047641D01*
X57568243Y-132047636D01*
X57412363Y-131891756D01*
X57412358Y-131891752D01*
X57234025Y-131762187D01*
X57234024Y-131762186D01*
X57234022Y-131762185D01*
X57137704Y-131713108D01*
X57037606Y-131662104D01*
X57037603Y-131662103D01*
X56827952Y-131593985D01*
X56719086Y-131576742D01*
X56610222Y-131559500D01*
X56389778Y-131559500D01*
X56317201Y-131570995D01*
X56172047Y-131593985D01*
X55962396Y-131662103D01*
X55962393Y-131662104D01*
X55765974Y-131762187D01*
X55587641Y-131891752D01*
X55587636Y-131891756D01*
X55431756Y-132047636D01*
X55431752Y-132047641D01*
X55302187Y-132225974D01*
X55202104Y-132422393D01*
X55202103Y-132422396D01*
X55133985Y-132632047D01*
X55099500Y-132849778D01*
X50500500Y-132849778D01*
X50500500Y-127761947D01*
X55000000Y-127761947D01*
X55000000Y-127998052D01*
X55036934Y-128231247D01*
X55109897Y-128455802D01*
X55217087Y-128666174D01*
X55277338Y-128749104D01*
X55277340Y-128749105D01*
X55898948Y-128127496D01*
X55923967Y-128187896D01*
X55995103Y-128294358D01*
X56085642Y-128384897D01*
X56192104Y-128456033D01*
X56252502Y-128481050D01*
X55630893Y-129102658D01*
X55713828Y-129162914D01*
X55924197Y-129270102D01*
X56148752Y-129343065D01*
X56148751Y-129343065D01*
X56381948Y-129380000D01*
X56618052Y-129380000D01*
X56851247Y-129343065D01*
X57075802Y-129270102D01*
X57286163Y-129162918D01*
X57286169Y-129162914D01*
X57369104Y-129102658D01*
X57369105Y-129102658D01*
X56747497Y-128481050D01*
X56807896Y-128456033D01*
X56914358Y-128384897D01*
X57004897Y-128294358D01*
X57076033Y-128187896D01*
X57101050Y-128127497D01*
X57722658Y-128749105D01*
X57722658Y-128749104D01*
X57782914Y-128666169D01*
X57782918Y-128666163D01*
X57890102Y-128455802D01*
X57963065Y-128231247D01*
X58000000Y-127998052D01*
X58000000Y-127761947D01*
X57963065Y-127528752D01*
X57890102Y-127304197D01*
X57782914Y-127093828D01*
X57722658Y-127010894D01*
X57722658Y-127010893D01*
X57101050Y-127632501D01*
X57076033Y-127572104D01*
X57004897Y-127465642D01*
X56914358Y-127375103D01*
X56807896Y-127303967D01*
X56747497Y-127278949D01*
X57369105Y-126657340D01*
X57369104Y-126657338D01*
X57286174Y-126597087D01*
X57075802Y-126489897D01*
X56851247Y-126416934D01*
X56851248Y-126416934D01*
X56618052Y-126380000D01*
X56381948Y-126380000D01*
X56148752Y-126416934D01*
X55924197Y-126489897D01*
X55713830Y-126597084D01*
X55630894Y-126657340D01*
X56252503Y-127278949D01*
X56192104Y-127303967D01*
X56085642Y-127375103D01*
X55995103Y-127465642D01*
X55923967Y-127572104D01*
X55898949Y-127632503D01*
X55277340Y-127010894D01*
X55217084Y-127093830D01*
X55109897Y-127304197D01*
X55036934Y-127528752D01*
X55000000Y-127761947D01*
X50500500Y-127761947D01*
X50500500Y-122689778D01*
X55099500Y-122689778D01*
X55099500Y-122910222D01*
X55102676Y-122930276D01*
X55133985Y-123127952D01*
X55202103Y-123337603D01*
X55202104Y-123337606D01*
X55254731Y-123440890D01*
X55294980Y-123519882D01*
X55302187Y-123534025D01*
X55431752Y-123712358D01*
X55431756Y-123712363D01*
X55587636Y-123868243D01*
X55587641Y-123868247D01*
X55660263Y-123921009D01*
X55765978Y-123997815D01*
X55894375Y-124063237D01*
X55962393Y-124097895D01*
X55962396Y-124097896D01*
X56067221Y-124131955D01*
X56172049Y-124166015D01*
X56389778Y-124200500D01*
X56389779Y-124200500D01*
X56610221Y-124200500D01*
X56610222Y-124200500D01*
X56827951Y-124166015D01*
X57037606Y-124097895D01*
X57056726Y-124088153D01*
X57056729Y-124088152D01*
X57234020Y-123997816D01*
X57234019Y-123997816D01*
X57234022Y-123997815D01*
X57412365Y-123868242D01*
X57568242Y-123712365D01*
X57697815Y-123534022D01*
X57720338Y-123489818D01*
X65810000Y-123489818D01*
X65810000Y-123750000D01*
X66661519Y-123750000D01*
X66650890Y-123768409D01*
X66610001Y-123921009D01*
X66610001Y-124078991D01*
X66650890Y-124231591D01*
X66661519Y-124250000D01*
X65810000Y-124250000D01*
X65810000Y-124510181D01*
X65844473Y-124727835D01*
X65912567Y-124937410D01*
X66012613Y-125133760D01*
X66142142Y-125312041D01*
X66297958Y-125467857D01*
X66476239Y-125597386D01*
X66672589Y-125697432D01*
X66882163Y-125765526D01*
X66959999Y-125777854D01*
X66960000Y-125777854D01*
X66960000Y-124548481D01*
X66978409Y-124559110D01*
X67131009Y-124599999D01*
X67288991Y-124599999D01*
X67441591Y-124559110D01*
X67460000Y-124548481D01*
X67460000Y-125777854D01*
X67537834Y-125765526D01*
X67537837Y-125765526D01*
X67747410Y-125697432D01*
X67943760Y-125597386D01*
X68122041Y-125467857D01*
X68277857Y-125312041D01*
X68407388Y-125133758D01*
X68426084Y-125097065D01*
X68474058Y-125046269D01*
X68541879Y-125029473D01*
X68608014Y-125052010D01*
X68636887Y-125080474D01*
X68758028Y-125247213D01*
X68902786Y-125391971D01*
X69010566Y-125470276D01*
X69068390Y-125512287D01*
X69182639Y-125570500D01*
X69250776Y-125605218D01*
X69250778Y-125605218D01*
X69250781Y-125605220D01*
X69321045Y-125628050D01*
X69445465Y-125668477D01*
X69546557Y-125684488D01*
X69647648Y-125700500D01*
X69647649Y-125700500D01*
X69852351Y-125700500D01*
X69852352Y-125700500D01*
X70054534Y-125668477D01*
X70249219Y-125605220D01*
X70431610Y-125512287D01*
X70551377Y-125425272D01*
X70597213Y-125391971D01*
X70597215Y-125391968D01*
X70597219Y-125391966D01*
X70741966Y-125247219D01*
X70765180Y-125215266D01*
X70820508Y-125172599D01*
X70890121Y-125166618D01*
X70951918Y-125199222D01*
X70986277Y-125260060D01*
X70989500Y-125288146D01*
X70989500Y-125331516D01*
X70999074Y-125391966D01*
X71004354Y-125425304D01*
X71061950Y-125538342D01*
X71061952Y-125538344D01*
X71061954Y-125538347D01*
X71151652Y-125628045D01*
X71151654Y-125628046D01*
X71151658Y-125628050D01*
X71264694Y-125685645D01*
X71264698Y-125685647D01*
X71358475Y-125700499D01*
X71358481Y-125700500D01*
X73221518Y-125700499D01*
X73315304Y-125685646D01*
X73428342Y-125628050D01*
X73518050Y-125538342D01*
X73575646Y-125425304D01*
X73575646Y-125425302D01*
X73575647Y-125425301D01*
X73590499Y-125331524D01*
X73590500Y-125331519D01*
X73590499Y-122668482D01*
X73575646Y-122574696D01*
X73518050Y-122461658D01*
X73518046Y-122461654D01*
X73518045Y-122461652D01*
X73428347Y-122371954D01*
X73428344Y-122371952D01*
X73428342Y-122371950D01*
X73339293Y-122326577D01*
X73315301Y-122314352D01*
X73221524Y-122299500D01*
X71358482Y-122299500D01*
X71277519Y-122312323D01*
X71264696Y-122314354D01*
X71151658Y-122371950D01*
X71151657Y-122371951D01*
X71151652Y-122371954D01*
X71061954Y-122461652D01*
X71061951Y-122461657D01*
X71061950Y-122461658D01*
X71048674Y-122487713D01*
X71004352Y-122574698D01*
X70989500Y-122668475D01*
X70989500Y-122711849D01*
X70969815Y-122778888D01*
X70917011Y-122824643D01*
X70847853Y-122834587D01*
X70784297Y-122805562D01*
X70765182Y-122784734D01*
X70741971Y-122752786D01*
X70597213Y-122608028D01*
X70431613Y-122487715D01*
X70431612Y-122487714D01*
X70431610Y-122487713D01*
X70374653Y-122458691D01*
X70249223Y-122394781D01*
X70054534Y-122331522D01*
X69871716Y-122302567D01*
X69852352Y-122299500D01*
X69647648Y-122299500D01*
X69628284Y-122302567D01*
X69445465Y-122331522D01*
X69250776Y-122394781D01*
X69068386Y-122487715D01*
X68902786Y-122608028D01*
X68758032Y-122752782D01*
X68758028Y-122752787D01*
X68636887Y-122919525D01*
X68581557Y-122962191D01*
X68511944Y-122968170D01*
X68450149Y-122935565D01*
X68426084Y-122902935D01*
X68407386Y-122866239D01*
X68277857Y-122687958D01*
X68122041Y-122532142D01*
X67943760Y-122402613D01*
X67747410Y-122302567D01*
X67537836Y-122234473D01*
X67460000Y-122222144D01*
X67460000Y-123451518D01*
X67441591Y-123440890D01*
X67288991Y-123400001D01*
X67131009Y-123400001D01*
X66978409Y-123440890D01*
X66960000Y-123451518D01*
X66960000Y-122222144D01*
X66882164Y-122234473D01*
X66882161Y-122234473D01*
X66672589Y-122302567D01*
X66476239Y-122402613D01*
X66297958Y-122532142D01*
X66142142Y-122687958D01*
X66012613Y-122866239D01*
X65912567Y-123062589D01*
X65844473Y-123272164D01*
X65810000Y-123489818D01*
X57720338Y-123489818D01*
X57740869Y-123449525D01*
X57751506Y-123428650D01*
X57797895Y-123337606D01*
X57797896Y-123337603D01*
X57829723Y-123239647D01*
X57866015Y-123127951D01*
X57900500Y-122910222D01*
X57900500Y-122689778D01*
X57866015Y-122472049D01*
X57809952Y-122299501D01*
X57797896Y-122262396D01*
X57797895Y-122262393D01*
X57763237Y-122194375D01*
X57697815Y-122065978D01*
X57609898Y-121944970D01*
X57568247Y-121887641D01*
X57568243Y-121887636D01*
X57412363Y-121731756D01*
X57412358Y-121731752D01*
X57234025Y-121602187D01*
X57234024Y-121602186D01*
X57234022Y-121602185D01*
X57161732Y-121565351D01*
X57037606Y-121502104D01*
X57037603Y-121502103D01*
X56827952Y-121433985D01*
X56719086Y-121416742D01*
X56610222Y-121399500D01*
X56389778Y-121399500D01*
X56317201Y-121410995D01*
X56172047Y-121433985D01*
X55962396Y-121502103D01*
X55962393Y-121502104D01*
X55765974Y-121602187D01*
X55587641Y-121731752D01*
X55587636Y-121731756D01*
X55431756Y-121887636D01*
X55431752Y-121887641D01*
X55302187Y-122065974D01*
X55202104Y-122262393D01*
X55202103Y-122262396D01*
X55133985Y-122472047D01*
X55125849Y-122523417D01*
X55099500Y-122689778D01*
X50500500Y-122689778D01*
X50500500Y-117601947D01*
X55000000Y-117601947D01*
X55000000Y-117838052D01*
X55036934Y-118071247D01*
X55109897Y-118295802D01*
X55217087Y-118506174D01*
X55277338Y-118589104D01*
X55277340Y-118589105D01*
X55898948Y-117967496D01*
X55923967Y-118027896D01*
X55995103Y-118134358D01*
X56085642Y-118224897D01*
X56192104Y-118296033D01*
X56252502Y-118321050D01*
X55630893Y-118942658D01*
X55713828Y-119002914D01*
X55924197Y-119110102D01*
X56148752Y-119183065D01*
X56148751Y-119183065D01*
X56381948Y-119220000D01*
X56618052Y-119220000D01*
X56851247Y-119183065D01*
X57075802Y-119110102D01*
X57286163Y-119002918D01*
X57286169Y-119002914D01*
X57369104Y-118942658D01*
X57369105Y-118942658D01*
X56747497Y-118321050D01*
X56807896Y-118296033D01*
X56914358Y-118224897D01*
X57004897Y-118134358D01*
X57076033Y-118027896D01*
X57101050Y-117967497D01*
X57722658Y-118589105D01*
X57722658Y-118589104D01*
X57782914Y-118506169D01*
X57782918Y-118506163D01*
X57890102Y-118295802D01*
X57963065Y-118071247D01*
X58000000Y-117838052D01*
X58000000Y-117601947D01*
X57963065Y-117368752D01*
X57890102Y-117144197D01*
X57782914Y-116933828D01*
X57722658Y-116850894D01*
X57722658Y-116850893D01*
X57101050Y-117472501D01*
X57076033Y-117412104D01*
X57004897Y-117305642D01*
X56914358Y-117215103D01*
X56807896Y-117143967D01*
X56747497Y-117118949D01*
X57197450Y-116668995D01*
X91299499Y-116668995D01*
X91326418Y-116804322D01*
X91326421Y-116804332D01*
X91379221Y-116931804D01*
X91379228Y-116931817D01*
X91455885Y-117046541D01*
X91455888Y-117046545D01*
X91553454Y-117144111D01*
X91553458Y-117144114D01*
X91668182Y-117220771D01*
X91668195Y-117220778D01*
X91795667Y-117273578D01*
X91795672Y-117273580D01*
X91795676Y-117273580D01*
X91795677Y-117273581D01*
X91931004Y-117300500D01*
X91931007Y-117300500D01*
X92068995Y-117300500D01*
X92160041Y-117282389D01*
X92204328Y-117273580D01*
X92237260Y-117259938D01*
X92284713Y-117250500D01*
X95415287Y-117250500D01*
X95462739Y-117259938D01*
X95495672Y-117273580D01*
X95495676Y-117273580D01*
X95495677Y-117273581D01*
X95631004Y-117300500D01*
X95631007Y-117300500D01*
X95768995Y-117300500D01*
X95860041Y-117282389D01*
X95904328Y-117273580D01*
X96031811Y-117220775D01*
X96146542Y-117144114D01*
X96244114Y-117046542D01*
X96320775Y-116931811D01*
X96373580Y-116804328D01*
X96395020Y-116696542D01*
X96400500Y-116668995D01*
X96400500Y-116531004D01*
X96373581Y-116395677D01*
X96373580Y-116395676D01*
X96373580Y-116395672D01*
X96373578Y-116395667D01*
X96320778Y-116268195D01*
X96320771Y-116268182D01*
X96244114Y-116153458D01*
X96244111Y-116153454D01*
X96146545Y-116055888D01*
X96146541Y-116055885D01*
X96031817Y-115979228D01*
X96031804Y-115979221D01*
X95904332Y-115926421D01*
X95904322Y-115926418D01*
X95768995Y-115899500D01*
X95768993Y-115899500D01*
X95631007Y-115899500D01*
X95631005Y-115899500D01*
X95495677Y-115926418D01*
X95495671Y-115926420D01*
X95462740Y-115940061D01*
X95415287Y-115949500D01*
X92284713Y-115949500D01*
X92237260Y-115940061D01*
X92204328Y-115926420D01*
X92204322Y-115926418D01*
X92068995Y-115899500D01*
X92068993Y-115899500D01*
X91931007Y-115899500D01*
X91931005Y-115899500D01*
X91795677Y-115926418D01*
X91795667Y-115926421D01*
X91668195Y-115979221D01*
X91668182Y-115979228D01*
X91553458Y-116055885D01*
X91553454Y-116055888D01*
X91455888Y-116153454D01*
X91455885Y-116153458D01*
X91379228Y-116268182D01*
X91379221Y-116268195D01*
X91326421Y-116395667D01*
X91326418Y-116395677D01*
X91299500Y-116531004D01*
X91299500Y-116531007D01*
X91299500Y-116668993D01*
X91299500Y-116668995D01*
X91299499Y-116668995D01*
X57197450Y-116668995D01*
X57369105Y-116497340D01*
X57369105Y-116497339D01*
X57286174Y-116437087D01*
X57075802Y-116329897D01*
X56851247Y-116256934D01*
X56851248Y-116256934D01*
X56618052Y-116220000D01*
X56381948Y-116220000D01*
X56148752Y-116256934D01*
X55924197Y-116329897D01*
X55713830Y-116437084D01*
X55630894Y-116497340D01*
X56252503Y-117118949D01*
X56192104Y-117143967D01*
X56085642Y-117215103D01*
X55995103Y-117305642D01*
X55923967Y-117412104D01*
X55898949Y-117472503D01*
X55277340Y-116850894D01*
X55217084Y-116933830D01*
X55109897Y-117144197D01*
X55036934Y-117368752D01*
X55000000Y-117601947D01*
X50500500Y-117601947D01*
X50500500Y-112529778D01*
X55099501Y-112529778D01*
X55099501Y-112750221D01*
X55133986Y-112967952D01*
X55202104Y-113177603D01*
X55202105Y-113177606D01*
X55302188Y-113374025D01*
X55431753Y-113552358D01*
X55431757Y-113552363D01*
X55587637Y-113708243D01*
X55587642Y-113708247D01*
X55740073Y-113818993D01*
X55765979Y-113837815D01*
X55894376Y-113903237D01*
X55962394Y-113937895D01*
X55962397Y-113937896D01*
X56067222Y-113971955D01*
X56172050Y-114006015D01*
X56389779Y-114040500D01*
X56389780Y-114040500D01*
X56610222Y-114040500D01*
X56610223Y-114040500D01*
X56827952Y-114006015D01*
X57037607Y-113937895D01*
X57234023Y-113837815D01*
X57412366Y-113708242D01*
X57568243Y-113552365D01*
X57697816Y-113374022D01*
X57797896Y-113177606D01*
X57866016Y-112967951D01*
X57900501Y-112750222D01*
X57900501Y-112529778D01*
X57866016Y-112312049D01*
X57821025Y-112173580D01*
X57797897Y-112102396D01*
X57797896Y-112102393D01*
X57748412Y-112005277D01*
X57697816Y-111905978D01*
X57681261Y-111883192D01*
X57568248Y-111727641D01*
X57568244Y-111727636D01*
X57412364Y-111571756D01*
X57412359Y-111571752D01*
X57408564Y-111568995D01*
X94299499Y-111568995D01*
X94326418Y-111704322D01*
X94326421Y-111704332D01*
X94379222Y-111831806D01*
X94382094Y-111837178D01*
X94380792Y-111837874D01*
X94399480Y-111897554D01*
X94399500Y-111899769D01*
X94399500Y-113600230D01*
X94381253Y-113662369D01*
X94382095Y-113662819D01*
X94379935Y-113666859D01*
X94379815Y-113667269D01*
X94379278Y-113668087D01*
X94379223Y-113668190D01*
X94326421Y-113795667D01*
X94326418Y-113795677D01*
X94299500Y-113931004D01*
X94299500Y-113931007D01*
X94299500Y-114068993D01*
X94299500Y-114068995D01*
X94299499Y-114068995D01*
X94326418Y-114204322D01*
X94326421Y-114204332D01*
X94379221Y-114331804D01*
X94379228Y-114331817D01*
X94455885Y-114446541D01*
X94455888Y-114446545D01*
X94553454Y-114544111D01*
X94553458Y-114544114D01*
X94668182Y-114620771D01*
X94668195Y-114620778D01*
X94795667Y-114673578D01*
X94795672Y-114673580D01*
X94795676Y-114673580D01*
X94795677Y-114673581D01*
X94931004Y-114700500D01*
X94931007Y-114700500D01*
X95068995Y-114700500D01*
X95160041Y-114682389D01*
X95204328Y-114673580D01*
X95331811Y-114620775D01*
X95446542Y-114544114D01*
X95544114Y-114446542D01*
X95620775Y-114331811D01*
X95673580Y-114204328D01*
X95697949Y-114081817D01*
X95700500Y-114068995D01*
X95700500Y-113931004D01*
X95678219Y-113818995D01*
X97799499Y-113818995D01*
X97826418Y-113954322D01*
X97826421Y-113954332D01*
X97879221Y-114081804D01*
X97879228Y-114081817D01*
X97955885Y-114196541D01*
X97955888Y-114196545D01*
X98053454Y-114294111D01*
X98053458Y-114294114D01*
X98168182Y-114370771D01*
X98168195Y-114370778D01*
X98266047Y-114411309D01*
X98295672Y-114423580D01*
X98295676Y-114423580D01*
X98295677Y-114423581D01*
X98431004Y-114450500D01*
X98431007Y-114450500D01*
X98568995Y-114450500D01*
X98660041Y-114432389D01*
X98704328Y-114423580D01*
X98831811Y-114370775D01*
X98946542Y-114294114D01*
X99044114Y-114196542D01*
X99120775Y-114081811D01*
X99173580Y-113954328D01*
X99200500Y-113818993D01*
X99200500Y-113681007D01*
X99200500Y-113681004D01*
X99179705Y-113576465D01*
X99173580Y-113545672D01*
X99159937Y-113512734D01*
X99150500Y-113465287D01*
X99150500Y-109734928D01*
X99125502Y-109609261D01*
X99125501Y-109609260D01*
X99125501Y-109609256D01*
X99076465Y-109490873D01*
X99076464Y-109490872D01*
X99076461Y-109490866D01*
X99005276Y-109384331D01*
X99005273Y-109384327D01*
X98914672Y-109293726D01*
X98914668Y-109293723D01*
X98808133Y-109222538D01*
X98808124Y-109222533D01*
X98689744Y-109173499D01*
X98689738Y-109173497D01*
X98564071Y-109148500D01*
X98564069Y-109148500D01*
X98435931Y-109148500D01*
X98435929Y-109148500D01*
X98310261Y-109173497D01*
X98310255Y-109173499D01*
X98191875Y-109222533D01*
X98191866Y-109222538D01*
X98085331Y-109293723D01*
X98085327Y-109293726D01*
X97994726Y-109384327D01*
X97994723Y-109384331D01*
X97923538Y-109490866D01*
X97923533Y-109490875D01*
X97874499Y-109609255D01*
X97874497Y-109609261D01*
X97849500Y-109734928D01*
X97849500Y-113465287D01*
X97846116Y-113494056D01*
X97843830Y-113503639D01*
X97826420Y-113545672D01*
X97799500Y-113681007D01*
X97799500Y-113818993D01*
X97799500Y-113818995D01*
X97799499Y-113818995D01*
X95678219Y-113818995D01*
X95673581Y-113795677D01*
X95673580Y-113795676D01*
X95673580Y-113795672D01*
X95620775Y-113668189D01*
X95615532Y-113660342D01*
X95611235Y-113650698D01*
X95607930Y-113626109D01*
X95600520Y-113602438D01*
X95600500Y-113600230D01*
X95600500Y-111899769D01*
X95618746Y-111837627D01*
X95617906Y-111837178D01*
X95620064Y-111833140D01*
X95620185Y-111832730D01*
X95620721Y-111831910D01*
X95620771Y-111831816D01*
X95620775Y-111831811D01*
X95673580Y-111704328D01*
X95697250Y-111585331D01*
X95700500Y-111568995D01*
X95700500Y-111431004D01*
X95673581Y-111295677D01*
X95673580Y-111295676D01*
X95673580Y-111295672D01*
X95649414Y-111237329D01*
X95620778Y-111168195D01*
X95620771Y-111168182D01*
X95544114Y-111053458D01*
X95544111Y-111053454D01*
X95446545Y-110955888D01*
X95446541Y-110955885D01*
X95331817Y-110879228D01*
X95331804Y-110879221D01*
X95204332Y-110826421D01*
X95204322Y-110826418D01*
X95068995Y-110799500D01*
X95068993Y-110799500D01*
X94931007Y-110799500D01*
X94931005Y-110799500D01*
X94795677Y-110826418D01*
X94795667Y-110826421D01*
X94668195Y-110879221D01*
X94668182Y-110879228D01*
X94553458Y-110955885D01*
X94553454Y-110955888D01*
X94455888Y-111053454D01*
X94455885Y-111053458D01*
X94379228Y-111168182D01*
X94379221Y-111168195D01*
X94326421Y-111295667D01*
X94326418Y-111295677D01*
X94299500Y-111431004D01*
X94299500Y-111431007D01*
X94299500Y-111568993D01*
X94299500Y-111568995D01*
X94299499Y-111568995D01*
X57408564Y-111568995D01*
X57348331Y-111525233D01*
X57234026Y-111442187D01*
X57234025Y-111442186D01*
X57234023Y-111442185D01*
X57127645Y-111387982D01*
X57037607Y-111342104D01*
X57037604Y-111342103D01*
X56827953Y-111273985D01*
X56719087Y-111256742D01*
X56610223Y-111239500D01*
X56389779Y-111239500D01*
X56317202Y-111250995D01*
X56172048Y-111273985D01*
X55962397Y-111342103D01*
X55962394Y-111342104D01*
X55765975Y-111442187D01*
X55587642Y-111571752D01*
X55587637Y-111571756D01*
X55431757Y-111727636D01*
X55431753Y-111727641D01*
X55302188Y-111905974D01*
X55202105Y-112102393D01*
X55202104Y-112102396D01*
X55133986Y-112312047D01*
X55099501Y-112529778D01*
X50500500Y-112529778D01*
X50500500Y-107441947D01*
X55000001Y-107441947D01*
X55000001Y-107678052D01*
X55036935Y-107911247D01*
X55109898Y-108135802D01*
X55217088Y-108346174D01*
X55277339Y-108429104D01*
X55277341Y-108429105D01*
X55898949Y-107807496D01*
X55923968Y-107867896D01*
X55995104Y-107974358D01*
X56085643Y-108064897D01*
X56192105Y-108136033D01*
X56252503Y-108161050D01*
X55630894Y-108782658D01*
X55713829Y-108842914D01*
X55924198Y-108950102D01*
X56148753Y-109023065D01*
X56148752Y-109023065D01*
X56381949Y-109060000D01*
X56618053Y-109060000D01*
X56851248Y-109023065D01*
X57075803Y-108950102D01*
X57286164Y-108842918D01*
X57286170Y-108842914D01*
X57369105Y-108782658D01*
X57369106Y-108782658D01*
X56747498Y-108161050D01*
X56807897Y-108136033D01*
X56914359Y-108064897D01*
X57004898Y-107974358D01*
X57076034Y-107867896D01*
X57101051Y-107807497D01*
X57722659Y-108429105D01*
X57722659Y-108429104D01*
X57782915Y-108346169D01*
X57782919Y-108346163D01*
X57890103Y-108135802D01*
X57963066Y-107911247D01*
X58000001Y-107678052D01*
X58000001Y-107441947D01*
X57963066Y-107208752D01*
X57890103Y-106984197D01*
X57782915Y-106773828D01*
X57722659Y-106690894D01*
X57722659Y-106690893D01*
X57101051Y-107312501D01*
X57076034Y-107252104D01*
X57004898Y-107145642D01*
X56914359Y-107055103D01*
X56807897Y-106983967D01*
X56747498Y-106958949D01*
X57369106Y-106337340D01*
X57369105Y-106337338D01*
X57286175Y-106277087D01*
X57075803Y-106169897D01*
X56851248Y-106096934D01*
X56851249Y-106096934D01*
X56618053Y-106060000D01*
X56381949Y-106060000D01*
X56148753Y-106096934D01*
X55924198Y-106169897D01*
X55713831Y-106277084D01*
X55630895Y-106337340D01*
X56252504Y-106958949D01*
X56192105Y-106983967D01*
X56085643Y-107055103D01*
X55995104Y-107145642D01*
X55923968Y-107252104D01*
X55898950Y-107312503D01*
X55277341Y-106690894D01*
X55217085Y-106773830D01*
X55109898Y-106984197D01*
X55036935Y-107208752D01*
X55000001Y-107441947D01*
X50500500Y-107441947D01*
X50500500Y-102369778D01*
X55099501Y-102369778D01*
X55099501Y-102590221D01*
X55133986Y-102807952D01*
X55202104Y-103017603D01*
X55202105Y-103017606D01*
X55254672Y-103120771D01*
X55275320Y-103161296D01*
X55302188Y-103214025D01*
X55431753Y-103392358D01*
X55431757Y-103392363D01*
X55587637Y-103548243D01*
X55587642Y-103548247D01*
X55743193Y-103661260D01*
X55765979Y-103677815D01*
X55894376Y-103743237D01*
X55962394Y-103777895D01*
X55962397Y-103777896D01*
X56044349Y-103804523D01*
X56172050Y-103846015D01*
X56389779Y-103880500D01*
X56389780Y-103880500D01*
X56610222Y-103880500D01*
X56610223Y-103880500D01*
X56827952Y-103846015D01*
X57037607Y-103777895D01*
X57234023Y-103677815D01*
X57412366Y-103548242D01*
X57568243Y-103392365D01*
X57697816Y-103214022D01*
X57797896Y-103017606D01*
X57866016Y-102807951D01*
X57900501Y-102590222D01*
X57900501Y-102369778D01*
X57866016Y-102152049D01*
X57831956Y-102047221D01*
X57797897Y-101942396D01*
X57797896Y-101942393D01*
X57738804Y-101826421D01*
X57697816Y-101745978D01*
X57641302Y-101668192D01*
X57568248Y-101567641D01*
X57568244Y-101567636D01*
X57412364Y-101411756D01*
X57412359Y-101411752D01*
X57234026Y-101282187D01*
X57234025Y-101282186D01*
X57234023Y-101282185D01*
X57124397Y-101226327D01*
X57037607Y-101182104D01*
X57037604Y-101182103D01*
X56827953Y-101113985D01*
X56719087Y-101096742D01*
X56610223Y-101079500D01*
X56389779Y-101079500D01*
X56317202Y-101090995D01*
X56172048Y-101113985D01*
X55962397Y-101182103D01*
X55962394Y-101182104D01*
X55765975Y-101282187D01*
X55587642Y-101411752D01*
X55587637Y-101411756D01*
X55431757Y-101567636D01*
X55431753Y-101567641D01*
X55302188Y-101745974D01*
X55202105Y-101942393D01*
X55202104Y-101942396D01*
X55133986Y-102152047D01*
X55099501Y-102369778D01*
X50500500Y-102369778D01*
X50500500Y-97289778D01*
X55099501Y-97289778D01*
X55099501Y-97510221D01*
X55133986Y-97727952D01*
X55202104Y-97937603D01*
X55202105Y-97937606D01*
X55302188Y-98134025D01*
X55431753Y-98312358D01*
X55431757Y-98312363D01*
X55587637Y-98468243D01*
X55587642Y-98468247D01*
X55743193Y-98581260D01*
X55765979Y-98597815D01*
X55894376Y-98663237D01*
X55962394Y-98697895D01*
X55962397Y-98697896D01*
X56067222Y-98731955D01*
X56172050Y-98766015D01*
X56389779Y-98800500D01*
X56389780Y-98800500D01*
X56610222Y-98800500D01*
X56610223Y-98800500D01*
X56827952Y-98766015D01*
X57037607Y-98697895D01*
X57234023Y-98597815D01*
X57412366Y-98468242D01*
X57568243Y-98312365D01*
X57697816Y-98134022D01*
X57797896Y-97937606D01*
X57866016Y-97727951D01*
X57900501Y-97510222D01*
X57900501Y-97289778D01*
X57866016Y-97072049D01*
X57797896Y-96862394D01*
X57797896Y-96862393D01*
X57763238Y-96794375D01*
X57697816Y-96665978D01*
X57681261Y-96643192D01*
X57568248Y-96487641D01*
X57568244Y-96487636D01*
X57412364Y-96331756D01*
X57412359Y-96331752D01*
X57234026Y-96202187D01*
X57234025Y-96202186D01*
X57234023Y-96202185D01*
X57171097Y-96170122D01*
X57037607Y-96102104D01*
X57037604Y-96102103D01*
X56827953Y-96033985D01*
X56719087Y-96016742D01*
X56610223Y-95999500D01*
X56389779Y-95999500D01*
X56317202Y-96010995D01*
X56172048Y-96033985D01*
X55962397Y-96102103D01*
X55962394Y-96102104D01*
X55765975Y-96202187D01*
X55587642Y-96331752D01*
X55587637Y-96331756D01*
X55431757Y-96487636D01*
X55431753Y-96487641D01*
X55302188Y-96665974D01*
X55202105Y-96862393D01*
X55202104Y-96862396D01*
X55133986Y-97072047D01*
X55099501Y-97289778D01*
X50500500Y-97289778D01*
X50500500Y-92209779D01*
X55099500Y-92209779D01*
X55099500Y-92430220D01*
X55108928Y-92489744D01*
X55108928Y-92489745D01*
X55133986Y-92647952D01*
X55202104Y-92857603D01*
X55202105Y-92857606D01*
X55302188Y-93054025D01*
X55431753Y-93232358D01*
X55431757Y-93232363D01*
X55587637Y-93388243D01*
X55587642Y-93388247D01*
X55743193Y-93501260D01*
X55765979Y-93517815D01*
X55894376Y-93583237D01*
X55962394Y-93617895D01*
X55962397Y-93617896D01*
X56067222Y-93651955D01*
X56172050Y-93686015D01*
X56389779Y-93720501D01*
X56389780Y-93720501D01*
X56610222Y-93720501D01*
X56610223Y-93720501D01*
X56827952Y-93686015D01*
X57037607Y-93617895D01*
X57234023Y-93517815D01*
X57412366Y-93388242D01*
X57568243Y-93232365D01*
X57568244Y-93232363D01*
X57575304Y-93225303D01*
X57575310Y-93225296D01*
X58564675Y-92235931D01*
X67049500Y-92235931D01*
X67049500Y-92364069D01*
X67061338Y-92423580D01*
X67062926Y-92431566D01*
X67062927Y-92431573D01*
X67074497Y-92489736D01*
X67074499Y-92489744D01*
X67123534Y-92608125D01*
X67194726Y-92714673D01*
X67194727Y-92714674D01*
X81838703Y-107358649D01*
X81865583Y-107398877D01*
X81879223Y-107431807D01*
X81879228Y-107431817D01*
X81955885Y-107546541D01*
X81955888Y-107546545D01*
X82053454Y-107644111D01*
X82053458Y-107644114D01*
X82168182Y-107720771D01*
X82168195Y-107720778D01*
X82295667Y-107773578D01*
X82295672Y-107773580D01*
X82295676Y-107773580D01*
X82295677Y-107773581D01*
X82431004Y-107800500D01*
X82431007Y-107800500D01*
X82568995Y-107800500D01*
X82660041Y-107782389D01*
X82704328Y-107773580D01*
X82831811Y-107720775D01*
X82946542Y-107644114D01*
X82946545Y-107644111D01*
X82979700Y-107610957D01*
X83044111Y-107546545D01*
X83044114Y-107546542D01*
X83120775Y-107431811D01*
X83173580Y-107304328D01*
X83187275Y-107235479D01*
X83200500Y-107168995D01*
X83200500Y-107031004D01*
X83173581Y-106895677D01*
X83173580Y-106895676D01*
X83173580Y-106895672D01*
X83154455Y-106849500D01*
X83120778Y-106768195D01*
X83120771Y-106768182D01*
X83053659Y-106667742D01*
X83053658Y-106667741D01*
X83044116Y-106653460D01*
X83044111Y-106653454D01*
X82992812Y-106602155D01*
X96110000Y-106602155D01*
X96110000Y-107250000D01*
X97026988Y-107250000D01*
X96994075Y-107307007D01*
X96960000Y-107434174D01*
X96960000Y-107565826D01*
X96994075Y-107692993D01*
X97026988Y-107750000D01*
X96110000Y-107750000D01*
X96110000Y-108397844D01*
X96116401Y-108457372D01*
X96116403Y-108457379D01*
X96166645Y-108592086D01*
X96166649Y-108592093D01*
X96252809Y-108707187D01*
X96252812Y-108707190D01*
X96367906Y-108793350D01*
X96367913Y-108793354D01*
X96502620Y-108843596D01*
X96502627Y-108843598D01*
X96562155Y-108849999D01*
X96562172Y-108850000D01*
X97210000Y-108850000D01*
X97210000Y-107933012D01*
X97267007Y-107965925D01*
X97394174Y-108000000D01*
X97525826Y-108000000D01*
X97652993Y-107965925D01*
X97710000Y-107933012D01*
X97710000Y-108850000D01*
X98357828Y-108850000D01*
X98357844Y-108849999D01*
X98417372Y-108843598D01*
X98417379Y-108843596D01*
X98552086Y-108793354D01*
X98552093Y-108793350D01*
X98667187Y-108707190D01*
X98667190Y-108707187D01*
X98753350Y-108592093D01*
X98753354Y-108592086D01*
X98803596Y-108457379D01*
X98803598Y-108457372D01*
X98809999Y-108397844D01*
X98810000Y-108397827D01*
X98810000Y-108371215D01*
X98829685Y-108304176D01*
X98882489Y-108258421D01*
X98951647Y-108248477D01*
X99015203Y-108277502D01*
X99034316Y-108298327D01*
X99046172Y-108314646D01*
X99185354Y-108453828D01*
X99344595Y-108569524D01*
X99427455Y-108611743D01*
X99519970Y-108658882D01*
X99519972Y-108658882D01*
X99519975Y-108658884D01*
X99603217Y-108685931D01*
X99707173Y-108719709D01*
X99901578Y-108750500D01*
X99901583Y-108750500D01*
X100098422Y-108750500D01*
X100292826Y-108719709D01*
X100331355Y-108707190D01*
X100480025Y-108658884D01*
X100655405Y-108569524D01*
X100814646Y-108453828D01*
X100953828Y-108314646D01*
X101069524Y-108155405D01*
X101158884Y-107980025D01*
X101159515Y-107978787D01*
X101207489Y-107927990D01*
X101275310Y-107911195D01*
X101341445Y-107933732D01*
X101380485Y-107978787D01*
X101470474Y-108155403D01*
X101481214Y-108170185D01*
X101586172Y-108314646D01*
X101725354Y-108453828D01*
X101884595Y-108569524D01*
X101967455Y-108611743D01*
X102059970Y-108658882D01*
X102059972Y-108658882D01*
X102059975Y-108658884D01*
X102143217Y-108685931D01*
X102247173Y-108719709D01*
X102441578Y-108750500D01*
X102441583Y-108750500D01*
X102638422Y-108750500D01*
X102832826Y-108719709D01*
X102871355Y-108707190D01*
X103020025Y-108658884D01*
X103195405Y-108569524D01*
X103354646Y-108453828D01*
X103493828Y-108314646D01*
X103575950Y-108201614D01*
X103631280Y-108158949D01*
X103676268Y-108150500D01*
X104179192Y-108150500D01*
X104246231Y-108170185D01*
X104266873Y-108186819D01*
X108063181Y-111983127D01*
X108096666Y-112044450D01*
X108099500Y-112070808D01*
X108099500Y-114564069D01*
X108099500Y-114564071D01*
X108099499Y-114564071D01*
X108124497Y-114689738D01*
X108124499Y-114689744D01*
X108173533Y-114808124D01*
X108173538Y-114808133D01*
X108244723Y-114914668D01*
X108244726Y-114914672D01*
X108335327Y-115005273D01*
X108335331Y-115005276D01*
X108441866Y-115076461D01*
X108441872Y-115076464D01*
X108441873Y-115076465D01*
X108560256Y-115125501D01*
X108560260Y-115125501D01*
X108560261Y-115125502D01*
X108685928Y-115150500D01*
X108685931Y-115150500D01*
X108814071Y-115150500D01*
X108898615Y-115133682D01*
X108939744Y-115125501D01*
X109058127Y-115076465D01*
X109164669Y-115005276D01*
X109255276Y-114914669D01*
X109326465Y-114808127D01*
X109375501Y-114689744D01*
X109400500Y-114564069D01*
X109400500Y-111685931D01*
X109400500Y-111685928D01*
X109375502Y-111560261D01*
X109375501Y-111560260D01*
X109375501Y-111560256D01*
X109345272Y-111487276D01*
X109326466Y-111441874D01*
X109311258Y-111419114D01*
X109255278Y-111335332D01*
X109255272Y-111335325D01*
X104914673Y-106994726D01*
X104842564Y-106946545D01*
X104808127Y-106923535D01*
X104689744Y-106874499D01*
X104689738Y-106874497D01*
X104564071Y-106849500D01*
X104564069Y-106849500D01*
X103676268Y-106849500D01*
X103609229Y-106829815D01*
X103575950Y-106798385D01*
X103503500Y-106698667D01*
X103493828Y-106685354D01*
X103354646Y-106546172D01*
X103195405Y-106430476D01*
X103020029Y-106341117D01*
X102832826Y-106280290D01*
X102638422Y-106249500D01*
X102638417Y-106249500D01*
X102441583Y-106249500D01*
X102441578Y-106249500D01*
X102247173Y-106280290D01*
X102059970Y-106341117D01*
X101884594Y-106430476D01*
X101817501Y-106479223D01*
X101725354Y-106546172D01*
X101725352Y-106546174D01*
X101725351Y-106546174D01*
X101586174Y-106685351D01*
X101586174Y-106685352D01*
X101586172Y-106685354D01*
X101574317Y-106701671D01*
X101470476Y-106844594D01*
X101380485Y-107021213D01*
X101332511Y-107072009D01*
X101264690Y-107088804D01*
X101198555Y-107066267D01*
X101159515Y-107021213D01*
X101095546Y-106895667D01*
X101069524Y-106844595D01*
X100953828Y-106685354D01*
X100814646Y-106546172D01*
X100655405Y-106430476D01*
X100480029Y-106341117D01*
X100292826Y-106280290D01*
X100098422Y-106249500D01*
X100098417Y-106249500D01*
X99901583Y-106249500D01*
X99901578Y-106249500D01*
X99707173Y-106280290D01*
X99519970Y-106341117D01*
X99344594Y-106430476D01*
X99277501Y-106479223D01*
X99185354Y-106546172D01*
X99185352Y-106546174D01*
X99185351Y-106546174D01*
X99046171Y-106685354D01*
X99034317Y-106701671D01*
X98978987Y-106744336D01*
X98909373Y-106750314D01*
X98847579Y-106717707D01*
X98813222Y-106656868D01*
X98810000Y-106628784D01*
X98810000Y-106602172D01*
X98809999Y-106602155D01*
X98803598Y-106542627D01*
X98803596Y-106542620D01*
X98753354Y-106407913D01*
X98753350Y-106407906D01*
X98667190Y-106292812D01*
X98667187Y-106292809D01*
X98552093Y-106206649D01*
X98552086Y-106206645D01*
X98417379Y-106156403D01*
X98417372Y-106156401D01*
X98357844Y-106150000D01*
X97710000Y-106150000D01*
X97710000Y-107066988D01*
X97652993Y-107034075D01*
X97525826Y-107000000D01*
X97394174Y-107000000D01*
X97267007Y-107034075D01*
X97210000Y-107066988D01*
X97210000Y-106150000D01*
X96562155Y-106150000D01*
X96502627Y-106156401D01*
X96502620Y-106156403D01*
X96367913Y-106206645D01*
X96367906Y-106206649D01*
X96252812Y-106292809D01*
X96252809Y-106292812D01*
X96166649Y-106407906D01*
X96166645Y-106407913D01*
X96116403Y-106542620D01*
X96116401Y-106542627D01*
X96110000Y-106602155D01*
X82992812Y-106602155D01*
X82946545Y-106555888D01*
X82946541Y-106555885D01*
X82831817Y-106479228D01*
X82831807Y-106479223D01*
X82798877Y-106465583D01*
X82758649Y-106438703D01*
X77930782Y-101610836D01*
X108490000Y-101610836D01*
X108490000Y-101809163D01*
X108521026Y-102005052D01*
X108582310Y-102193669D01*
X108582311Y-102193672D01*
X108672350Y-102370380D01*
X108699161Y-102407283D01*
X109369000Y-101737445D01*
X109369000Y-101760160D01*
X109394964Y-101857061D01*
X109445124Y-101943940D01*
X109516060Y-102014876D01*
X109602939Y-102065036D01*
X109699840Y-102091000D01*
X109722553Y-102091000D01*
X109052714Y-102760837D01*
X109052715Y-102760838D01*
X109089612Y-102787645D01*
X109266327Y-102877688D01*
X109266333Y-102877690D01*
X109379252Y-102914379D01*
X109436928Y-102953816D01*
X109464127Y-103018174D01*
X109452213Y-103087021D01*
X109404969Y-103138497D01*
X109379255Y-103150241D01*
X109304517Y-103174525D01*
X109141765Y-103257452D01*
X108993982Y-103364823D01*
X108864823Y-103493982D01*
X108757452Y-103641765D01*
X108674524Y-103804520D01*
X108618075Y-103978251D01*
X108618075Y-103978252D01*
X108589500Y-104158667D01*
X108589500Y-104341332D01*
X108618075Y-104521747D01*
X108618075Y-104521748D01*
X108618076Y-104521751D01*
X108674523Y-104695477D01*
X108757452Y-104858234D01*
X108864821Y-105006015D01*
X108993985Y-105135179D01*
X109141766Y-105242548D01*
X109304523Y-105325477D01*
X109478249Y-105381924D01*
X109564914Y-105395650D01*
X109576760Y-105397527D01*
X109639895Y-105427456D01*
X109676826Y-105486768D01*
X109675828Y-105556630D01*
X109637218Y-105614863D01*
X109576760Y-105642473D01*
X109478252Y-105658075D01*
X109478251Y-105658075D01*
X109304520Y-105714524D01*
X109141765Y-105797452D01*
X108993982Y-105904823D01*
X108864823Y-106033982D01*
X108757452Y-106181765D01*
X108674524Y-106344520D01*
X108618075Y-106518251D01*
X108618075Y-106518252D01*
X108589500Y-106698667D01*
X108589500Y-106881332D01*
X108618075Y-107061747D01*
X108618075Y-107061748D01*
X108618076Y-107061751D01*
X108674523Y-107235477D01*
X108757452Y-107398234D01*
X108864821Y-107546015D01*
X108993985Y-107675179D01*
X109141766Y-107782548D01*
X109304523Y-107865477D01*
X109478249Y-107921924D01*
X109658667Y-107950500D01*
X109658668Y-107950500D01*
X109841332Y-107950500D01*
X109841333Y-107950500D01*
X110021751Y-107921924D01*
X110195477Y-107865477D01*
X110358234Y-107782548D01*
X110506015Y-107675179D01*
X110635179Y-107546015D01*
X110742548Y-107398234D01*
X110825477Y-107235477D01*
X110881924Y-107061751D01*
X110910500Y-106881333D01*
X110910500Y-106698667D01*
X110881924Y-106518249D01*
X110825477Y-106344523D01*
X110742548Y-106181766D01*
X110635179Y-106033985D01*
X110506015Y-105904821D01*
X110358234Y-105797452D01*
X110195477Y-105714523D01*
X110021751Y-105658076D01*
X110021749Y-105658075D01*
X110021747Y-105658075D01*
X109943253Y-105645642D01*
X109923238Y-105642472D01*
X109860104Y-105612544D01*
X109823173Y-105553232D01*
X109824171Y-105483370D01*
X109862781Y-105425137D01*
X109923238Y-105397527D01*
X110021751Y-105381924D01*
X110195477Y-105325477D01*
X110358234Y-105242548D01*
X110506015Y-105135179D01*
X110635179Y-105006015D01*
X110742548Y-104858234D01*
X110825477Y-104695477D01*
X110881924Y-104521751D01*
X110910500Y-104341333D01*
X110910500Y-104158667D01*
X110881924Y-103978249D01*
X110825477Y-103804523D01*
X110742548Y-103641766D01*
X110635179Y-103493985D01*
X110506015Y-103364821D01*
X110358234Y-103257452D01*
X110195481Y-103174524D01*
X110120745Y-103150241D01*
X110063070Y-103110803D01*
X110035872Y-103046444D01*
X110047787Y-102977598D01*
X110095032Y-102926122D01*
X110120747Y-102914379D01*
X110233666Y-102877690D01*
X110233672Y-102877688D01*
X110410382Y-102787648D01*
X110447283Y-102760837D01*
X110447284Y-102760836D01*
X109777448Y-102091000D01*
X109800160Y-102091000D01*
X109897061Y-102065036D01*
X109983940Y-102014876D01*
X110054876Y-101943940D01*
X110105036Y-101857061D01*
X110131000Y-101760160D01*
X110131000Y-101737447D01*
X110800836Y-102407284D01*
X110800837Y-102407283D01*
X110827648Y-102370382D01*
X110917688Y-102193672D01*
X110917689Y-102193669D01*
X110978973Y-102005052D01*
X111010000Y-101809163D01*
X111010000Y-101610836D01*
X110978973Y-101414947D01*
X110917689Y-101226330D01*
X110917688Y-101226327D01*
X110827645Y-101049612D01*
X110800838Y-101012715D01*
X110800837Y-101012714D01*
X110131000Y-101682551D01*
X110131000Y-101659840D01*
X110105036Y-101562939D01*
X110054876Y-101476060D01*
X109983940Y-101405124D01*
X109897061Y-101354964D01*
X109800160Y-101329000D01*
X109777447Y-101329000D01*
X110447283Y-100659161D01*
X110410380Y-100632350D01*
X110233672Y-100542311D01*
X110233669Y-100542310D01*
X110045052Y-100481026D01*
X109849163Y-100450000D01*
X109650837Y-100450000D01*
X109454947Y-100481026D01*
X109266330Y-100542310D01*
X109266322Y-100542313D01*
X109089615Y-100632352D01*
X109052715Y-100659160D01*
X109052715Y-100659161D01*
X109722554Y-101329000D01*
X109699840Y-101329000D01*
X109602939Y-101354964D01*
X109516060Y-101405124D01*
X109445124Y-101476060D01*
X109394964Y-101562939D01*
X109369000Y-101659840D01*
X109369000Y-101682554D01*
X108699161Y-101012715D01*
X108699160Y-101012715D01*
X108672352Y-101049615D01*
X108582313Y-101226322D01*
X108582310Y-101226330D01*
X108521026Y-101414947D01*
X108490000Y-101610836D01*
X77930782Y-101610836D01*
X77114047Y-100794101D01*
X68114674Y-91794727D01*
X68114673Y-91794726D01*
X68096217Y-91782394D01*
X68008127Y-91723535D01*
X67889744Y-91674499D01*
X67889738Y-91674497D01*
X67764071Y-91649500D01*
X67764069Y-91649500D01*
X67635931Y-91649500D01*
X67635929Y-91649500D01*
X67510261Y-91674497D01*
X67510255Y-91674499D01*
X67391874Y-91723534D01*
X67285326Y-91794726D01*
X67194724Y-91885328D01*
X67143504Y-91961986D01*
X67123535Y-91991871D01*
X67074499Y-92110255D01*
X67074497Y-92110261D01*
X67049997Y-92233425D01*
X67049997Y-92233430D01*
X67049500Y-92235931D01*
X58564675Y-92235931D01*
X60731611Y-90068995D01*
X104474499Y-90068995D01*
X104501418Y-90204322D01*
X104501421Y-90204332D01*
X104554221Y-90331804D01*
X104554228Y-90331817D01*
X104630885Y-90446541D01*
X104630888Y-90446545D01*
X104728454Y-90544111D01*
X104728458Y-90544114D01*
X104843182Y-90620771D01*
X104843195Y-90620778D01*
X104970667Y-90673578D01*
X104970672Y-90673580D01*
X104970676Y-90673580D01*
X104970677Y-90673581D01*
X105106004Y-90700500D01*
X105106007Y-90700500D01*
X105243995Y-90700500D01*
X105335041Y-90682389D01*
X105379328Y-90673580D01*
X105412260Y-90659938D01*
X105459713Y-90650500D01*
X106429192Y-90650500D01*
X106496231Y-90670185D01*
X106516873Y-90686819D01*
X108085325Y-92255272D01*
X108085326Y-92255273D01*
X108085329Y-92255275D01*
X108085331Y-92255277D01*
X108191873Y-92326465D01*
X108310256Y-92375501D01*
X108310260Y-92375501D01*
X108310261Y-92375502D01*
X108435928Y-92400500D01*
X108435931Y-92400500D01*
X120715287Y-92400500D01*
X120762739Y-92409938D01*
X120795672Y-92423580D01*
X120795676Y-92423580D01*
X120795677Y-92423581D01*
X120931004Y-92450500D01*
X120931007Y-92450500D01*
X121068995Y-92450500D01*
X121164145Y-92431573D01*
X121204328Y-92423580D01*
X121320399Y-92375502D01*
X121331804Y-92370778D01*
X121331804Y-92370777D01*
X121331811Y-92370775D01*
X121446542Y-92294114D01*
X121544114Y-92196542D01*
X121620775Y-92081811D01*
X121673580Y-91954328D01*
X121682389Y-91910041D01*
X121700500Y-91818995D01*
X121700500Y-91681004D01*
X121673581Y-91545677D01*
X121673580Y-91545676D01*
X121673580Y-91545672D01*
X121630586Y-91441874D01*
X121620778Y-91418195D01*
X121620771Y-91418182D01*
X121544114Y-91303458D01*
X121544111Y-91303454D01*
X121446545Y-91205888D01*
X121446541Y-91205885D01*
X121331817Y-91129228D01*
X121331804Y-91129221D01*
X121204332Y-91076421D01*
X121204322Y-91076418D01*
X121068995Y-91049500D01*
X121068993Y-91049500D01*
X120931007Y-91049500D01*
X120931005Y-91049500D01*
X120795677Y-91076418D01*
X120795671Y-91076420D01*
X120762740Y-91090061D01*
X120715287Y-91099500D01*
X108820808Y-91099500D01*
X108753769Y-91079815D01*
X108733127Y-91063181D01*
X107164674Y-89494727D01*
X107164673Y-89494726D01*
X107106544Y-89455886D01*
X107058127Y-89423535D01*
X106939744Y-89374499D01*
X106939738Y-89374497D01*
X106814071Y-89349500D01*
X106814069Y-89349500D01*
X105459713Y-89349500D01*
X105412260Y-89340061D01*
X105379328Y-89326420D01*
X105379322Y-89326418D01*
X105243995Y-89299500D01*
X105243993Y-89299500D01*
X105106007Y-89299500D01*
X105106005Y-89299500D01*
X104970677Y-89326418D01*
X104970667Y-89326421D01*
X104843195Y-89379221D01*
X104843182Y-89379228D01*
X104728458Y-89455885D01*
X104728454Y-89455888D01*
X104630888Y-89553454D01*
X104630885Y-89553458D01*
X104554228Y-89668182D01*
X104554221Y-89668195D01*
X104501421Y-89795667D01*
X104501418Y-89795677D01*
X104474500Y-89931004D01*
X104474500Y-89931007D01*
X104474500Y-90068993D01*
X104474500Y-90068995D01*
X104474499Y-90068995D01*
X60731611Y-90068995D01*
X63405296Y-87395310D01*
X63405303Y-87395304D01*
X63412363Y-87388244D01*
X63412365Y-87388243D01*
X63568242Y-87232366D01*
X63697815Y-87054023D01*
X63797895Y-86857607D01*
X63866015Y-86647952D01*
X63888502Y-86505978D01*
X63900501Y-86430223D01*
X63900501Y-86209779D01*
X63900501Y-86205378D01*
X63900500Y-86205363D01*
X63900500Y-84173615D01*
X76724500Y-84173615D01*
X76724500Y-84326384D01*
X76754300Y-84476197D01*
X76754302Y-84476205D01*
X76812759Y-84617334D01*
X76812764Y-84617343D01*
X76897629Y-84744351D01*
X76897632Y-84744355D01*
X77005644Y-84852367D01*
X77005648Y-84852370D01*
X77132656Y-84937235D01*
X77132662Y-84937238D01*
X77132663Y-84937239D01*
X77273795Y-84995698D01*
X77423615Y-85025499D01*
X77423619Y-85025500D01*
X77423620Y-85025500D01*
X89326381Y-85025500D01*
X89326382Y-85025499D01*
X89476205Y-84995698D01*
X89617337Y-84937239D01*
X89744352Y-84852370D01*
X89852370Y-84744352D01*
X89937239Y-84617337D01*
X89995698Y-84476205D01*
X90025500Y-84326380D01*
X90025500Y-84173620D01*
X89995698Y-84023795D01*
X89937239Y-83882663D01*
X89937238Y-83882662D01*
X89937235Y-83882656D01*
X89852370Y-83755648D01*
X89852367Y-83755644D01*
X89744355Y-83647632D01*
X89744351Y-83647629D01*
X89617343Y-83562764D01*
X89617334Y-83562759D01*
X89476205Y-83504302D01*
X89476197Y-83504300D01*
X89326384Y-83474500D01*
X89326380Y-83474500D01*
X77423620Y-83474500D01*
X77423615Y-83474500D01*
X77273802Y-83504300D01*
X77273794Y-83504302D01*
X77132665Y-83562759D01*
X77132656Y-83562764D01*
X77005648Y-83647629D01*
X77005644Y-83647632D01*
X76897632Y-83755644D01*
X76897629Y-83755648D01*
X76812764Y-83882656D01*
X76812759Y-83882665D01*
X76754302Y-84023794D01*
X76754300Y-84023802D01*
X76724500Y-84173615D01*
X63900500Y-84173615D01*
X63900500Y-78585303D01*
X68250000Y-78585303D01*
X68250000Y-78814692D01*
X68250001Y-78814708D01*
X68279942Y-79042135D01*
X68339318Y-79263728D01*
X68427102Y-79475657D01*
X68427106Y-79475667D01*
X68541799Y-79674322D01*
X68541805Y-79674329D01*
X68598381Y-79748062D01*
X69322412Y-79024030D01*
X69335349Y-79055261D01*
X69417428Y-79178102D01*
X69521896Y-79282570D01*
X69644737Y-79364649D01*
X69675965Y-79377584D01*
X68951934Y-80101615D01*
X68951934Y-80101616D01*
X69025666Y-80158192D01*
X69224330Y-80272891D01*
X69224340Y-80272895D01*
X69436269Y-80360679D01*
X69657862Y-80420055D01*
X69885289Y-80449996D01*
X69885306Y-80449998D01*
X70114694Y-80449998D01*
X70114710Y-80449996D01*
X70342137Y-80420055D01*
X70563730Y-80360679D01*
X70775659Y-80272895D01*
X70775668Y-80272891D01*
X70974327Y-80158195D01*
X70974334Y-80158190D01*
X71048064Y-80101615D01*
X70324033Y-79377584D01*
X70355263Y-79364649D01*
X70478104Y-79282570D01*
X70582572Y-79178102D01*
X70664651Y-79055261D01*
X70677586Y-79024031D01*
X71401617Y-79748062D01*
X71458192Y-79674332D01*
X71458200Y-79674320D01*
X71572893Y-79475667D01*
X71572897Y-79475657D01*
X71660681Y-79263728D01*
X71720057Y-79042135D01*
X71749998Y-78814708D01*
X71750000Y-78814692D01*
X71750000Y-78692155D01*
X94700000Y-78692155D01*
X94700000Y-79290000D01*
X95566990Y-79290000D01*
X95534076Y-79347008D01*
X95500001Y-79474174D01*
X95500001Y-79605826D01*
X95534076Y-79732992D01*
X95566990Y-79790000D01*
X94700000Y-79790000D01*
X94700000Y-80387844D01*
X94706401Y-80447372D01*
X94706403Y-80447379D01*
X94756645Y-80582086D01*
X94756649Y-80582093D01*
X94842809Y-80697187D01*
X94842812Y-80697190D01*
X94957906Y-80783350D01*
X94957913Y-80783354D01*
X95092620Y-80833596D01*
X95092627Y-80833598D01*
X95152155Y-80839999D01*
X95152172Y-80840000D01*
X95750000Y-80840000D01*
X95750000Y-79973010D01*
X95807008Y-80005924D01*
X95934174Y-80039999D01*
X96065826Y-80039999D01*
X96192992Y-80005924D01*
X96250000Y-79973010D01*
X96250000Y-80840000D01*
X96847828Y-80840000D01*
X96847844Y-80839999D01*
X96907372Y-80833598D01*
X96907379Y-80833596D01*
X97042086Y-80783354D01*
X97042093Y-80783350D01*
X97157187Y-80697190D01*
X97157190Y-80697187D01*
X97243350Y-80582093D01*
X97243354Y-80582086D01*
X97293596Y-80447379D01*
X97293598Y-80447372D01*
X97299999Y-80387844D01*
X97300000Y-80387827D01*
X97300000Y-79790000D01*
X96433010Y-79790000D01*
X96465924Y-79732992D01*
X96499999Y-79605826D01*
X96499999Y-79474174D01*
X96465924Y-79347008D01*
X96433010Y-79290000D01*
X97300000Y-79290000D01*
X97300000Y-78692172D01*
X97299999Y-78692155D01*
X138400000Y-78692155D01*
X138400000Y-79290000D01*
X139266990Y-79290000D01*
X139234076Y-79347008D01*
X139200001Y-79474174D01*
X139200001Y-79605826D01*
X139234076Y-79732992D01*
X139266990Y-79790000D01*
X138400000Y-79790000D01*
X138400000Y-80387844D01*
X138406401Y-80447372D01*
X138406403Y-80447379D01*
X138456645Y-80582086D01*
X138456649Y-80582093D01*
X138542809Y-80697187D01*
X138542812Y-80697190D01*
X138657906Y-80783350D01*
X138657913Y-80783354D01*
X138792620Y-80833596D01*
X138792627Y-80833598D01*
X138852155Y-80839999D01*
X138852172Y-80840000D01*
X139450000Y-80840000D01*
X139450000Y-79973010D01*
X139507008Y-80005924D01*
X139634174Y-80039999D01*
X139765826Y-80039999D01*
X139892992Y-80005924D01*
X139950000Y-79973010D01*
X139950000Y-80840000D01*
X140547828Y-80840000D01*
X140547844Y-80839999D01*
X140607372Y-80833598D01*
X140607379Y-80833596D01*
X140742086Y-80783354D01*
X140742093Y-80783350D01*
X140857187Y-80697190D01*
X140857190Y-80697187D01*
X140943350Y-80582093D01*
X140943354Y-80582086D01*
X140993596Y-80447379D01*
X140993598Y-80447372D01*
X140999999Y-80387844D01*
X141000000Y-80387827D01*
X141000000Y-79790000D01*
X140133010Y-79790000D01*
X140165924Y-79732992D01*
X140199999Y-79605826D01*
X140199999Y-79474174D01*
X140165924Y-79347008D01*
X140133010Y-79290000D01*
X141000000Y-79290000D01*
X141000000Y-78692172D01*
X140999999Y-78692155D01*
X140993598Y-78632627D01*
X140993596Y-78632620D01*
X140943354Y-78497913D01*
X140943350Y-78497906D01*
X140857190Y-78382812D01*
X140857187Y-78382809D01*
X140742093Y-78296649D01*
X140742086Y-78296645D01*
X140607379Y-78246403D01*
X140607372Y-78246401D01*
X140547844Y-78240000D01*
X139950000Y-78240000D01*
X139950000Y-79106989D01*
X139892992Y-79074076D01*
X139765826Y-79040001D01*
X139634174Y-79040001D01*
X139507008Y-79074076D01*
X139450000Y-79106989D01*
X139450000Y-78240000D01*
X138852155Y-78240000D01*
X138792627Y-78246401D01*
X138792620Y-78246403D01*
X138657913Y-78296645D01*
X138657906Y-78296649D01*
X138542812Y-78382809D01*
X138542809Y-78382812D01*
X138456649Y-78497906D01*
X138456645Y-78497913D01*
X138406403Y-78632620D01*
X138406401Y-78632627D01*
X138400000Y-78692155D01*
X97299999Y-78692155D01*
X97293598Y-78632627D01*
X97293596Y-78632620D01*
X97243354Y-78497913D01*
X97243350Y-78497906D01*
X97157190Y-78382812D01*
X97157187Y-78382809D01*
X97042093Y-78296649D01*
X97042086Y-78296645D01*
X96907379Y-78246403D01*
X96907372Y-78246401D01*
X96847844Y-78240000D01*
X96250000Y-78240000D01*
X96250000Y-79106989D01*
X96192992Y-79074076D01*
X96065826Y-79040001D01*
X95934174Y-79040001D01*
X95807008Y-79074076D01*
X95750000Y-79106989D01*
X95750000Y-78240000D01*
X95152155Y-78240000D01*
X95092627Y-78246401D01*
X95092620Y-78246403D01*
X94957913Y-78296645D01*
X94957906Y-78296649D01*
X94842812Y-78382809D01*
X94842809Y-78382812D01*
X94756649Y-78497906D01*
X94756645Y-78497913D01*
X94706403Y-78632620D01*
X94706401Y-78632627D01*
X94700000Y-78692155D01*
X71750000Y-78692155D01*
X71750000Y-78585303D01*
X71749998Y-78585287D01*
X71720057Y-78357860D01*
X71660681Y-78136267D01*
X71572897Y-77924338D01*
X71572893Y-77924328D01*
X71458194Y-77725664D01*
X71401618Y-77651932D01*
X71401617Y-77651932D01*
X70677586Y-78375963D01*
X70664651Y-78344735D01*
X70582572Y-78221894D01*
X70478104Y-78117426D01*
X70355263Y-78035347D01*
X70324032Y-78022410D01*
X71048064Y-77298379D01*
X71048064Y-77298378D01*
X70974331Y-77241803D01*
X70974324Y-77241797D01*
X70775669Y-77127104D01*
X70775659Y-77127100D01*
X70563730Y-77039316D01*
X70342137Y-76979940D01*
X70114710Y-76949999D01*
X70114694Y-76949998D01*
X69885306Y-76949998D01*
X69885289Y-76949999D01*
X69657862Y-76979940D01*
X69436269Y-77039316D01*
X69224340Y-77127100D01*
X69224330Y-77127104D01*
X69025673Y-77241799D01*
X69025659Y-77241808D01*
X68951934Y-77298378D01*
X69675966Y-78022411D01*
X69644737Y-78035347D01*
X69521896Y-78117426D01*
X69417428Y-78221894D01*
X69335349Y-78344735D01*
X69322413Y-78375964D01*
X68598380Y-77651932D01*
X68541810Y-77725657D01*
X68541801Y-77725671D01*
X68427106Y-77924328D01*
X68427102Y-77924338D01*
X68339318Y-78136267D01*
X68279942Y-78357860D01*
X68250001Y-78585287D01*
X68250000Y-78585303D01*
X63900500Y-78585303D01*
X63900500Y-76671465D01*
X63920185Y-76604426D01*
X63936814Y-76583789D01*
X64377653Y-76142950D01*
X77062063Y-76142950D01*
X77062063Y-76331923D01*
X77091622Y-76518555D01*
X77150017Y-76698273D01*
X77235112Y-76865280D01*
X77235803Y-76866636D01*
X77346873Y-77019510D01*
X77480490Y-77153127D01*
X77633364Y-77264197D01*
X77700448Y-77298378D01*
X77801726Y-77349982D01*
X77801728Y-77349982D01*
X77801731Y-77349984D01*
X77898060Y-77381283D01*
X77981444Y-77408377D01*
X78168077Y-77437937D01*
X78168082Y-77437937D01*
X78357049Y-77437937D01*
X78543681Y-77408377D01*
X78723395Y-77349984D01*
X78891762Y-77264197D01*
X79044636Y-77153127D01*
X79178253Y-77019510D01*
X79289323Y-76866636D01*
X79375110Y-76698269D01*
X79433503Y-76518555D01*
X79463063Y-76331923D01*
X79463063Y-76142950D01*
X79433503Y-75956318D01*
X79390665Y-75824478D01*
X79375110Y-75776605D01*
X79375108Y-75776602D01*
X79375108Y-75776600D01*
X79289322Y-75608237D01*
X79178253Y-75455364D01*
X79044636Y-75321747D01*
X78891762Y-75210677D01*
X78723399Y-75124891D01*
X78543681Y-75066496D01*
X78357049Y-75036937D01*
X78357044Y-75036937D01*
X78168082Y-75036937D01*
X78168077Y-75036937D01*
X77981444Y-75066496D01*
X77801726Y-75124891D01*
X77633363Y-75210677D01*
X77606962Y-75229859D01*
X77480490Y-75321747D01*
X77480488Y-75321749D01*
X77480487Y-75321749D01*
X77346875Y-75455361D01*
X77346875Y-75455362D01*
X77346873Y-75455364D01*
X77318881Y-75493892D01*
X77235803Y-75608237D01*
X77150017Y-75776600D01*
X77091622Y-75956318D01*
X77062063Y-76142950D01*
X64377653Y-76142950D01*
X67030508Y-73490095D01*
X68349500Y-73490095D01*
X68349500Y-73749900D01*
X68390140Y-74006491D01*
X68470422Y-74253574D01*
X68588368Y-74485052D01*
X68678754Y-74609458D01*
X68741069Y-74695227D01*
X68924771Y-74878929D01*
X69134949Y-75031632D01*
X69282445Y-75106785D01*
X69366423Y-75149575D01*
X69366425Y-75149575D01*
X69366428Y-75149577D01*
X69613507Y-75229858D01*
X69745706Y-75250795D01*
X69870098Y-75270498D01*
X69870103Y-75270498D01*
X70129902Y-75270498D01*
X70243298Y-75252537D01*
X70386493Y-75229858D01*
X70633572Y-75149577D01*
X70865051Y-75031632D01*
X71075229Y-74878929D01*
X71258931Y-74695227D01*
X71411634Y-74485049D01*
X71529579Y-74253570D01*
X71609860Y-74006491D01*
X71617841Y-73956102D01*
X71650500Y-73749900D01*
X71650500Y-73512563D01*
X79460828Y-73512563D01*
X80304427Y-73512563D01*
X80271513Y-73569571D01*
X80237438Y-73696737D01*
X80237438Y-73828389D01*
X80271513Y-73955555D01*
X80304427Y-74012563D01*
X79460828Y-74012563D01*
X79469446Y-74066976D01*
X79532681Y-74261592D01*
X79625577Y-74443912D01*
X79745854Y-74609457D01*
X79745854Y-74609458D01*
X79890541Y-74754145D01*
X80056087Y-74874422D01*
X80238405Y-74967317D01*
X80433015Y-75030551D01*
X80487437Y-75039170D01*
X80487437Y-74195573D01*
X80544445Y-74228487D01*
X80671611Y-74262562D01*
X80803263Y-74262562D01*
X80930429Y-74228487D01*
X80987437Y-74195573D01*
X80987437Y-75039169D01*
X81041858Y-75030551D01*
X81236468Y-74967317D01*
X81418786Y-74874422D01*
X81584331Y-74754145D01*
X81584332Y-74754145D01*
X81729019Y-74609458D01*
X81729019Y-74609457D01*
X81849296Y-74443912D01*
X81942192Y-74261592D01*
X82005427Y-74066976D01*
X82014046Y-74012563D01*
X81170447Y-74012563D01*
X81203361Y-73955555D01*
X81237436Y-73828389D01*
X81237436Y-73696737D01*
X81203361Y-73569571D01*
X81170447Y-73512563D01*
X82014046Y-73512563D01*
X82005427Y-73458149D01*
X81942192Y-73263533D01*
X81849296Y-73081213D01*
X81729019Y-72915668D01*
X81729019Y-72915667D01*
X81584332Y-72770980D01*
X81418786Y-72650703D01*
X81236466Y-72557807D01*
X81041850Y-72494572D01*
X80987437Y-72485953D01*
X80987437Y-73329552D01*
X80930429Y-73296639D01*
X80803263Y-73262564D01*
X80671611Y-73262564D01*
X80544445Y-73296639D01*
X80487437Y-73329552D01*
X80487437Y-72485953D01*
X80433023Y-72494572D01*
X80238407Y-72557807D01*
X80056087Y-72650703D01*
X79890542Y-72770980D01*
X79890541Y-72770980D01*
X79745854Y-72915667D01*
X79745854Y-72915668D01*
X79625577Y-73081213D01*
X79532681Y-73263533D01*
X79469446Y-73458149D01*
X79460828Y-73512563D01*
X71650500Y-73512563D01*
X71650500Y-73490095D01*
X71619859Y-73296639D01*
X71609860Y-73233505D01*
X71529579Y-72986426D01*
X71529577Y-72986423D01*
X71529577Y-72986421D01*
X71486787Y-72902443D01*
X71411634Y-72754947D01*
X71258931Y-72544769D01*
X71075229Y-72361067D01*
X70865051Y-72208364D01*
X70792764Y-72171532D01*
X70633576Y-72090420D01*
X70386493Y-72010138D01*
X70129902Y-71969498D01*
X70129897Y-71969498D01*
X69870103Y-71969498D01*
X69870098Y-71969498D01*
X69613506Y-72010138D01*
X69366423Y-72090420D01*
X69134945Y-72208366D01*
X68924774Y-72361064D01*
X68924768Y-72361069D01*
X68741071Y-72544766D01*
X68741066Y-72544772D01*
X68588368Y-72754943D01*
X68470422Y-72986421D01*
X68390140Y-73233504D01*
X68349500Y-73490095D01*
X67030508Y-73490095D01*
X70342116Y-70178486D01*
X70391474Y-70148239D01*
X70633572Y-70069577D01*
X70865051Y-69951632D01*
X71075229Y-69798929D01*
X71258931Y-69615227D01*
X71411634Y-69405049D01*
X71529579Y-69173570D01*
X71609860Y-68926491D01*
X71632539Y-68783296D01*
X71650500Y-68669900D01*
X71650500Y-68506106D01*
X92294500Y-68506106D01*
X92294500Y-75493892D01*
X92294988Y-75513810D01*
X92295584Y-75525951D01*
X92297050Y-75545815D01*
X92314472Y-75722699D01*
X92320306Y-75762036D01*
X92320307Y-75762041D01*
X92325041Y-75785845D01*
X92325050Y-75785884D01*
X92334714Y-75824469D01*
X92334715Y-75824473D01*
X92384534Y-75988706D01*
X92397950Y-76026198D01*
X92407248Y-76048645D01*
X92424248Y-76084585D01*
X92424267Y-76084623D01*
X92505141Y-76235928D01*
X92505143Y-76235931D01*
X92505153Y-76235949D01*
X92525352Y-76269650D01*
X92525600Y-76270064D01*
X92525615Y-76270088D01*
X92539112Y-76290288D01*
X92562815Y-76322249D01*
X92562827Y-76322265D01*
X92671693Y-76454918D01*
X92698405Y-76484390D01*
X92715608Y-76501593D01*
X92745080Y-76528305D01*
X92837833Y-76604426D01*
X92877742Y-76637178D01*
X92909708Y-76660885D01*
X92929920Y-76674390D01*
X92964050Y-76694846D01*
X92964067Y-76694855D01*
X92964070Y-76694857D01*
X92970461Y-76698273D01*
X93115392Y-76775740D01*
X93115410Y-76775748D01*
X93115413Y-76775750D01*
X93151353Y-76792750D01*
X93163641Y-76797840D01*
X93173814Y-76802054D01*
X93211292Y-76815464D01*
X93375515Y-76865280D01*
X93414119Y-76874949D01*
X93437960Y-76879691D01*
X93437973Y-76879693D01*
X93437971Y-76879693D01*
X93449850Y-76881454D01*
X93477318Y-76885529D01*
X93654192Y-76902950D01*
X93674045Y-76904415D01*
X93686199Y-76905012D01*
X93706093Y-76905500D01*
X93706108Y-76905500D01*
X143693892Y-76905500D01*
X143693907Y-76905500D01*
X143713801Y-76905012D01*
X143725955Y-76904415D01*
X143745808Y-76902950D01*
X143922681Y-76885529D01*
X143962039Y-76879691D01*
X143985880Y-76874949D01*
X144024484Y-76865280D01*
X144188707Y-76815464D01*
X144226185Y-76802054D01*
X144248643Y-76792751D01*
X144284607Y-76775740D01*
X144435949Y-76694846D01*
X144470079Y-76674390D01*
X144490291Y-76660885D01*
X144522257Y-76637178D01*
X144654913Y-76528310D01*
X144684398Y-76501586D01*
X144701586Y-76484398D01*
X144728310Y-76454913D01*
X144837178Y-76322257D01*
X144860885Y-76290291D01*
X144874390Y-76270079D01*
X144894846Y-76235949D01*
X144975740Y-76084607D01*
X144992751Y-76048643D01*
X145002054Y-76026185D01*
X145015464Y-75988707D01*
X145065280Y-75824484D01*
X145074949Y-75785880D01*
X145079691Y-75762039D01*
X145085529Y-75722681D01*
X145102950Y-75545808D01*
X145104415Y-75525955D01*
X145105012Y-75513801D01*
X145105500Y-75493907D01*
X145105500Y-68506092D01*
X145105012Y-68486198D01*
X145104415Y-68474044D01*
X145102950Y-68454191D01*
X145085529Y-68277318D01*
X145079691Y-68237960D01*
X145074949Y-68214119D01*
X145065280Y-68175515D01*
X145015464Y-68011292D01*
X145002054Y-67973814D01*
X144992760Y-67951378D01*
X144992750Y-67951353D01*
X144975750Y-67915413D01*
X144975748Y-67915410D01*
X144975740Y-67915392D01*
X144894846Y-67764050D01*
X144874390Y-67729920D01*
X144860885Y-67709708D01*
X144837178Y-67677742D01*
X144837175Y-67677738D01*
X144837171Y-67677733D01*
X144728305Y-67545080D01*
X144701600Y-67515616D01*
X144701595Y-67515611D01*
X144701586Y-67515601D01*
X144684398Y-67498413D01*
X144684397Y-67498412D01*
X144684392Y-67498407D01*
X144654924Y-67471699D01*
X144654916Y-67471692D01*
X144522263Y-67362827D01*
X144522258Y-67362823D01*
X144522254Y-67362820D01*
X144508525Y-67352638D01*
X144490306Y-67339125D01*
X144490280Y-67339107D01*
X144470102Y-67325625D01*
X144470083Y-67325612D01*
X144470075Y-67325607D01*
X144470046Y-67325589D01*
X144435943Y-67305149D01*
X144284630Y-67224271D01*
X144284617Y-67224264D01*
X144284603Y-67224257D01*
X144248646Y-67207250D01*
X144248639Y-67207247D01*
X144226200Y-67197951D01*
X144188709Y-67184536D01*
X144024476Y-67134717D01*
X143985863Y-67125045D01*
X143962041Y-67120307D01*
X143962036Y-67120306D01*
X143922699Y-67114472D01*
X143745815Y-67097050D01*
X143725951Y-67095584D01*
X143713810Y-67094988D01*
X143706340Y-67094805D01*
X143693907Y-67094500D01*
X143693892Y-67094500D01*
X141116191Y-67094500D01*
X141049152Y-67074815D01*
X141003397Y-67022011D01*
X140993453Y-66952853D01*
X141022478Y-66889297D01*
X141037526Y-66874647D01*
X141052568Y-66862302D01*
X141154913Y-66778310D01*
X141184398Y-66751586D01*
X141201586Y-66734398D01*
X141228310Y-66704913D01*
X141337178Y-66572257D01*
X141360885Y-66540291D01*
X141374390Y-66520079D01*
X141394846Y-66485949D01*
X141475740Y-66334607D01*
X141492751Y-66298643D01*
X141502054Y-66276185D01*
X141515464Y-66238707D01*
X141565280Y-66074484D01*
X141574949Y-66035880D01*
X141579691Y-66012039D01*
X141585529Y-65972681D01*
X141602950Y-65795808D01*
X141604415Y-65775955D01*
X141605012Y-65763801D01*
X141605500Y-65743907D01*
X141605500Y-56006091D01*
X141605012Y-55986197D01*
X141604415Y-55974043D01*
X141602950Y-55954190D01*
X141585529Y-55777317D01*
X141579691Y-55737959D01*
X141574949Y-55714118D01*
X141565280Y-55675514D01*
X141515464Y-55511291D01*
X141502054Y-55473813D01*
X141492751Y-55451355D01*
X141475740Y-55415391D01*
X141394846Y-55264049D01*
X141374390Y-55229919D01*
X141360885Y-55209707D01*
X141337178Y-55177741D01*
X141228310Y-55045085D01*
X141228307Y-55045082D01*
X141228305Y-55045079D01*
X141201600Y-55015615D01*
X141201595Y-55015610D01*
X141201586Y-55015600D01*
X141184398Y-54998412D01*
X141184397Y-54998411D01*
X141184392Y-54998406D01*
X141154924Y-54971698D01*
X141154916Y-54971691D01*
X141082960Y-54912639D01*
X141082959Y-54912638D01*
X141040808Y-54878046D01*
X141022259Y-54862823D01*
X141022250Y-54862816D01*
X141022245Y-54862812D01*
X140990294Y-54839116D01*
X140990270Y-54839099D01*
X140970104Y-54825625D01*
X140970083Y-54825612D01*
X140970082Y-54825611D01*
X140961153Y-54820259D01*
X141799500Y-54820259D01*
X141799500Y-55179740D01*
X141839746Y-55536935D01*
X141839748Y-55536951D01*
X141919737Y-55887407D01*
X141919741Y-55887419D01*
X142038465Y-56226711D01*
X142194432Y-56550579D01*
X142194434Y-56550582D01*
X142385685Y-56854956D01*
X142552891Y-57064626D01*
X142597902Y-57121069D01*
X142609812Y-57136003D01*
X142863997Y-57390188D01*
X143145044Y-57614315D01*
X143449418Y-57805566D01*
X143773292Y-57961536D01*
X144028119Y-58050703D01*
X144112580Y-58080258D01*
X144112592Y-58080262D01*
X144463052Y-58160252D01*
X144820260Y-58200499D01*
X144820261Y-58200500D01*
X144820264Y-58200500D01*
X145179739Y-58200500D01*
X145179739Y-58200499D01*
X145536948Y-58160252D01*
X145887408Y-58080262D01*
X146226708Y-57961536D01*
X146550582Y-57805566D01*
X146854956Y-57614315D01*
X147136003Y-57390188D01*
X147390188Y-57136003D01*
X147614315Y-56854956D01*
X147805566Y-56550582D01*
X147961536Y-56226708D01*
X148080262Y-55887408D01*
X148160252Y-55536948D01*
X148200500Y-55179736D01*
X148200500Y-54820264D01*
X148160252Y-54463052D01*
X148080262Y-54112592D01*
X147961536Y-53773292D01*
X147805566Y-53449418D01*
X147614315Y-53145044D01*
X147390188Y-52863997D01*
X147136003Y-52609812D01*
X146854956Y-52385685D01*
X146550582Y-52194434D01*
X146550579Y-52194432D01*
X146226711Y-52038465D01*
X145887419Y-51919741D01*
X145887407Y-51919737D01*
X145536951Y-51839748D01*
X145536935Y-51839746D01*
X145179740Y-51799500D01*
X145179736Y-51799500D01*
X144820264Y-51799500D01*
X144820259Y-51799500D01*
X144463064Y-51839746D01*
X144463048Y-51839748D01*
X144112592Y-51919737D01*
X144112580Y-51919741D01*
X143773288Y-52038465D01*
X143449420Y-52194432D01*
X143145045Y-52385684D01*
X142863997Y-52609811D01*
X142609811Y-52863997D01*
X142385684Y-53145045D01*
X142194432Y-53449420D01*
X142038465Y-53773288D01*
X141919741Y-54112580D01*
X141919737Y-54112592D01*
X141839748Y-54463048D01*
X141839746Y-54463064D01*
X141799500Y-54820259D01*
X140961153Y-54820259D01*
X140946332Y-54811376D01*
X140935953Y-54805155D01*
X140935945Y-54805150D01*
X140784616Y-54724264D01*
X140784566Y-54724239D01*
X140748662Y-54707258D01*
X140748636Y-54707247D01*
X140748630Y-54707244D01*
X140726173Y-54697942D01*
X140717030Y-54694670D01*
X140688722Y-54684540D01*
X140596224Y-54656481D01*
X140524488Y-54634720D01*
X140485900Y-54625054D01*
X140485889Y-54625051D01*
X140485869Y-54625047D01*
X140462081Y-54620314D01*
X140462067Y-54620312D01*
X140422691Y-54614470D01*
X140245815Y-54597049D01*
X140225951Y-54595583D01*
X140213810Y-54594987D01*
X140206340Y-54594804D01*
X140193907Y-54594499D01*
X122888994Y-54594499D01*
X122888986Y-54594499D01*
X122802788Y-54603767D01*
X122802773Y-54603770D01*
X122751295Y-54614970D01*
X122751273Y-54614976D01*
X122679641Y-54637687D01*
X122679641Y-54637688D01*
X122571940Y-54704750D01*
X122564286Y-54711382D01*
X122500728Y-54740404D01*
X122463690Y-54740138D01*
X122396524Y-54729500D01*
X120283482Y-54729500D01*
X120202519Y-54742323D01*
X120189696Y-54744354D01*
X120076658Y-54801950D01*
X120076657Y-54801951D01*
X120076652Y-54801954D01*
X119986954Y-54891652D01*
X119986951Y-54891657D01*
X119929352Y-55004698D01*
X119914500Y-55098475D01*
X119914500Y-57401517D01*
X119925292Y-57469657D01*
X119929354Y-57495304D01*
X119986950Y-57608342D01*
X119986952Y-57608344D01*
X119986954Y-57608347D01*
X120076652Y-57698045D01*
X120076654Y-57698046D01*
X120076658Y-57698050D01*
X120189696Y-57755646D01*
X120189697Y-57755646D01*
X120189699Y-57755647D01*
X120190878Y-57755834D01*
X120192194Y-57756458D01*
X120198980Y-57758663D01*
X120198695Y-57759539D01*
X120254013Y-57785763D01*
X120290945Y-57845074D01*
X120293809Y-57889505D01*
X120294817Y-57889578D01*
X120294501Y-57893996D01*
X120294501Y-58792056D01*
X120274816Y-58859095D01*
X120222012Y-58904850D01*
X120172030Y-58914022D01*
X119522975Y-59563076D01*
X119431574Y-59426285D01*
X119306215Y-59300926D01*
X119169422Y-59209523D01*
X119816223Y-58562721D01*
X119734672Y-58500145D01*
X119734671Y-58500144D01*
X119530328Y-58382165D01*
X119530319Y-58382160D01*
X119312336Y-58291870D01*
X119312338Y-58291870D01*
X119084414Y-58230799D01*
X118850485Y-58200000D01*
X118614514Y-58200000D01*
X118380585Y-58230799D01*
X118152662Y-58291870D01*
X117934680Y-58382160D01*
X117934671Y-58382165D01*
X117730328Y-58500144D01*
X117730318Y-58500150D01*
X117648775Y-58562720D01*
X117648775Y-58562721D01*
X118295577Y-59209523D01*
X118158785Y-59300926D01*
X118033426Y-59426285D01*
X117942023Y-59563077D01*
X117295221Y-58916275D01*
X117239157Y-58919950D01*
X117238968Y-58917068D01*
X117211854Y-58920967D01*
X117207003Y-58918751D01*
X117201680Y-58919068D01*
X117175554Y-58904389D01*
X117148298Y-58891942D01*
X117145415Y-58887456D01*
X117140766Y-58884844D01*
X117126724Y-58858372D01*
X117110524Y-58833164D01*
X117109472Y-58825848D01*
X117108025Y-58823120D01*
X117105501Y-58798229D01*
X117105501Y-57893861D01*
X117125186Y-57826822D01*
X117177990Y-57781067D01*
X117211869Y-57772291D01*
X117211706Y-57771261D01*
X117216517Y-57770499D01*
X117216518Y-57770499D01*
X117310304Y-57755646D01*
X117423342Y-57698050D01*
X117513050Y-57608342D01*
X117570646Y-57495304D01*
X117570646Y-57495302D01*
X117570647Y-57495301D01*
X117585499Y-57401524D01*
X117585500Y-57401519D01*
X117585499Y-55098482D01*
X117570646Y-55004696D01*
X117513050Y-54891658D01*
X117513046Y-54891654D01*
X117513045Y-54891652D01*
X117423347Y-54801954D01*
X117423344Y-54801952D01*
X117423342Y-54801950D01*
X117346517Y-54762805D01*
X117310301Y-54744352D01*
X117216524Y-54729500D01*
X115103481Y-54729500D01*
X115037036Y-54740024D01*
X114967743Y-54731068D01*
X114935109Y-54710095D01*
X114906923Y-54684958D01*
X114906921Y-54684957D01*
X114906920Y-54684956D01*
X114792287Y-54630611D01*
X114725247Y-54610926D01*
X114725239Y-54610924D01*
X114611000Y-54594500D01*
X96706093Y-54594500D01*
X96692528Y-54594832D01*
X96686192Y-54594988D01*
X96674032Y-54595585D01*
X96654200Y-54597048D01*
X96477308Y-54614470D01*
X96477304Y-54614470D01*
X96437950Y-54620309D01*
X96437947Y-54620309D01*
X96414114Y-54625050D01*
X96375508Y-54634721D01*
X96211292Y-54684535D01*
X96211288Y-54684536D01*
X96211286Y-54684537D01*
X96205284Y-54686684D01*
X96173825Y-54697941D01*
X96173770Y-54697962D01*
X96151378Y-54707239D01*
X96151355Y-54707248D01*
X96115417Y-54724246D01*
X96115414Y-54724248D01*
X96115406Y-54724251D01*
X96115398Y-54724256D01*
X96027311Y-54771339D01*
X95964047Y-54805154D01*
X95929928Y-54825603D01*
X95929893Y-54825625D01*
X95909745Y-54839086D01*
X95909713Y-54839109D01*
X95877762Y-54862805D01*
X95877735Y-54862827D01*
X95745081Y-54971693D01*
X95745069Y-54971703D01*
X95715590Y-54998421D01*
X95698421Y-55015590D01*
X95671703Y-55045069D01*
X95671693Y-55045081D01*
X95562827Y-55177735D01*
X95562805Y-55177762D01*
X95539109Y-55209713D01*
X95539086Y-55209745D01*
X95525625Y-55229893D01*
X95525603Y-55229928D01*
X95505154Y-55264047D01*
X95471339Y-55327311D01*
X95424256Y-55415398D01*
X95424251Y-55415406D01*
X95424248Y-55415414D01*
X95424246Y-55415417D01*
X95407248Y-55451355D01*
X95407239Y-55451378D01*
X95397962Y-55473770D01*
X95397941Y-55473825D01*
X95384535Y-55511292D01*
X95334721Y-55675508D01*
X95325050Y-55714117D01*
X95320307Y-55737958D01*
X95314471Y-55777304D01*
X95314469Y-55777324D01*
X95297050Y-55954184D01*
X95295584Y-55974047D01*
X95294988Y-55986188D01*
X95294500Y-56006106D01*
X95294500Y-65743892D01*
X95294988Y-65763810D01*
X95295584Y-65775951D01*
X95297050Y-65795815D01*
X95314472Y-65972699D01*
X95320306Y-66012036D01*
X95320307Y-66012041D01*
X95325041Y-66035845D01*
X95325050Y-66035884D01*
X95334714Y-66074469D01*
X95334715Y-66074473D01*
X95384534Y-66238706D01*
X95397950Y-66276198D01*
X95407248Y-66298645D01*
X95424248Y-66334585D01*
X95424267Y-66334623D01*
X95505141Y-66485928D01*
X95505143Y-66485931D01*
X95505153Y-66485949D01*
X95525352Y-66519650D01*
X95525600Y-66520064D01*
X95525615Y-66520088D01*
X95539112Y-66540288D01*
X95562815Y-66572249D01*
X95562827Y-66572265D01*
X95671693Y-66704918D01*
X95698405Y-66734390D01*
X95715608Y-66751593D01*
X95745080Y-66778305D01*
X95745086Y-66778310D01*
X95847431Y-66862302D01*
X95862473Y-66874647D01*
X95901807Y-66932392D01*
X95903678Y-67002237D01*
X95867491Y-67062005D01*
X95804735Y-67092721D01*
X95783808Y-67094500D01*
X93706093Y-67094500D01*
X93692528Y-67094832D01*
X93686192Y-67094988D01*
X93674032Y-67095585D01*
X93654200Y-67097048D01*
X93477308Y-67114470D01*
X93477304Y-67114470D01*
X93437950Y-67120309D01*
X93437947Y-67120309D01*
X93414114Y-67125050D01*
X93375508Y-67134721D01*
X93211292Y-67184535D01*
X93173825Y-67197941D01*
X93173770Y-67197962D01*
X93151378Y-67207239D01*
X93151355Y-67207248D01*
X93115417Y-67224246D01*
X93115414Y-67224248D01*
X93115406Y-67224251D01*
X93115398Y-67224256D01*
X93027311Y-67271339D01*
X92964047Y-67305154D01*
X92929928Y-67325603D01*
X92929893Y-67325625D01*
X92909745Y-67339086D01*
X92909713Y-67339109D01*
X92877762Y-67362805D01*
X92877735Y-67362827D01*
X92745081Y-67471693D01*
X92745069Y-67471703D01*
X92715590Y-67498421D01*
X92698421Y-67515590D01*
X92671703Y-67545069D01*
X92671693Y-67545081D01*
X92562827Y-67677735D01*
X92562805Y-67677762D01*
X92539109Y-67709713D01*
X92539086Y-67709745D01*
X92525625Y-67729893D01*
X92525603Y-67729928D01*
X92505154Y-67764047D01*
X92505142Y-67764070D01*
X92424256Y-67915398D01*
X92424251Y-67915406D01*
X92424248Y-67915414D01*
X92424246Y-67915417D01*
X92407248Y-67951355D01*
X92407239Y-67951378D01*
X92397962Y-67973770D01*
X92397941Y-67973825D01*
X92384535Y-68011292D01*
X92334721Y-68175508D01*
X92334718Y-68175520D01*
X92334717Y-68175524D01*
X92325049Y-68214121D01*
X92323482Y-68221994D01*
X92320307Y-68237958D01*
X92314471Y-68277304D01*
X92314469Y-68277324D01*
X92297050Y-68454184D01*
X92295584Y-68474047D01*
X92294988Y-68486188D01*
X92294500Y-68506106D01*
X71650500Y-68506106D01*
X71650500Y-68410095D01*
X71623236Y-68237958D01*
X71609860Y-68153505D01*
X71529579Y-67906426D01*
X71529577Y-67906423D01*
X71529577Y-67906421D01*
X71486787Y-67822443D01*
X71411634Y-67674947D01*
X71258931Y-67464769D01*
X71075229Y-67281067D01*
X70997024Y-67224248D01*
X70865054Y-67128366D01*
X70865053Y-67128365D01*
X70865051Y-67128364D01*
X70759956Y-67074815D01*
X70633576Y-67010420D01*
X70386493Y-66930138D01*
X70129902Y-66889498D01*
X70129897Y-66889498D01*
X69870103Y-66889498D01*
X69870098Y-66889498D01*
X69613506Y-66930138D01*
X69366423Y-67010420D01*
X69134945Y-67128366D01*
X68924774Y-67281064D01*
X68924768Y-67281069D01*
X68741071Y-67464766D01*
X68741066Y-67464772D01*
X68588368Y-67674943D01*
X68470422Y-67906421D01*
X68391760Y-68148518D01*
X68361510Y-68197880D01*
X61587638Y-74971753D01*
X61431756Y-75127634D01*
X61431754Y-75127636D01*
X61371424Y-75210677D01*
X61357488Y-75229858D01*
X61329836Y-75267917D01*
X61302185Y-75305975D01*
X61202104Y-75502391D01*
X61202103Y-75502394D01*
X61133985Y-75712045D01*
X61099499Y-75929777D01*
X61099499Y-76155330D01*
X61099500Y-76155355D01*
X61099500Y-85688532D01*
X61079815Y-85755571D01*
X61063181Y-85776213D01*
X55431760Y-91407633D01*
X55406883Y-91441874D01*
X55406882Y-91441873D01*
X55302188Y-91585974D01*
X55202105Y-91782393D01*
X55202104Y-91782396D01*
X55133986Y-91992047D01*
X55133986Y-91992049D01*
X55101597Y-92196542D01*
X55099500Y-92209779D01*
X50500500Y-92209779D01*
X50500500Y-87129778D01*
X55099501Y-87129778D01*
X55099501Y-87350221D01*
X55133986Y-87567952D01*
X55202104Y-87777603D01*
X55202105Y-87777606D01*
X55302188Y-87974025D01*
X55431753Y-88152358D01*
X55431757Y-88152363D01*
X55587637Y-88308243D01*
X55587642Y-88308247D01*
X55743193Y-88421260D01*
X55765979Y-88437815D01*
X55894376Y-88503237D01*
X55962394Y-88537895D01*
X55962397Y-88537896D01*
X56067222Y-88571955D01*
X56172050Y-88606015D01*
X56389779Y-88640500D01*
X56389780Y-88640500D01*
X56610222Y-88640500D01*
X56610223Y-88640500D01*
X56827952Y-88606015D01*
X57037607Y-88537895D01*
X57234023Y-88437815D01*
X57412366Y-88308242D01*
X57568243Y-88152365D01*
X57697816Y-87974022D01*
X57797896Y-87777606D01*
X57866016Y-87567951D01*
X57900501Y-87350222D01*
X57900501Y-87129778D01*
X57866016Y-86912049D01*
X57797896Y-86702394D01*
X57797896Y-86702393D01*
X57763238Y-86634375D01*
X57697816Y-86505978D01*
X57642776Y-86430221D01*
X57568248Y-86327641D01*
X57568244Y-86327636D01*
X57412364Y-86171756D01*
X57412359Y-86171752D01*
X57234026Y-86042187D01*
X57234025Y-86042186D01*
X57234023Y-86042185D01*
X57171097Y-86010122D01*
X57037607Y-85942104D01*
X57037604Y-85942103D01*
X56827953Y-85873985D01*
X56719087Y-85856742D01*
X56610223Y-85839500D01*
X56389779Y-85839500D01*
X56317202Y-85850995D01*
X56172048Y-85873985D01*
X55962397Y-85942103D01*
X55962394Y-85942104D01*
X55765975Y-86042187D01*
X55587642Y-86171752D01*
X55587637Y-86171756D01*
X55431757Y-86327636D01*
X55431753Y-86327641D01*
X55302188Y-86505974D01*
X55202105Y-86702393D01*
X55202104Y-86702396D01*
X55133986Y-86912047D01*
X55099501Y-87129778D01*
X50500500Y-87129778D01*
X50500500Y-63330095D01*
X68349500Y-63330095D01*
X68349500Y-63589900D01*
X68390140Y-63846491D01*
X68470422Y-64093574D01*
X68551534Y-64252762D01*
X68588366Y-64325049D01*
X68741069Y-64535227D01*
X68924771Y-64718929D01*
X69134949Y-64871632D01*
X69282445Y-64946785D01*
X69366423Y-64989575D01*
X69366425Y-64989575D01*
X69366428Y-64989577D01*
X69613507Y-65069858D01*
X69745706Y-65090795D01*
X69870098Y-65110498D01*
X69870103Y-65110498D01*
X70129902Y-65110498D01*
X70243298Y-65092537D01*
X70386493Y-65069858D01*
X70633572Y-64989577D01*
X70865051Y-64871632D01*
X71075229Y-64718929D01*
X71258931Y-64535227D01*
X71411634Y-64325049D01*
X71529579Y-64093570D01*
X71609860Y-63846491D01*
X71632539Y-63703296D01*
X71650500Y-63589900D01*
X71650500Y-63330095D01*
X71628947Y-63194019D01*
X71609860Y-63073505D01*
X71529579Y-62826426D01*
X71529577Y-62826423D01*
X71529577Y-62826421D01*
X71486787Y-62742443D01*
X71411634Y-62594947D01*
X71258931Y-62384769D01*
X71075229Y-62201067D01*
X70865051Y-62048364D01*
X70792764Y-62011532D01*
X70633576Y-61930420D01*
X70386493Y-61850138D01*
X70129902Y-61809498D01*
X70129897Y-61809498D01*
X69870103Y-61809498D01*
X69870098Y-61809498D01*
X69613506Y-61850138D01*
X69366423Y-61930420D01*
X69134945Y-62048366D01*
X68924774Y-62201064D01*
X68924768Y-62201069D01*
X68741071Y-62384766D01*
X68741066Y-62384772D01*
X68588368Y-62594943D01*
X68470422Y-62826421D01*
X68390140Y-63073504D01*
X68349500Y-63330095D01*
X50500500Y-63330095D01*
X50500500Y-58250095D01*
X68349500Y-58250095D01*
X68349500Y-58509900D01*
X68390140Y-58766491D01*
X68470422Y-59013574D01*
X68532083Y-59134588D01*
X68588366Y-59245049D01*
X68741069Y-59455227D01*
X68924771Y-59638929D01*
X69134949Y-59791632D01*
X69282445Y-59866785D01*
X69366423Y-59909575D01*
X69366425Y-59909575D01*
X69366428Y-59909577D01*
X69613507Y-59989858D01*
X69745706Y-60010795D01*
X69870098Y-60030498D01*
X69870103Y-60030498D01*
X70129902Y-60030498D01*
X70243298Y-60012537D01*
X70386493Y-59989858D01*
X70633572Y-59909577D01*
X70865051Y-59791632D01*
X71075229Y-59638929D01*
X71258931Y-59455227D01*
X71411634Y-59245049D01*
X71529579Y-59013570D01*
X71609860Y-58766491D01*
X71632539Y-58623296D01*
X71650500Y-58509900D01*
X71650500Y-58250095D01*
X71628947Y-58114019D01*
X71609860Y-57993505D01*
X71529579Y-57746426D01*
X71529577Y-57746423D01*
X71529577Y-57746421D01*
X71486787Y-57662443D01*
X71411634Y-57514947D01*
X71258931Y-57304769D01*
X71075229Y-57121067D01*
X70865051Y-56968364D01*
X70792764Y-56931532D01*
X70633576Y-56850420D01*
X70386493Y-56770138D01*
X70129902Y-56729498D01*
X70129897Y-56729498D01*
X69870103Y-56729498D01*
X69870098Y-56729498D01*
X69613506Y-56770138D01*
X69366423Y-56850420D01*
X69134945Y-56968366D01*
X68924774Y-57121064D01*
X68924768Y-57121069D01*
X68741071Y-57304766D01*
X68741066Y-57304772D01*
X68588368Y-57514943D01*
X68470422Y-57746421D01*
X68390140Y-57993504D01*
X68349500Y-58250095D01*
X50500500Y-58250095D01*
X50500500Y-55002706D01*
X50500618Y-54997298D01*
X50505230Y-54891657D01*
X50508347Y-54820259D01*
X51799500Y-54820259D01*
X51799500Y-55179740D01*
X51839746Y-55536935D01*
X51839748Y-55536951D01*
X51919737Y-55887407D01*
X51919741Y-55887419D01*
X52038465Y-56226711D01*
X52194432Y-56550579D01*
X52194434Y-56550582D01*
X52385685Y-56854956D01*
X52552891Y-57064626D01*
X52597902Y-57121069D01*
X52609812Y-57136003D01*
X52863997Y-57390188D01*
X53145044Y-57614315D01*
X53449418Y-57805566D01*
X53773292Y-57961536D01*
X54028119Y-58050703D01*
X54112580Y-58080258D01*
X54112592Y-58080262D01*
X54463052Y-58160252D01*
X54820260Y-58200499D01*
X54820261Y-58200500D01*
X54820264Y-58200500D01*
X55179739Y-58200500D01*
X55179739Y-58200499D01*
X55536948Y-58160252D01*
X55887408Y-58080262D01*
X56226708Y-57961536D01*
X56550582Y-57805566D01*
X56854956Y-57614315D01*
X57136003Y-57390188D01*
X57390188Y-57136003D01*
X57614315Y-56854956D01*
X57805566Y-56550582D01*
X57961536Y-56226708D01*
X58080262Y-55887408D01*
X58160252Y-55536948D01*
X58200500Y-55179736D01*
X58200500Y-54820264D01*
X58160252Y-54463052D01*
X58080262Y-54112592D01*
X57961536Y-53773292D01*
X57805566Y-53449418D01*
X57614315Y-53145044D01*
X57390188Y-52863997D01*
X57136003Y-52609812D01*
X56854956Y-52385685D01*
X56550582Y-52194434D01*
X56550579Y-52194432D01*
X56407081Y-52125327D01*
X56226711Y-52038465D01*
X56169577Y-52018473D01*
X68349500Y-52018473D01*
X68349500Y-54581515D01*
X68357927Y-54634720D01*
X68364354Y-54675302D01*
X68421950Y-54788340D01*
X68421952Y-54788342D01*
X68421954Y-54788345D01*
X68511652Y-54878043D01*
X68511654Y-54878044D01*
X68511658Y-54878048D01*
X68624694Y-54935643D01*
X68624698Y-54935645D01*
X68718475Y-54950497D01*
X68718481Y-54950498D01*
X71281518Y-54950497D01*
X71375304Y-54935644D01*
X71488342Y-54878048D01*
X71578050Y-54788340D01*
X71635646Y-54675302D01*
X71635646Y-54675300D01*
X71635647Y-54675299D01*
X71648366Y-54594988D01*
X71650500Y-54581517D01*
X71650499Y-52018480D01*
X71635646Y-51924694D01*
X71578050Y-51811656D01*
X71578046Y-51811652D01*
X71578045Y-51811650D01*
X71488347Y-51721952D01*
X71488344Y-51721950D01*
X71488342Y-51721948D01*
X71411517Y-51682803D01*
X71375301Y-51664350D01*
X71281524Y-51649498D01*
X68718482Y-51649498D01*
X68637519Y-51662321D01*
X68624696Y-51664352D01*
X68511658Y-51721948D01*
X68511657Y-51721949D01*
X68511652Y-51721952D01*
X68421954Y-51811650D01*
X68421951Y-51811655D01*
X68421950Y-51811656D01*
X68418528Y-51818373D01*
X68364352Y-51924696D01*
X68349500Y-52018473D01*
X56169577Y-52018473D01*
X55887419Y-51919741D01*
X55887407Y-51919737D01*
X55536951Y-51839748D01*
X55536935Y-51839746D01*
X55179740Y-51799500D01*
X55179736Y-51799500D01*
X54820264Y-51799500D01*
X54820259Y-51799500D01*
X54463064Y-51839746D01*
X54463048Y-51839748D01*
X54112592Y-51919737D01*
X54112580Y-51919741D01*
X53773288Y-52038465D01*
X53449420Y-52194432D01*
X53145045Y-52385684D01*
X52863997Y-52609811D01*
X52609811Y-52863997D01*
X52385684Y-53145045D01*
X52194432Y-53449420D01*
X52038465Y-53773288D01*
X51919741Y-54112580D01*
X51919737Y-54112592D01*
X51839748Y-54463048D01*
X51839746Y-54463064D01*
X51799500Y-54820259D01*
X50508347Y-54820259D01*
X50517386Y-54613226D01*
X50518326Y-54602495D01*
X50568152Y-54224025D01*
X50570025Y-54213405D01*
X50652649Y-53840709D01*
X50655440Y-53830295D01*
X50770230Y-53466227D01*
X50773917Y-53456095D01*
X50920003Y-53103412D01*
X50924561Y-53093638D01*
X51100822Y-52755045D01*
X51106217Y-52745700D01*
X51311325Y-52423744D01*
X51317515Y-52414905D01*
X51549896Y-52112060D01*
X51556834Y-52103791D01*
X51814726Y-51822352D01*
X51822352Y-51814726D01*
X52103791Y-51556834D01*
X52112060Y-51549896D01*
X52414905Y-51317515D01*
X52423744Y-51311325D01*
X52745700Y-51106217D01*
X52755045Y-51100822D01*
X53093638Y-50924561D01*
X53103412Y-50920003D01*
X53456095Y-50773917D01*
X53466227Y-50770230D01*
X53830295Y-50655440D01*
X53840709Y-50652649D01*
X54213405Y-50570025D01*
X54224025Y-50568152D01*
X54602495Y-50518326D01*
X54613226Y-50517386D01*
X54997297Y-50500617D01*
X55002706Y-50500500D01*
X55065892Y-50500500D01*
X144934108Y-50500500D01*
X144997294Y-50500500D01*
X145002702Y-50500617D01*
G37*
%TD.AperFunction*%
%TD*%
%TA.AperFunction,Conductor*%
%TO.N,SH2*%
G36*
X114678039Y-55019685D02*
G01*
X114723794Y-55072489D01*
X114735000Y-55124000D01*
X114735000Y-56000000D01*
X116036000Y-56000000D01*
X116103039Y-56019685D01*
X116148794Y-56072489D01*
X116160000Y-56124000D01*
X116160000Y-56250000D01*
X116286000Y-56250000D01*
X116353039Y-56269685D01*
X116398794Y-56322489D01*
X116410000Y-56374000D01*
X116410000Y-57769999D01*
X116576001Y-57769999D01*
X116643040Y-57789684D01*
X116688795Y-57842488D01*
X116700001Y-57893999D01*
X116700001Y-67224191D01*
X116699521Y-67235090D01*
X116685511Y-67393865D01*
X116681693Y-67415328D01*
X116641522Y-67563913D01*
X116634006Y-67584374D01*
X116566108Y-67728576D01*
X116561031Y-67738233D01*
X115242669Y-69998281D01*
X115235584Y-70009090D01*
X115124041Y-70161322D01*
X115106700Y-70180442D01*
X114970912Y-70301938D01*
X114949988Y-70317055D01*
X114791981Y-70407809D01*
X114768382Y-70418265D01*
X114595012Y-70474339D01*
X114569759Y-70479683D01*
X114382070Y-70499326D01*
X114369163Y-70500000D01*
X110456093Y-70500000D01*
X110443939Y-70499403D01*
X110267065Y-70481982D01*
X110243224Y-70477240D01*
X110079001Y-70427424D01*
X110056543Y-70418121D01*
X109905201Y-70337227D01*
X109884989Y-70323722D01*
X109752333Y-70214854D01*
X109735145Y-70197666D01*
X109626277Y-70065010D01*
X109612772Y-70044798D01*
X109531878Y-69893456D01*
X109522575Y-69870998D01*
X109472757Y-69706769D01*
X109468018Y-69682941D01*
X109450597Y-69506061D01*
X109450000Y-69493907D01*
X109450000Y-67750003D01*
X109430785Y-67554911D01*
X109430785Y-67554910D01*
X109373880Y-67367317D01*
X109373876Y-67367309D01*
X109281473Y-67194435D01*
X109281471Y-67194433D01*
X109281470Y-67194430D01*
X109243648Y-67148344D01*
X109157107Y-67042892D01*
X109005571Y-66918531D01*
X109005564Y-66918526D01*
X108832690Y-66826123D01*
X108832687Y-66826122D01*
X108832686Y-66826121D01*
X108832683Y-66826120D01*
X108645090Y-66769215D01*
X108645088Y-66769214D01*
X108645090Y-66769214D01*
X108494494Y-66754382D01*
X108450000Y-66750000D01*
X108449997Y-66750000D01*
X107336887Y-66750000D01*
X107269848Y-66730315D01*
X107249206Y-66713681D01*
X107220016Y-66684491D01*
X107220015Y-66684490D01*
X107094485Y-66612016D01*
X107094486Y-66612016D01*
X107059482Y-66602637D01*
X106954475Y-66574500D01*
X106954472Y-66574500D01*
X103654387Y-66574500D01*
X103587348Y-66554815D01*
X103566706Y-66538181D01*
X102838016Y-65809491D01*
X102838015Y-65809490D01*
X102712485Y-65737016D01*
X102712486Y-65737016D01*
X102677482Y-65727637D01*
X102572475Y-65699500D01*
X102572472Y-65699500D01*
X101834601Y-65699500D01*
X101767562Y-65679815D01*
X101765747Y-65678626D01*
X101758127Y-65673535D01*
X101758124Y-65673533D01*
X101758123Y-65673533D01*
X101639744Y-65624499D01*
X101639738Y-65624497D01*
X101514071Y-65599500D01*
X101514069Y-65599500D01*
X101385931Y-65599500D01*
X101385929Y-65599500D01*
X101260261Y-65624497D01*
X101260255Y-65624499D01*
X101141875Y-65673533D01*
X101141866Y-65673538D01*
X101035331Y-65744723D01*
X101035327Y-65744726D01*
X100944726Y-65835327D01*
X100944723Y-65835331D01*
X100873538Y-65941866D01*
X100873533Y-65941875D01*
X100824499Y-66060255D01*
X100824497Y-66060261D01*
X100799500Y-66185928D01*
X100799500Y-66185931D01*
X100799500Y-66314069D01*
X100799500Y-66314071D01*
X100799499Y-66314071D01*
X100824497Y-66439738D01*
X100824499Y-66439744D01*
X100873533Y-66558124D01*
X100876408Y-66563502D01*
X100875079Y-66564212D01*
X100893732Y-66623789D01*
X100875246Y-66691169D01*
X100823266Y-66737858D01*
X100769752Y-66750000D01*
X96706093Y-66750000D01*
X96693939Y-66749403D01*
X96517065Y-66731982D01*
X96493224Y-66727240D01*
X96329001Y-66677424D01*
X96306543Y-66668121D01*
X96155201Y-66587227D01*
X96134989Y-66573722D01*
X96002333Y-66464854D01*
X95985145Y-66447666D01*
X95876277Y-66315010D01*
X95862772Y-66294798D01*
X95781878Y-66143456D01*
X95772575Y-66120998D01*
X95754149Y-66060255D01*
X95722757Y-65956769D01*
X95718018Y-65932941D01*
X95700597Y-65756061D01*
X95700000Y-65743907D01*
X95700000Y-59888575D01*
X111952500Y-59888575D01*
X111952500Y-60111424D01*
X111981585Y-60332354D01*
X111981588Y-60332367D01*
X112039263Y-60547618D01*
X112124545Y-60753502D01*
X112124554Y-60753520D01*
X112235964Y-60946491D01*
X112235973Y-60946504D01*
X112286540Y-61012403D01*
X112286543Y-61012403D01*
X112862023Y-60436922D01*
X112953426Y-60573715D01*
X113078785Y-60699074D01*
X113215576Y-60790475D01*
X112640095Y-61365955D01*
X112640095Y-61365956D01*
X112706007Y-61416533D01*
X112898985Y-61527949D01*
X112898997Y-61527954D01*
X113104881Y-61613236D01*
X113320132Y-61670911D01*
X113320145Y-61670914D01*
X113541075Y-61700000D01*
X113763925Y-61700000D01*
X113984854Y-61670914D01*
X113984867Y-61670911D01*
X114200118Y-61613236D01*
X114406002Y-61527954D01*
X114406014Y-61527949D01*
X114598998Y-61416530D01*
X114664903Y-61365957D01*
X114664904Y-61365956D01*
X114089423Y-60790475D01*
X114226215Y-60699074D01*
X114351574Y-60573715D01*
X114442975Y-60436923D01*
X115018456Y-61012404D01*
X115018457Y-61012403D01*
X115069030Y-60946498D01*
X115180449Y-60753514D01*
X115180454Y-60753502D01*
X115265736Y-60547618D01*
X115323411Y-60332367D01*
X115323414Y-60332354D01*
X115352500Y-60111424D01*
X115352500Y-59888575D01*
X115323414Y-59667645D01*
X115323411Y-59667632D01*
X115265736Y-59452381D01*
X115180454Y-59246497D01*
X115180449Y-59246485D01*
X115069033Y-59053507D01*
X115018456Y-58987595D01*
X115018455Y-58987595D01*
X114442975Y-59563075D01*
X114351574Y-59426285D01*
X114226215Y-59300926D01*
X114089422Y-59209523D01*
X114664903Y-58634043D01*
X114664903Y-58634040D01*
X114599004Y-58583473D01*
X114598991Y-58583464D01*
X114406020Y-58472054D01*
X114406002Y-58472045D01*
X114200118Y-58386763D01*
X113984867Y-58329088D01*
X113984854Y-58329085D01*
X113763925Y-58300000D01*
X113541075Y-58300000D01*
X113320145Y-58329085D01*
X113320132Y-58329088D01*
X113104881Y-58386763D01*
X112898997Y-58472045D01*
X112898979Y-58472054D01*
X112706011Y-58583462D01*
X112640095Y-58634042D01*
X113215577Y-59209523D01*
X113078785Y-59300926D01*
X112953426Y-59426285D01*
X112862024Y-59563077D01*
X112286542Y-58987595D01*
X112235962Y-59053511D01*
X112124554Y-59246479D01*
X112124545Y-59246497D01*
X112039263Y-59452381D01*
X111981588Y-59667632D01*
X111981585Y-59667645D01*
X111952500Y-59888575D01*
X95700000Y-59888575D01*
X95700000Y-57401479D01*
X114735001Y-57401479D01*
X114749835Y-57495149D01*
X114749837Y-57495155D01*
X114807356Y-57608041D01*
X114807363Y-57608050D01*
X114896949Y-57697636D01*
X114896953Y-57697639D01*
X115009855Y-57755166D01*
X115103514Y-57769999D01*
X115909999Y-57769999D01*
X115910000Y-57769998D01*
X115910000Y-56500000D01*
X114735001Y-56500000D01*
X114735001Y-57401479D01*
X95700000Y-57401479D01*
X95700000Y-56006092D01*
X95700597Y-55993938D01*
X95718018Y-55817056D01*
X95722757Y-55793232D01*
X95772577Y-55628994D01*
X95781875Y-55606549D01*
X95862775Y-55455195D01*
X95876272Y-55434995D01*
X95985149Y-55302328D01*
X96002328Y-55285149D01*
X96134995Y-55176272D01*
X96155195Y-55162775D01*
X96306549Y-55081875D01*
X96328994Y-55072577D01*
X96493232Y-55022757D01*
X96517056Y-55018018D01*
X96693939Y-55000597D01*
X96706093Y-55000000D01*
X114611000Y-55000000D01*
X114678039Y-55019685D01*
G37*
%TD.AperFunction*%
%TD*%
%TA.AperFunction,Conductor*%
%TO.N,SH1*%
G36*
X140206061Y-55000596D02*
G01*
X140382941Y-55018017D01*
X140406776Y-55022759D01*
X140570995Y-55072575D01*
X140593452Y-55081877D01*
X140744801Y-55162774D01*
X140765013Y-55176279D01*
X140897666Y-55285144D01*
X140914854Y-55302332D01*
X141023722Y-55434988D01*
X141037227Y-55455200D01*
X141118121Y-55606542D01*
X141127424Y-55629000D01*
X141177240Y-55793223D01*
X141181982Y-55817064D01*
X141199403Y-55993937D01*
X141200000Y-56006091D01*
X141200000Y-65743907D01*
X141199403Y-65756061D01*
X141181982Y-65932934D01*
X141177240Y-65956775D01*
X141127424Y-66120998D01*
X141118121Y-66143456D01*
X141037227Y-66294798D01*
X141023722Y-66315010D01*
X140914854Y-66447666D01*
X140897666Y-66464854D01*
X140765010Y-66573722D01*
X140744798Y-66587227D01*
X140593456Y-66668121D01*
X140570998Y-66677424D01*
X140406775Y-66727240D01*
X140382934Y-66731982D01*
X140206061Y-66749403D01*
X140193907Y-66750000D01*
X128950000Y-66750000D01*
X128901844Y-66754743D01*
X128754911Y-66769214D01*
X128644149Y-66802813D01*
X128567317Y-66826120D01*
X128567314Y-66826121D01*
X128567312Y-66826122D01*
X128567309Y-66826123D01*
X128394435Y-66918526D01*
X128394428Y-66918531D01*
X128242892Y-67042892D01*
X128118531Y-67194428D01*
X128118526Y-67194435D01*
X128026123Y-67367309D01*
X128026122Y-67367312D01*
X127969214Y-67554911D01*
X127950000Y-67750003D01*
X127950000Y-69493907D01*
X127949403Y-69506061D01*
X127931982Y-69682934D01*
X127927240Y-69706775D01*
X127877424Y-69870998D01*
X127868121Y-69893456D01*
X127787227Y-70044798D01*
X127773722Y-70065010D01*
X127664854Y-70197666D01*
X127647666Y-70214854D01*
X127515010Y-70323722D01*
X127494798Y-70337227D01*
X127343456Y-70418121D01*
X127320998Y-70427424D01*
X127156775Y-70477240D01*
X127132934Y-70481982D01*
X126956061Y-70499403D01*
X126943907Y-70500000D01*
X123030837Y-70500000D01*
X123017930Y-70499326D01*
X122830240Y-70479683D01*
X122804987Y-70474339D01*
X122631620Y-70418266D01*
X122608020Y-70407810D01*
X122450011Y-70317054D01*
X122429088Y-70301938D01*
X122293296Y-70180439D01*
X122275955Y-70161318D01*
X122164415Y-70009090D01*
X122157330Y-69998281D01*
X121866666Y-69500000D01*
X120838969Y-67738231D01*
X120833893Y-67728576D01*
X120765995Y-67584374D01*
X120758479Y-67563913D01*
X120718308Y-67415328D01*
X120714491Y-67393873D01*
X120700481Y-67235089D01*
X120700001Y-67224191D01*
X120700001Y-61670911D01*
X120700001Y-59888575D01*
X122112500Y-59888575D01*
X122112500Y-60111424D01*
X122141585Y-60332354D01*
X122141588Y-60332367D01*
X122199263Y-60547618D01*
X122284545Y-60753502D01*
X122284554Y-60753520D01*
X122395964Y-60946491D01*
X122395973Y-60946504D01*
X122446540Y-61012403D01*
X122446543Y-61012403D01*
X123022023Y-60436922D01*
X123113426Y-60573715D01*
X123238785Y-60699074D01*
X123375576Y-60790475D01*
X122800095Y-61365955D01*
X122800095Y-61365956D01*
X122866007Y-61416533D01*
X123058985Y-61527949D01*
X123058997Y-61527954D01*
X123264881Y-61613236D01*
X123480132Y-61670911D01*
X123480145Y-61670914D01*
X123701075Y-61700000D01*
X123923925Y-61700000D01*
X124144854Y-61670914D01*
X124144867Y-61670911D01*
X124360118Y-61613236D01*
X124566002Y-61527954D01*
X124566014Y-61527949D01*
X124758998Y-61416530D01*
X124824903Y-61365957D01*
X124824904Y-61365956D01*
X124249423Y-60790475D01*
X124386215Y-60699074D01*
X124511574Y-60573715D01*
X124602975Y-60436923D01*
X125178456Y-61012404D01*
X125178457Y-61012403D01*
X125229030Y-60946498D01*
X125340449Y-60753514D01*
X125340454Y-60753502D01*
X125425736Y-60547618D01*
X125483411Y-60332367D01*
X125483414Y-60332354D01*
X125512500Y-60111424D01*
X125512500Y-59888575D01*
X125483414Y-59667645D01*
X125483411Y-59667632D01*
X125425736Y-59452381D01*
X125340454Y-59246497D01*
X125340449Y-59246485D01*
X125229033Y-59053507D01*
X125178456Y-58987595D01*
X125178455Y-58987595D01*
X124602975Y-59563075D01*
X124511574Y-59426285D01*
X124386215Y-59300926D01*
X124249422Y-59209523D01*
X124824903Y-58634043D01*
X124824903Y-58634040D01*
X124759004Y-58583473D01*
X124758991Y-58583464D01*
X124566020Y-58472054D01*
X124566002Y-58472045D01*
X124360118Y-58386763D01*
X124144867Y-58329088D01*
X124144854Y-58329085D01*
X123923925Y-58300000D01*
X123701075Y-58300000D01*
X123480145Y-58329085D01*
X123480132Y-58329088D01*
X123264881Y-58386763D01*
X123058997Y-58472045D01*
X123058979Y-58472054D01*
X122866011Y-58583462D01*
X122800095Y-58634042D01*
X123375577Y-59209523D01*
X123238785Y-59300926D01*
X123113426Y-59426285D01*
X123022024Y-59563077D01*
X122446542Y-58987595D01*
X122395962Y-59053511D01*
X122284554Y-59246479D01*
X122284545Y-59246497D01*
X122199263Y-59452381D01*
X122141588Y-59667632D01*
X122141585Y-59667645D01*
X122112500Y-59888575D01*
X120700001Y-59888575D01*
X120700001Y-57893996D01*
X120719686Y-57826960D01*
X120772490Y-57781205D01*
X120824001Y-57769999D01*
X121090000Y-57769999D01*
X121590000Y-57769999D01*
X122396479Y-57769999D01*
X122490149Y-57755164D01*
X122490155Y-57755162D01*
X122603041Y-57697643D01*
X122603050Y-57697636D01*
X122692636Y-57608050D01*
X122692639Y-57608046D01*
X122750166Y-57495144D01*
X122765000Y-57401486D01*
X122765000Y-56500000D01*
X121590000Y-56500000D01*
X121590000Y-57769999D01*
X121090000Y-57769999D01*
X121090000Y-56374000D01*
X121109685Y-56306961D01*
X121162489Y-56261206D01*
X121214000Y-56250000D01*
X121340000Y-56250000D01*
X121340000Y-56124000D01*
X121359685Y-56056961D01*
X121412489Y-56011206D01*
X121464000Y-56000000D01*
X122764999Y-56000000D01*
X122764999Y-55123999D01*
X122784684Y-55056960D01*
X122837488Y-55011205D01*
X122888994Y-54999999D01*
X140193907Y-54999999D01*
X140206061Y-55000596D01*
G37*
%TD.AperFunction*%
%TD*%
%TA.AperFunction,Conductor*%
%TO.N,+36V*%
G36*
X102987152Y-67519685D02*
G01*
X103007794Y-67536319D01*
X103036985Y-67565510D01*
X103036986Y-67565511D01*
X103036988Y-67565512D01*
X103150194Y-67630871D01*
X103154004Y-67633070D01*
X103162515Y-67637984D01*
X103302525Y-67675500D01*
X103302526Y-67675500D01*
X103447474Y-67675500D01*
X106602613Y-67675500D01*
X106669652Y-67695185D01*
X106690294Y-67711819D01*
X107034783Y-68056308D01*
X107068268Y-68117631D01*
X107068719Y-68119798D01*
X107070497Y-68128736D01*
X107070499Y-68128744D01*
X107119533Y-68247124D01*
X107119538Y-68247133D01*
X107190723Y-68353668D01*
X107190726Y-68353672D01*
X107281327Y-68444273D01*
X107281331Y-68444276D01*
X107387866Y-68515461D01*
X107387872Y-68515464D01*
X107387873Y-68515465D01*
X107506256Y-68564501D01*
X107506260Y-68564501D01*
X107506261Y-68564502D01*
X107631928Y-68589500D01*
X107631931Y-68589500D01*
X107760071Y-68589500D01*
X107844615Y-68572682D01*
X107885744Y-68564501D01*
X108004127Y-68515465D01*
X108110669Y-68444276D01*
X108201276Y-68353669D01*
X108272465Y-68247127D01*
X108321501Y-68128744D01*
X108346500Y-68003069D01*
X108346500Y-67874931D01*
X108346500Y-67874928D01*
X108321502Y-67749261D01*
X108321501Y-67749260D01*
X108321501Y-67749256D01*
X108302649Y-67703743D01*
X108289274Y-67671452D01*
X108281805Y-67601983D01*
X108313080Y-67539504D01*
X108373169Y-67503852D01*
X108403835Y-67500000D01*
X108898416Y-67500000D01*
X108923257Y-67507294D01*
X108948918Y-67510750D01*
X108956236Y-67516978D01*
X108965455Y-67519685D01*
X108982407Y-67539249D01*
X109002129Y-67556032D01*
X109008197Y-67569012D01*
X109011210Y-67572489D01*
X109017076Y-67588004D01*
X109027606Y-67622716D01*
X109032349Y-67646557D01*
X109043903Y-67763857D01*
X109044500Y-67776012D01*
X109044500Y-69493892D01*
X109044988Y-69513810D01*
X109045584Y-69525951D01*
X109047050Y-69545815D01*
X109064472Y-69722699D01*
X109070306Y-69762036D01*
X109070307Y-69762041D01*
X109075041Y-69785845D01*
X109075050Y-69785884D01*
X109084714Y-69824469D01*
X109084715Y-69824473D01*
X109134534Y-69988706D01*
X109147950Y-70026198D01*
X109157248Y-70048645D01*
X109174248Y-70084585D01*
X109174267Y-70084623D01*
X109255141Y-70235928D01*
X109255143Y-70235931D01*
X109255153Y-70235949D01*
X109262820Y-70248741D01*
X109275600Y-70270064D01*
X109275615Y-70270088D01*
X109289112Y-70290288D01*
X109312815Y-70322249D01*
X109312827Y-70322265D01*
X109421693Y-70454918D01*
X109448405Y-70484390D01*
X109465608Y-70501593D01*
X109495080Y-70528305D01*
X109619771Y-70630637D01*
X109627742Y-70637178D01*
X109659708Y-70660885D01*
X109679920Y-70674390D01*
X109714050Y-70694846D01*
X109753747Y-70716064D01*
X109753892Y-70716142D01*
X109803736Y-70765105D01*
X109819196Y-70833242D01*
X109795364Y-70898922D01*
X109739806Y-70941291D01*
X109695438Y-70949500D01*
X109334601Y-70949500D01*
X109267562Y-70929815D01*
X109265747Y-70928626D01*
X109258127Y-70923535D01*
X109258124Y-70923533D01*
X109258123Y-70923533D01*
X109139744Y-70874499D01*
X109139738Y-70874497D01*
X109014071Y-70849500D01*
X109014069Y-70849500D01*
X108885931Y-70849500D01*
X108885929Y-70849500D01*
X108760261Y-70874497D01*
X108760255Y-70874499D01*
X108641875Y-70923533D01*
X108641866Y-70923538D01*
X108535331Y-70994723D01*
X108535327Y-70994726D01*
X108444726Y-71085327D01*
X108444723Y-71085331D01*
X108373538Y-71191866D01*
X108373533Y-71191875D01*
X108324499Y-71310255D01*
X108324497Y-71310261D01*
X108299500Y-71435928D01*
X108299500Y-71435931D01*
X108299500Y-71564069D01*
X108299500Y-71564071D01*
X108299499Y-71564071D01*
X108324497Y-71689738D01*
X108324499Y-71689744D01*
X108373533Y-71808124D01*
X108373538Y-71808133D01*
X108444723Y-71914668D01*
X108444726Y-71914672D01*
X108535327Y-72005273D01*
X108535331Y-72005276D01*
X108641866Y-72076461D01*
X108641872Y-72076464D01*
X108641873Y-72076465D01*
X108760256Y-72125501D01*
X108760260Y-72125501D01*
X108760261Y-72125502D01*
X108885928Y-72150500D01*
X108885931Y-72150500D01*
X109014071Y-72150500D01*
X109098615Y-72133682D01*
X109139744Y-72125501D01*
X109258127Y-72076465D01*
X109265712Y-72071396D01*
X109332389Y-72050520D01*
X109334601Y-72050500D01*
X114815399Y-72050500D01*
X114882438Y-72070185D01*
X114884252Y-72071373D01*
X114891873Y-72076465D01*
X115010256Y-72125501D01*
X115010260Y-72125501D01*
X115010261Y-72125502D01*
X115135928Y-72150500D01*
X115135931Y-72150500D01*
X115264071Y-72150500D01*
X115348615Y-72133682D01*
X115389744Y-72125501D01*
X115508127Y-72076465D01*
X115614669Y-72005276D01*
X115705276Y-71914669D01*
X115776465Y-71808127D01*
X115825501Y-71689744D01*
X115850500Y-71564069D01*
X115850500Y-71435931D01*
X115850500Y-71435928D01*
X115825502Y-71310261D01*
X115825501Y-71310260D01*
X115825501Y-71310256D01*
X115776465Y-71191873D01*
X115776464Y-71191872D01*
X115776461Y-71191866D01*
X115705276Y-71085331D01*
X115705273Y-71085327D01*
X115614672Y-70994726D01*
X115614668Y-70994723D01*
X115508133Y-70923538D01*
X115508124Y-70923533D01*
X115389744Y-70874499D01*
X115389739Y-70874498D01*
X115261706Y-70849029D01*
X115199796Y-70816643D01*
X115165222Y-70755927D01*
X115168963Y-70686158D01*
X115208147Y-70630817D01*
X115208371Y-70630637D01*
X115208382Y-70630629D01*
X115241299Y-70604132D01*
X115377087Y-70482636D01*
X115407065Y-70452860D01*
X115424406Y-70433740D01*
X115451134Y-70400989D01*
X115562677Y-70248757D01*
X115574722Y-70231386D01*
X115581807Y-70220577D01*
X115592931Y-70202601D01*
X116911293Y-67942553D01*
X116915485Y-67934989D01*
X116919952Y-67926930D01*
X116922315Y-67922433D01*
X116925029Y-67917272D01*
X116932974Y-67901316D01*
X117000872Y-67757114D01*
X117014638Y-67724193D01*
X117022154Y-67703732D01*
X117032968Y-67669743D01*
X117054084Y-67591637D01*
X117090583Y-67532059D01*
X117153498Y-67501671D01*
X117173787Y-67500000D01*
X120226214Y-67500000D01*
X120293253Y-67519685D01*
X120339008Y-67572489D01*
X120345917Y-67591638D01*
X120367032Y-67669742D01*
X120377851Y-67703743D01*
X120385362Y-67724191D01*
X120399129Y-67757114D01*
X120467016Y-67901293D01*
X120474979Y-67917287D01*
X120480049Y-67926930D01*
X120484516Y-67934989D01*
X120488707Y-67942551D01*
X121807068Y-70202601D01*
X121807075Y-70202612D01*
X121818196Y-70220584D01*
X121825276Y-70231385D01*
X121837310Y-70248741D01*
X121902294Y-70337430D01*
X121948862Y-70400985D01*
X121975583Y-70433728D01*
X121992924Y-70452849D01*
X122022910Y-70482633D01*
X122022914Y-70482637D01*
X122022917Y-70482640D01*
X122158672Y-70604106D01*
X122158686Y-70604118D01*
X122158702Y-70604132D01*
X122178144Y-70619783D01*
X122191613Y-70630626D01*
X122191616Y-70630628D01*
X122191621Y-70630632D01*
X122200682Y-70637178D01*
X122212544Y-70645748D01*
X122212554Y-70645755D01*
X122248023Y-70668665D01*
X122248039Y-70668675D01*
X122248047Y-70668680D01*
X122293622Y-70694857D01*
X122406046Y-70759431D01*
X122406056Y-70759436D01*
X122443762Y-70778552D01*
X122467362Y-70789008D01*
X122506832Y-70804087D01*
X122542008Y-70815464D01*
X122680183Y-70860155D01*
X122680186Y-70860155D01*
X122680199Y-70860160D01*
X122721035Y-70871053D01*
X122746288Y-70876397D01*
X122788032Y-70882980D01*
X122931523Y-70897997D01*
X122975702Y-70902621D01*
X122975705Y-70902621D01*
X122975722Y-70902623D01*
X122996784Y-70904274D01*
X123009691Y-70904948D01*
X123030837Y-70905500D01*
X123030843Y-70905500D01*
X126943892Y-70905500D01*
X126943907Y-70905500D01*
X126963801Y-70905012D01*
X126975955Y-70904415D01*
X126995808Y-70902950D01*
X127172681Y-70885529D01*
X127212039Y-70879691D01*
X127235880Y-70874949D01*
X127274484Y-70865280D01*
X127438707Y-70815464D01*
X127476185Y-70802054D01*
X127498643Y-70792751D01*
X127534607Y-70775740D01*
X127685949Y-70694846D01*
X127720079Y-70674390D01*
X127740291Y-70660885D01*
X127772257Y-70637178D01*
X127904913Y-70528310D01*
X127934398Y-70501586D01*
X127951586Y-70484398D01*
X127978310Y-70454913D01*
X128087178Y-70322257D01*
X128110885Y-70290291D01*
X128124390Y-70270079D01*
X128144846Y-70235949D01*
X128225740Y-70084607D01*
X128242751Y-70048643D01*
X128252054Y-70026185D01*
X128265464Y-69988707D01*
X128315280Y-69824484D01*
X128324949Y-69785880D01*
X128329691Y-69762039D01*
X128335529Y-69722681D01*
X128352950Y-69545808D01*
X128354415Y-69525955D01*
X128355012Y-69513801D01*
X128355500Y-69493907D01*
X128355500Y-67776012D01*
X128356097Y-67763864D01*
X128360004Y-67724191D01*
X128367650Y-67646550D01*
X128372393Y-67622709D01*
X128378681Y-67601983D01*
X128382921Y-67588003D01*
X128421219Y-67529565D01*
X128485031Y-67501109D01*
X128501581Y-67500000D01*
X143693907Y-67500000D01*
X143706061Y-67500597D01*
X143882941Y-67518018D01*
X143906769Y-67522757D01*
X144071001Y-67572576D01*
X144093453Y-67581877D01*
X144244798Y-67662772D01*
X144265008Y-67676276D01*
X144371735Y-67763864D01*
X144397666Y-67785145D01*
X144414854Y-67802333D01*
X144523722Y-67934989D01*
X144537227Y-67955201D01*
X144618121Y-68106543D01*
X144627424Y-68129001D01*
X144677240Y-68293224D01*
X144681982Y-68317065D01*
X144699403Y-68493938D01*
X144700000Y-68506092D01*
X144700000Y-75493907D01*
X144699403Y-75506061D01*
X144681982Y-75682934D01*
X144677240Y-75706775D01*
X144627424Y-75870998D01*
X144618121Y-75893456D01*
X144537227Y-76044798D01*
X144523722Y-76065010D01*
X144414854Y-76197666D01*
X144397666Y-76214854D01*
X144265010Y-76323722D01*
X144244798Y-76337227D01*
X144093456Y-76418121D01*
X144070998Y-76427424D01*
X143906775Y-76477240D01*
X143882934Y-76481982D01*
X143706061Y-76499403D01*
X143693907Y-76500000D01*
X93706093Y-76500000D01*
X93693939Y-76499403D01*
X93517065Y-76481982D01*
X93493224Y-76477240D01*
X93329001Y-76427424D01*
X93306543Y-76418121D01*
X93155201Y-76337227D01*
X93134989Y-76323722D01*
X93002333Y-76214854D01*
X92985145Y-76197666D01*
X92876277Y-76065010D01*
X92862772Y-76044798D01*
X92781878Y-75893456D01*
X92772575Y-75870998D01*
X92722757Y-75706769D01*
X92718018Y-75682941D01*
X92700597Y-75506061D01*
X92700000Y-75493907D01*
X92700000Y-74357682D01*
X94700000Y-74357682D01*
X94700000Y-74562317D01*
X94732009Y-74764417D01*
X94795244Y-74959031D01*
X94888141Y-75141350D01*
X94888147Y-75141359D01*
X94920523Y-75185921D01*
X94920524Y-75185922D01*
X95517038Y-74589408D01*
X95534076Y-74652992D01*
X95599902Y-74767006D01*
X95692994Y-74860098D01*
X95807008Y-74925924D01*
X95870590Y-74942961D01*
X95274076Y-75539474D01*
X95318650Y-75571859D01*
X95500968Y-75664755D01*
X95695582Y-75727990D01*
X95897683Y-75760000D01*
X96102317Y-75760000D01*
X96304417Y-75727990D01*
X96499031Y-75664755D01*
X96681349Y-75571859D01*
X96725921Y-75539474D01*
X96129408Y-74942961D01*
X96192992Y-74925924D01*
X96307006Y-74860098D01*
X96400098Y-74767006D01*
X96465924Y-74652992D01*
X96482961Y-74589408D01*
X97079474Y-75185921D01*
X97111859Y-75141349D01*
X97204755Y-74959031D01*
X97267990Y-74764417D01*
X97300000Y-74562317D01*
X97300000Y-74357682D01*
X138400000Y-74357682D01*
X138400000Y-74562317D01*
X138432009Y-74764417D01*
X138495244Y-74959031D01*
X138588141Y-75141350D01*
X138588147Y-75141359D01*
X138620523Y-75185921D01*
X138620524Y-75185922D01*
X139217038Y-74589408D01*
X139234076Y-74652992D01*
X139299902Y-74767006D01*
X139392994Y-74860098D01*
X139507008Y-74925924D01*
X139570590Y-74942961D01*
X138974076Y-75539474D01*
X139018650Y-75571859D01*
X139200968Y-75664755D01*
X139395582Y-75727990D01*
X139597683Y-75760000D01*
X139802317Y-75760000D01*
X140004417Y-75727990D01*
X140199031Y-75664755D01*
X140381349Y-75571859D01*
X140425921Y-75539474D01*
X139829408Y-74942961D01*
X139892992Y-74925924D01*
X140007006Y-74860098D01*
X140100098Y-74767006D01*
X140165924Y-74652992D01*
X140182961Y-74589409D01*
X140779474Y-75185922D01*
X140779474Y-75185921D01*
X140811859Y-75141349D01*
X140904755Y-74959031D01*
X140967990Y-74764417D01*
X141000000Y-74562317D01*
X141000000Y-74357682D01*
X140967990Y-74155582D01*
X140904755Y-73960968D01*
X140811859Y-73778650D01*
X140779474Y-73734077D01*
X140779474Y-73734076D01*
X140182961Y-74330590D01*
X140165924Y-74267008D01*
X140100098Y-74152994D01*
X140007006Y-74059902D01*
X139892992Y-73994076D01*
X139829407Y-73977038D01*
X140425922Y-73380524D01*
X140425921Y-73380523D01*
X140381359Y-73348147D01*
X140381350Y-73348141D01*
X140199031Y-73255244D01*
X140004417Y-73192009D01*
X139802317Y-73160000D01*
X139597683Y-73160000D01*
X139395582Y-73192009D01*
X139200968Y-73255244D01*
X139018644Y-73348143D01*
X138974077Y-73380523D01*
X138974077Y-73380524D01*
X139570592Y-73977038D01*
X139507008Y-73994076D01*
X139392994Y-74059902D01*
X139299902Y-74152994D01*
X139234076Y-74267008D01*
X139217038Y-74330591D01*
X138620524Y-73734077D01*
X138620523Y-73734077D01*
X138588143Y-73778644D01*
X138495244Y-73960968D01*
X138432009Y-74155582D01*
X138400000Y-74357682D01*
X97300000Y-74357682D01*
X97267990Y-74155582D01*
X97204755Y-73960968D01*
X97111859Y-73778650D01*
X97079474Y-73734077D01*
X97079474Y-73734076D01*
X96482961Y-74330590D01*
X96465924Y-74267008D01*
X96400098Y-74152994D01*
X96307006Y-74059902D01*
X96192992Y-73994076D01*
X96129407Y-73977038D01*
X96725922Y-73380524D01*
X96725921Y-73380523D01*
X96681359Y-73348147D01*
X96681350Y-73348141D01*
X96499031Y-73255244D01*
X96304417Y-73192009D01*
X96102317Y-73160000D01*
X95897683Y-73160000D01*
X95695582Y-73192009D01*
X95500968Y-73255244D01*
X95318644Y-73348143D01*
X95274077Y-73380523D01*
X95274077Y-73380524D01*
X95870592Y-73977038D01*
X95807008Y-73994076D01*
X95692994Y-74059902D01*
X95599902Y-74152994D01*
X95534076Y-74267008D01*
X95517038Y-74330591D01*
X94920524Y-73734077D01*
X94920523Y-73734077D01*
X94888143Y-73778644D01*
X94795244Y-73960968D01*
X94732009Y-74155582D01*
X94700000Y-74357682D01*
X92700000Y-74357682D01*
X92700000Y-68506092D01*
X92700597Y-68493938D01*
X92705488Y-68444276D01*
X92718018Y-68317056D01*
X92722757Y-68293232D01*
X92772577Y-68128994D01*
X92781875Y-68106549D01*
X92862775Y-67955195D01*
X92876272Y-67934995D01*
X92985149Y-67802328D01*
X93002328Y-67785149D01*
X93134995Y-67676272D01*
X93155195Y-67662775D01*
X93306549Y-67581875D01*
X93328994Y-67572577D01*
X93493232Y-67522757D01*
X93517056Y-67518018D01*
X93693939Y-67500597D01*
X93706093Y-67500000D01*
X102920113Y-67500000D01*
X102987152Y-67519685D01*
G37*
%TD.AperFunction*%
%TD*%
M02*
